<svg id="Capa_1" data-name="Capa 1" xmlns="http://www.w3.org/2000/svg" viewBox="0 0 937.3 374.7"><defs><style>.cls-1{fill:#003a7f;}.cls-2{fill:#0094e9;}</style></defs><title>logo-c03</title><path class="cls-1" d="M200.4,297.3q0,13.7.3,40.7t0.3,40.5q0,3.9-2.5,4.7t-15.4,1.1q-12.1,0-15.5-1.1a3.8,3.8,0,0,1-2.7-2.4,39,39,0,0,1-.2-5.6q0-12.9.3-38.8t0.3-39q0-53.1-2.2-84.5-0.2-3-.2-3.9,0-3.7,2.7-3.7a49.9,49.9,0,0,1,8.6,1.1,50,50,0,0,0,8.7,1.1,60.3,60.3,0,0,0,8.7-.9,60.6,60.6,0,0,1,8.7-.9q2.4,0,2.4,3.7,0,0.7-.2,3.6Q200.4,249.2,200.4,297.3ZM203,158.4q0,32.5-19.7,32.5-8.4,0-14-8.2t-6-24.3q0-14.6,6.2-23.9t13.8-8.6q7.8,0,13.6,8.8T203,158.4Z" transform="translate(-8 -23)"/><path class="cls-1" d="M275,318q0,4.1-4.3,4.1l-5.6-.3-5.5-.3q-8.3,0-11.3,2.7t-3,11q0,4.5.2,13.6t0.2,13.6q0,3,.4,9t0.4,8.9q0,2.5-3.3,2.8-4.8.4-14.8,0.4a146.8,146.8,0,0,1-15.3-.6q-3.3-.4-3.3-3.5,0-8.4.1-25t0.1-25q0-24.6-4.3-40.5a7.7,7.7,0,0,1-.2-1.6,2,2,0,0,1,1.5-2.1q5.5-.6,16.2-2.3l16.4-3.2q1.8,0,2.3,6.6t1.8,6.6,8.2-5.5q9.6-5.5,18.6-5.5,5.6,0,5.6,2.5a84.9,84.9,0,0,1-.6,8.6q-0.6,6-.7,8.6t0.1,8Q275,316,275,318Z" transform="translate(-8 -23)"/><path class="cls-2" d="M82.7,262.2a17.6,17.6,0,0,1,0,24.2,16,16,0,0,1-23.3,0C26.3,251.9,8,206,8,157.2S26.2,62.5,59.4,28.1a16,16,0,0,1,23.3,0,17.6,17.6,0,0,1,0,24.2c-26.9,28-41.8,65.3-41.8,105S55.7,234.2,82.7,262.2ZM307.5,28a16,16,0,0,0-23.3,0,17.6,17.6,0,0,0,0,24.2c27,28,41.8,65.3,41.8,105s-14.8,76.9-41.8,105a17.6,17.6,0,0,0,0,24.2,16,16,0,0,0,23.3,0C340.7,251.9,359,206,359,157.2S340.7,62.5,307.5,28ZM112.2,157.2A75.4,75.4,0,0,1,133,104.7a17.6,17.6,0,0,0,0-24.2,16,16,0,0,0-23.3,0,111.7,111.7,0,0,0,0,153.4,16,16,0,0,0,23.3,0,17.6,17.6,0,0,0,0-24.2A75.2,75.2,0,0,1,112.2,157.2ZM257.1,80.5a16,16,0,0,0-23.3,0,17.6,17.6,0,0,0,0,24.2,76.4,76.4,0,0,1,0,105,17.6,17.6,0,0,0,0,24.2,16,16,0,0,0,23.3,0A111.7,111.7,0,0,0,257.1,80.5ZM183.5,123c-18.2,0-32.9,15.3-32.9,34.3s14.7,34.3,32.9,34.3,32.9-15.3,32.9-34.3S201.7,123,183.5,123Z" transform="translate(-8 -23)"/><path class="cls-1" d="M408.5,163.4q0,15.5.4,46.6t0.4,46.6q0,2.6-.7,3.3l-1.9.5a61.7,61.7,0,0,1-12.7,1q-10.7,0-13.6-1t-2.1-4.1q0,2.1.7-23.1,1.3-53.1,1.3-69.8,0-14-.5-42.1t-0.5-42.1q0-2.9,1.7-2.9l6.8,0.4,6.8,0.4,6.7-.4,6.7-.4q2.1,0,2.1,2.9,0,14-.8,42.1T408.5,163.4Z" transform="translate(-8 -23)"/><path class="cls-1" d="M495.7,256.5q0,3.5-2.1,4.1t-10.7.5q-9.2,0-11.4-.8t-2.2-5.4q0-6.2.2-18.6t0.2-18.8q0-4.9-.1-14.5t-0.1-14.5q0-18-8.7-18-2.9,0-6.7,4.5t-4.1,9.8v70.8q0,4.3-2.3,4.9a65.3,65.3,0,0,1-10.5.5q-8.6,0-11.1-.8t-2.3-4.3q0-10.2.1-30.8t0.1-31q0-32.7-2.9-51.3a16.3,16.3,0,0,1-.1-2,3.3,3.3,0,0,1,1.1-2.9q4.6-.9,12.3-2.9,11.6-4.1,13.1-4.1t1.2,8.9q0.4,8.9,1.2,8.9-0.8,0,7.9-9.1t15.2-9.1q9.3,0,15.5,7.9t7,25.2v41.8q0,8.5.1,25.5T495.7,256.5Z" transform="translate(-8 -23)"/><path class="cls-1" d="M557,221.9q0,3.9-.5,11.9t-0.5,11.7a15.7,15.7,0,0,1-.4,4.8,11.4,11.4,0,0,1-2.4,3q-9.4,9.3-20.9,9.3-21.2,0-21.2-29,0-8.7.4-26t0.4-26q0-5.8-3.7-5.8H506q-2.8,0-2.8-3.5t0.2-6.4q0.2-4.3.2-6.4t-0.2-8.4q-0.2-5.6-.2-8.4t4.7-2.9a2.6,2.6,0,0,0,2.9-2.6q0.4-5,.3-15.7-0.3-16.9-.3-16.1,0-15.2,1.6-15.2a15.8,15.8,0,0,1,5.6,1.6,32.5,32.5,0,0,0,5.8,2l11.3,2.5a2,2,0,0,1,1.8,2.2q0,5.2-.5,15.9t-0.5,16q0,6.4,2.1,6.4l7.8-.4,7.8-.4q1.6,0,1.6,2t-0.4,9.1q-0.4,6-.4,9.1t0.1,9.2q0.1,6,.1,9.2t-2.1,2.8l-4.9-.2-4.9-.2h-5.5q-1.1,0-1.1,5.8v9.3q0.1,6.3.1,9.3,0,11,1.4,15.2t7.8,5.6a14.3,14.3,0,0,0,5.2-1.5,14.4,14.4,0,0,1,4.8-1.5Q557,219,557,221.9Z" transform="translate(-8 -23)"/><path class="cls-1" d="M631.8,189.1q0,13.3-4.8,15.1l-15.2,2.9q-8.6,1.7-25.8,4.1,1,8.5,6.2,13a14.4,14.4,0,0,0,9.7,3.7q6.5,0,13.1-6.3l5.6-6.3q1.5,1.3,5.2,13.4t3.6,15.3a7.8,7.8,0,0,1-1.1,3q-8.9,17.2-27.8,17.2t-28.1-18.2q-11-18.5-11-49.5t9.8-49.5Q581.4,127,598.1,127q14.1,0,23.9,18.4T631.8,189.1Zm-25.6-8a30.4,30.4,0,0,0-3.2-14.3q-3.2-6.2-7.7-6.2t-7.6,7a37.7,37.7,0,0,0-2.8,15.1q0,3.5,2.1,3.5,5.4,0,16.8-3Q606.1,182.5,606.1,181.1Z" transform="translate(-8 -23)"/><path class="cls-1" d="M688.4,178.6q0,5.1-3.1,5.1l-4.1-.3-4-.3q-6.1,0-8.3,3.4t-2.2,13.8q0,5.6.1,17.1t0.1,17.1q0,3.8.3,11.3t0.3,11.2q0,3.1-2.4,3.5a80.2,80.2,0,0,1-10.8.5,62.6,62.6,0,0,1-11.1-.8q-2.4-.5-2.4-4.3,0-10.5.1-31.4t0.1-31.4q0-30.8-3.1-50.8a16.3,16.3,0,0,1-.1-2,2.8,2.8,0,0,1,1.1-2.6q4-.8,11.8-2.9l11.9-4.1q1.3,0,1.7,8.3t1.3,8.3,6-6.9q7-6.9,13.5-6.9,4.1,0,4.1,3.1t-0.4,10.8q-0.4,7.5-.5,10.8t0.1,10.1Q688.4,176.1,688.4,178.6Z" transform="translate(-8 -23)"/><path class="cls-1" d="M784.8,259q0,0.9-1.5,1.3t-14,.8q-9.6,0-13-.8a4.8,4.8,0,0,1-1.8-.7,6.8,6.8,0,0,1-1-2.6l-3.2-15.2q-2.9-13.1-8.9-38.7-1.3-5.1-6.1-5.6,2.2,0.3-7.5.3-1.1,0-1.1,6.7,0,8.9.9,26.6t0.9,26.6q0,2.2-.7,2.6l-2.1.3a124,124,0,0,1-13.5.5q-10.5,0-12.6-.8t-2.1-4.1q0-14.4.8-43.6T699,169q0-55.5-1.4-86.6V80.6a2.9,2.9,0,0,1,2.3-3q2.4-.8,22.4-1.6,13.5-.5,21.6-0.5,16.7,0,27.2,13.5Q783,104.2,783,132.9q0,19.2-3.1,30.6a63.5,63.5,0,0,1-11.4,22.2,6.5,6.5,0,0,0-1.7,3.9l8.9,32.9Q784.8,255.6,784.8,259ZM754,141.3q0-16-5.9-22.2t-14.2-4.7q-7,0-7.4,3.8T726.1,144q0,3,.1,8.9t0.1,8.8,2.3,1.3a36.5,36.5,0,0,0,9.4,1.2Q754,164.2,754,141.3Z" transform="translate(-8 -23)"/><path class="cls-1" d="M859.6,189.1q0,13.3-4.8,15.1l-15.2,2.9q-8.6,1.7-25.8,4.1,1,8.5,6.2,13a14.4,14.4,0,0,0,9.7,3.7q6.5,0,13.1-6.3l5.6-6.3q1.5,1.3,5.2,13.4t3.6,15.3a7.8,7.8,0,0,1-1.1,3q-8.9,17.2-27.8,17.2t-28.1-18.2q-11-18.5-11-49.5t9.8-49.5Q809.2,127,825.9,127q14.1,0,23.9,18.4T859.6,189.1Zm-25.6-8a30.4,30.4,0,0,0-3.2-14.3q-3.2-6.2-7.7-6.2t-7.6,7a37.7,37.7,0,0,0-2.8,15.1q0,3.5,2.1,3.5,5.4,0,16.8-3Q834,182.5,834,181.1Z" transform="translate(-8 -23)"/><path class="cls-1" d="M945.3,74.2q0-2.9-.6,8.7-0.8,14.6-1.2,37.3-0.6,25.7-.6,58.5,0,54.2,1.7,77.1,0.1,2.5.1,3.1a1.5,1.5,0,0,1-1.1,1.7q-2.6.7-19.4,0.7-4,0-4.5-2.8l-0.3-10a5.7,5.7,0,0,0-.6-2.1,6.6,6.6,0,0,0-1.1,1.6q-7.9,13.9-19.8,13.9-15.5,0-24.8-19.4t-8.9-46.7q0-28.6,8.7-47.1T897.9,129q11.1,0,17.2,12.6,1,2.1,1.5,2.1t0.7-3.4q0-10.1-.3-30.2t-0.3-30q0-3.8,1.2-4.3,4.7-.4,12.9-1.6,14.6-3.3,13-3.3Q945.3,70.9,945.3,74.2ZM917.7,194.7a39.1,39.1,0,0,0-4-18.2q-4-7.8-9.7-7.8t-9.6,7.8q-3.6,7.8-3.6,18.7t3.6,18q3.7,7.9,9.5,7.9t9.8-7.9A40.7,40.7,0,0,0,917.7,194.7Z" transform="translate(-8 -23)"/><path class="cls-2" d="M488.8,325.3a0.9,0.9,0,0,1-.9,1.1l-11.8-.8q-0.2,13.3-.2,18.6t0.4,18.7q0.4,12.5.4,18.7a1.6,1.6,0,0,1-.4,1.3l-1.1.3a41.8,41.8,0,0,1-6.9.4,40,40,0,0,1-7.1-.4,1.5,1.5,0,0,1-1.1-1.6q0-6.2.4-18.7t0.4-18.7q0-4.1-.3-18.3a98,98,0,0,1-12.5,1.1,0.5,0.5,0,0,1-.6-0.5,40.6,40.6,0,0,1,.5-4.1q0.6-3.7.7-4.5,0.1-2.5.3-5t0.9-4h0.5a117.2,117.2,0,0,0,18.7,1.1q3.5,0,13-1l5.1-.5h0.9a2.5,2.5,0,0,1,.2,1q0,1.4-.1,4t-0.1,4,0.3,3.9Q488.8,324,488.8,325.3Z" transform="translate(-8 -23)"/><path class="cls-2" d="M528.5,354.5q0,5.3-2.5,6.1l-8.1,1.2-13.8,1.6a7.3,7.3,0,0,0,3.3,5.2,9.2,9.2,0,0,0,5.2,1.5,11.9,11.9,0,0,0,7-2.5l3-2.5q0.8,0.5,2.8,5.4t1.9,6.2a2.7,2.7,0,0,1-.6,1.2q-4.8,6.9-14.8,6.9a18.1,18.1,0,0,1-15-7.3q-5.9-7.4-5.9-19.9t5.2-19.9q5.4-8,14.3-8t12.7,7.4A29.6,29.6,0,0,1,528.5,354.5Zm-13.7-3.2a9.8,9.8,0,0,0-1.7-5.7,4.9,4.9,0,0,0-4.1-2.5q-2.5,0-4.1,2.8a12,12,0,0,0-1.5,6.1q0,1.4,1.1,1.4a51.4,51.4,0,0,0,9-1.2Q514.9,351.9,514.9,351.3Z" transform="translate(-8 -23)"/><path class="cls-2" d="M558.7,348.5l-2.4-.8a11.7,11.7,0,0,0-3.8-.8,6.5,6.5,0,0,0-5.5,2.8,12.4,12.4,0,0,0-2.1,7.5q0,4.9,2.3,7.6a7.3,7.3,0,0,0,5.9,2.8,8.2,8.2,0,0,0,3.9-1.2l2-1.2q0.7,0,1.7,6.7a70.7,70.7,0,0,1,.9,8.1q0,2-4.8,3.4a22.6,22.6,0,0,1-6.1,1.1q-8.6,0-14.2-7.8T531,357.2q0-11.5,5.6-19.4t14.2-7.9a16.4,16.4,0,0,1,10.2,3.4,2,2,0,0,1,1,1.4q0,0.7-1.2,6.2t-1.4,6.4T558.7,348.5Z" transform="translate(-8 -23)"/><path class="cls-2" d="M604.9,381.6a1.4,1.4,0,0,1-1.1,1.6,43.5,43.5,0,0,1-5.7.2,33.1,33.1,0,0,1-6.1-.3q-1.2-.3-1.2-2.2t0.1-7.5q0.1-5,.1-7.5t-0.1-5.8q-0.1-3.9-.1-5.8,0-7.2-4.6-7.2a5.8,5.8,0,0,0-3.6,1.8,5.6,5.6,0,0,0-2.2,4v28.5q0,1.7-1.2,2a46.2,46.2,0,0,1-5.6.2,33.8,33.8,0,0,1-5.9-.3,1.5,1.5,0,0,1-1.2-1.7q0-4.1,0-12.4t0-12.4q0-13.1-1.5-20.6a5,5,0,0,1-.1-0.8,1.2,1.2,0,0,1,.6-1.2l6.6-1.2a61.5,61.5,0,0,1,7-1.6q0.4,0,.7,3.6t0.7,3.6,4.2-3.7q4.6-3.7,8.1-3.7a11.5,11.5,0,0,1,8.3,3.2q3.7,3.6,3.7,10.1v16.8q0,3.4,0,10.3T604.9,381.6Z" transform="translate(-8 -23)"/><path class="cls-2" d="M649,357.2q0,12-5.4,19.5a16.9,16.9,0,0,1-14.3,7.5q-8.6,0-14.1-7.4t-5.5-19q0-12.2,5.3-19.9a16.7,16.7,0,0,1,14.4-7.6q8.8,0,14.3,7.5T649,357.2Zm-12.8,0a14,14,0,0,0-1.9-7.4q-1.9-3.2-5-3.2t-5.1,3.3a15.2,15.2,0,0,0,0,14.6q2,3.3,5.1,3.3t5-3.3A14,14,0,0,0,636.2,357.2Z" transform="translate(-8 -23)"/><path class="cls-2" d="M668,351.4q0,14.4.1,22.1,0,1.2.1,4.2t0.1,4.2a1.2,1.2,0,0,1-1,1.3,31.6,31.6,0,0,1-6.3.4,25.1,25.1,0,0,1-6-.4,1.5,1.5,0,0,1-1-1.4v-2.3q0-4.7.1-14.1t0.1-14q0-22.1,0-20.2-0.1-11.7-1-20.1a7.1,7.1,0,0,1-.1-0.9,1,1,0,0,1,1-1.2h13.9a0.9,0.9,0,0,1,.9,1.1v0.9Q668,333.9,668,351.4Z" transform="translate(-8 -23)"/><path class="cls-2" d="M712.7,357.2q0,12-5.4,19.5a16.9,16.9,0,0,1-14.3,7.5q-8.6,0-14.1-7.4t-5.5-19q0-12.2,5.3-19.9a16.7,16.7,0,0,1,14.4-7.6q8.8,0,14.3,7.5T712.7,357.2Zm-12.8,0a14,14,0,0,0-1.9-7.4q-1.9-3.2-5-3.2t-5.1,3.3a15.2,15.2,0,0,0,0,14.6q2,3.3,5.1,3.3t5-3.3A14,14,0,0,0,699.9,357.2Z" transform="translate(-8 -23)"/><path class="cls-2" d="M756.3,369.4q0,15-4.7,21.6t-16.1,6.7a39.1,39.1,0,0,1-8.9-1.4q-7.2-1.8-7.2-4.2t1.7-10.3,0.9-1.5l0.4,0.2q6,4,11.1,4a9.8,9.8,0,0,0,5.6-1.9,6.7,6.7,0,0,0,3.4-5.7v-3.5a12.5,12.5,0,0,1-10.2,5.1q-7.3,0-12.1-7.1t-4.6-16.9q0-10.1,4.4-16.7t12-6.9q5.9,0,9,5.7a2.4,2.4,0,0,0,.9,1.2q0.4,0,.4-1.9,0-4.2.7-4.2l6.8,0.9,6.4,1a1.4,1.4,0,0,1,.7,1.4q0,3.6-.2,10.9t-0.2,10.9q0,2.2,0,6.5T756.3,369.4Zm-13.5-14.6a11.7,11.7,0,0,0-1.9-6.7,5.4,5.4,0,0,0-9.5.1,11.9,11.9,0,0,0-1.9,6.7,11.4,11.4,0,0,0,1.9,6.6,5.4,5.4,0,0,0,9.5-.1A11.8,11.8,0,0,0,742.8,354.8Z" transform="translate(-8 -23)"/><path class="cls-2" d="M762.1,326.7q-0.7.1-.7-1.1t0.1-1.3,0.1-1.4-0.1-2-0.1-2a1.3,1.3,0,0,1,.8-1.2,68.1,68.1,0,0,0,7.4-5.2l7.2-6.9,0.8-.5,0.7,0.5,2.9,3.6,3.2,2.7a1.6,1.6,0,0,1,.6,1.1,2,2,0,0,1-.5,1.1,35,35,0,0,1-10.3,8.3q-6.9,3.9-11.5,4.2h-0.4Zm15.5,32.3q0,3.7.1,11t0.1,11q0,2.1-1,2.1l-3-.2-3-.2-2.9.2-2.9.2q-1.1,0-1.1-2.7t0.1-10.7q0.1-7.1.1-10.7,0-8.2-1.2-25.3,0-.7,0-1.1a1,1,0,0,1,1.1-1.2,18.6,18.6,0,0,1,3.4.5,18.6,18.6,0,0,0,3.5.5,19.2,19.2,0,0,0,3.5-.5,19.2,19.2,0,0,1,3.5-.5,1,1,0,0,1,1.1,1.2q0,4.1-.7,13T777.6,358.9Z" transform="translate(-8 -23)"/><path class="cls-2" d="M824.4,356.8q0,4.1.4,12.1t0.4,12q0,2.1-1.4,2.3-4.8.5-11.1,0.5-0.7,0-1-3t-0.6-3.1l-0.8.9q-4.4,6-9.4,6-7.6,0-12.6-8.1t-4.7-18.1q0-12.2,4.9-19.6t13.9-7.7q6.1,0,9.7,5.8l0.3,0.3q0.4,0,.8-2.6t1.1-2.6a26.1,26.1,0,0,1,5.5,1.1,44.3,44.3,0,0,1,5.5,1.8,0.9,0.9,0,0,1,.6.8q0,0.2-.1,1.1A155.5,155.5,0,0,0,824.4,356.8Zm-12.6.3a12.4,12.4,0,0,0-2.1-7.4,6.5,6.5,0,0,0-10.9,0,12.5,12.5,0,0,0-2.1,7.4,12.3,12.3,0,0,0,2.2,7.3,6.3,6.3,0,0,0,10.7.1A12.4,12.4,0,0,0,811.8,357.1Z" transform="translate(-8 -23)"/><path class="cls-2" d="M855,340.5a2.9,2.9,0,0,1-.6,1.4,6.8,6.8,0,0,0-2.2-.4,5.7,5.7,0,0,0-3.9,1.4,5.5,5.5,0,0,0-1.9,4.5q0,1.8,2,4.7a51.9,51.9,0,0,1,3.7,5.7,19,19,0,0,1,2,8.6,22.7,22.7,0,0,1-.8,5.7,12.1,12.1,0,0,1-2.3,4.9,27.4,27.4,0,0,1-6.8,5.7,15.6,15.6,0,0,1-7.7,2.4q-0.8,0-3.5-5.7t-2.7-7a0.5,0.5,0,0,1,.4-0.6l5.5-1.4a5,5,0,0,0,3.4-4.9,10.3,10.3,0,0,0-2-5.4l-3.7-5.6a17,17,0,0,1-2-8,17.7,17.7,0,0,1,5.9-13.4q5.3-4.9,11.4-4.9,0.6,0,3.1,5.7T855,340.5Z" transform="translate(-8 -23)"/></svg>