<svg id="Pagina_inicia_Movil" data-name="Pagina inicia Movil" xmlns="http://www.w3.org/2000/svg" viewBox="0 0 62.2 62.2"><defs><style>.cls-1{fill:#0094e9;}.cls-2{fill:#fff;}</style></defs><title>area-sistemas</title><circle class="cls-1" cx="31.1" cy="31.1" r="31.1"/><path class="cls-2" d="M54.1,35.8V44a2.5,2.5,0,0,1-2.5,2.5H43.4A2.5,2.5,0,0,1,41,44V35.8a2.5,2.5,0,0,1,2.5-2.5h2.5V28.4H32.7v4.9h2.5a2.5,2.5,0,0,1,2.5,2.5V44a2.5,2.5,0,0,1-2.5,2.5H27A2.5,2.5,0,0,1,24.5,44V35.8A2.5,2.5,0,0,1,27,33.3h2.5V28.4H16.3v4.9h2.5a2.5,2.5,0,0,1,2.5,2.5V44a2.5,2.5,0,0,1-2.5,2.5H10.6A2.5,2.5,0,0,1,8.1,44V35.8a2.5,2.5,0,0,1,2.5-2.5H13V28.4a3.3,3.3,0,0,1,3.3-3.3H29.5V20.2H27a2.5,2.5,0,0,1-2.5-2.5V9.5A2.5,2.5,0,0,1,27,7h8.2a2.5,2.5,0,0,1,2.5,2.5v8.2a2.5,2.5,0,0,1-2.5,2.5H32.7v4.9H45.9a3.3,3.3,0,0,1,3.3,3.3v4.9h2.5A2.5,2.5,0,0,1,54.1,35.8Z"/></svg>