<svg id="Layer_2" data-name="Layer 2" xmlns="http://www.w3.org/2000/svg" viewBox="0 0 3906.9 2190.9"><defs><style>.cls-1{opacity:0.12;}.cls-2{fill:#050505;}.cls-3{fill:#fdfeff;}.cls-4{fill:#f9f9f9;}.cls-5{fill:#b5c8ca;}.cls-6{fill:#33414c;}.cls-7{fill:#f55f13;}.cls-8{fill:#3d4d5d;}.cls-9{fill:#020202;opacity:0.06;}.cls-10{fill:#c6c6c6;}.cls-11{fill:#f4f4f4;}.cls-12{fill:#ddd;}.cls-13{fill:#a5a4a4;}.cls-14{fill:#fafbfc;}.cls-15{fill:#eb5a49;}.cls-15,.cls-16,.cls-17,.cls-18{opacity:0.61;}.cls-16{fill:#5884a5;}.cls-17{fill:#415f79;}.cls-18{fill:#f96e64;}.cls-19{fill:#4ba5a5;}.cls-20{fill:#52677a;}.cls-21{fill:#fff;}.cls-22{fill:#51677c;}.cls-23{fill:#e4e4e4;}.cls-24{fill:#b3b2b3;}</style></defs><title>empresa2</title><g class="cls-1"><path class="cls-2" d="M4401.6,1582.6c-29.7-7.5-31.3,1.5-34.6-13.4s-23.1-14.9-41.2-14.9-24.7-1.5-39.6-13.4-46.2-13.4-56.1-16.4-5-28.3-24.7-52.2-61-28.3-87.5-41.8-18.1-65.6-56.1-61.2-41.3,17.9-75.9,1.5-57.7-26.9-75.9-14.9-41.3,34.3-52.8,40.3-31.4-4.5-42.9-3-24.8-10.5-33-20.9,14.8-62.7-6.6-62.7-49.5-8.9-49.5-16.4,44.5-52.2,31.4-59.7-39.6-3-62.7,25.4-44.6,26.9-56.1,16.4-37.9-71.6-16.5-105.9,49.8-54.5,76.2-53.1,37-5.9,63.4-7.4,51.8,9.7,58.4,18.7-6.6,23.9,9.9,41.8,26.4,10.4,28.1,17.9-13.2,14.9-19.8,14.9-61.1,13.4-39.6,22.4,59.4,1.5,67.7,13.4-26.4,37.3,23.1,38.8,82.5,7.5,110.5,8.9,47.9,3,51.1,8.9,23.1-22.4-23.1-22.4-82.5-23.9-107.3-28.4-41.3-19.4-42.9-37.3,1.7-31.3-8.2-46.2-34.6-50.7-11.5-65.6,69.3-43.3,80.9-62.7,11.5-23.9,37.9-38.8,57.8-34.3,72.6-47.7,39.6-34.3,44.5-23.9,28.1,13.4,56.1,4.5,62.7-31.3,33-31.3-47.9-7.5-39.6-17.9-19.8-14.9-28.1-13.4-8.3-14.9,19.8-19.4,5.4,22.7,28.5,21.2,37.5-22.7,54-25.7,23.1,10.4,1.6,23.9-28.1,8.9,0,14.9,36.3,19.4,52.8,6-3.3-17.9-5-35.8,11.8-53.5-6.3-65.5-26.7-24-26.7-36,3.3-37.3-14.9-25.4-33,19.4-39.6,13.4,3.3-17.9-11.6-26.8-16.5-22.4-34.6-20.9-36.3-11.9-46.2,7.5-19.8,35.8-23.1,41.8,11.6,26.9-1.6,37.3-49.5,25.4-54.4,35.8-24.7,37.3-29.7,19.4,16.5-44.7-13.2-52.2-52.8-1.5-57.8-17.9-18.1-31.3,11.5-44.8,59.4-37.3,87.5-40.3,8.3,17.9,31.4,16.4-3.3-11.9,24.7-16.4,23.1-4.5,14.8-13.4-3.3-10.4,18.2-19.4,5-14.9,26.4-22.4,26.4-14.9,38-14.9,9.9,4.5,3.3,17.9-11.6,22.4,8.2,13.4,29.7-14.9,14.8-1.5-24.7,13.4-46.2,16.4-14.8,6-4.9,16.4,34.6,11.9,42.9,17.9,18.1,26.9,37.9,16.4,4.9-11.9,31.3-22.4,64.4-16.4,61-29.8-29.7-20.9-33-37.3,36.3-25.4-14.8-32.8-21.4-13.4-46.2-13.4-70.9,0-87.5,7.4-26.4-4.5-34.7,7.5,1.6,28.3-6.6,28.3-23.1,11.9-29.7,0-21.5-23.9-1.7-28.3,23.1-1.5,26.4-14.9-28.1-11.9-9.9-14.9,26.4,1.5,51.1,1.5,80.8,8.9,89.1-4.5-13.2-13.4-37.9-14.9-67.6-8.9-85.8-1.5-41.3,19.4-49.5,31.3-8.3-3-24.8,0-44.5,19.4-29.7,28.3,14.8,19.4-1.7,19.4-21.4,14.9-33,14.9-42.9-1.5-28.1-9,31.3-7.5,29.7-25.4,16.5-23.9,16.5-29.8-39.6,13.4-70.9,4.5-44.6-22.4-75.9-20.9-72.6,38.8-52.8,41.8,34.7-3,38,6-3.3,16.4,8.2,20.9,33,16.4,5,10.4-14.8-16.4-57.8-17.9-69.3-13.4-113.8-3-38,19.4-67.7,10.4-101.5-42.6-151-33.7S3325.9,616,3311,625s-23-13.7-49.4-12.3-89.8-7.3-76.6,7.6,29.7,16.4,9.9,19.4-46.2,4.5-56.1,17.9-46.2,20.9-23.1,26.9,61,19.4,44.6,20.9-100.7,31.3-137,38.8-34.5,92.2-3.1,81.7c39.8-13.3,115.3-92.1,135.1-99.6s28-1.5,26.4,9,23.1-4.5,42.9-17.9,25.1-45.2,41.6-36.2,21.1,4.9,34.3,1.9,78.2,17.9,89.8,23.9,27.9,22.5,36.2,28.4,11.5,19.4,3.3,20.9-9.9,8.9-8.3,20.9,8.3,22.4-8.3,25.4-13.2,20.9-3.3,19.4,16.5-6,18.1-14.9,23.1-25.4,19.8-13.4-11.6,23.9-11.6,32.8-11.5,7.4-13.2,16.4,1.6,8.9,9.9,16.4,3.3,11.9,1.7,28.3-51.1,61.2-57.7,76.1-3.3,35.8-3.3,52.2-6.6,37.3,11.5,43.3,19.8,8.9,19.8,23.9,0,32.8,9.9,43.3,5,8.9,5,25.4,11.5,7.5,13.2,20.9-8.2,19.4,8.3,29.8,34.6,17.9,26.4,1.5-13.2-29.8-21.5-53.7-13.2-67.1-3.3-53.7,23.1,53.7,37.9,82,33,25.4,33,46.2-18.2,40.3,18.2,53.7,62.7,41.8,84.1,38.8,34.6-14.9,42.9-1.5,26.4,31.3,46.2,31.3,26.4,11.9,29.7,29.8,16.5,20.9,36.3,26.9,24.8,25.4,39.6,23.8,34.6-7.5,34.6,6,6.6,46.2-18.2,67.1-36.3,35.8-23.1,49.2,1.7,26.9-5,37.3,5,19.4,18.2,35.8,31.3,35.8,42.9,68.6,28,44.8,56.1,55.2,49.5,28.4,49.5,53.7-1.6,111.9-1.6,137.2,14.8,50.7,9.9,70.1,0,35.8,6.6,43.2,5,23.9,6.6,40.3,21.4,4.5,21.4,19.4-8.2,37.3,1.7,44.7-11.5,34.3,33,59.7,47.9,26.8,51.2,31.3,18.1-9,18.1-1.5-24.7,51.3,21.5,51.3,74.2-15.5,46.2-34.9-44.6-10.4-49.5-29.8-11.5-16.4-14.8-29.8,11.6-19.4,6.6-32.8-28.7-14.8-27.1-28.2,17.1-25.5,20.5-31.4,3.3-11.9-5-17.9-6.6-7.5,5-10.5,13.2,1.5,18.2-13.4,19.8-13.4,26.4-17.9,29.7-10.4,21.5-29.8-30.2-30.6-12.1-30.6,41.8,0.7,53.3-20.1,6.6-25.4,19.8-41.8,7.2-30.6,7.2-42.6,1-23.1,19.2-30.6,77.6-16.4,85.8-38.8,16.5-46.2,13.2-70.1-5-38.8,13.2-58.2,41.2-35.8,41.2-53.7S4431.3,1590.1,4401.6,1582.6Z" transform="translate(-2996.4 -105.4)"/><path class="cls-2" d="M4710.3,573c18.1-17.9,13.2-26.9,37.9-35.8s18.1-20.9,14.8-38.8,10.1-10.7,20-16.6,14.7-10.2,37.8-11.7,1.7-8.9,1.7-17.9-16.5-7.4-39.6-4.5-19.8,0-36.3-6-113.8-6-138.6-6-69.3,4.5-92.4,6-21.5,0-66-4.5-161.7-1.5-204.6,3-67.4-6.8-95.4,9.6-41,9.2-72.4,12.2-53-4.4-67.9-4.4-13.2-7.4-39.6,1.5-18.2,14.9-28.1,3-23.1,0-69.3,10.4,22.9,46.7,37.7,51.2c0,0,31.4-1.5,49.5-6s26.4,6,37.9,3,14.8-13.4,80.9-26.9,112.2-3,138.6,7.5,26.4,4.5,49.5-9,62.7-23.9,103.9-29.8,14.9,7.5-11.5,16.4-49.5,6-44.5,20.9,56.1,10.4,70.9,10.4,16.5,20.9,18.1,32.8-1.6,17.9,1.6,29.8,11.6,10.4-3.3,22.4-23.1,10.4-23.1,31.3,9.9,43.3,33,58.2,36.3,16.4,49.5-7.4,44.5-38.8,61.1-46.3,39.6,0,61-17.9,49.5-10.4,80.8-19.4S4692.1,590.9,4710.3,573Z" transform="translate(-2996.4 -105.4)"/><path class="cls-2" d="M4739.4,657.7c-49.5,6-95.7-9-87.4,14.9s11.9,69.2,38.3,61.7c45.3-12.8,86.1-28.6,74.5-48S4788.9,651.7,4739.4,657.7Z" transform="translate(-2996.4 -105.4)"/><path class="cls-2" d="M5058.3,543.1c1.8,0.5,3.5.6,5,1.1,16.5,6,28.1-3,29.7-14.9,18.1-23.9,11.5,19.4,31.3,11.9s47.8-25.4,70.9-35.8-28.1-6-69.3-11.9-99,4.5-115.5,14.9S5034.2,537,5058.3,543.1Z" transform="translate(-2996.4 -105.4)"/><path class="cls-2" d="M5302.4,481.4s-8.3,10.4,11.5,10.4,61-11.9,94-11.9,23.1-10.4,16.5-10.4-24.8-16.4-51.1-14.9-24.8,11.9-41.3,11.9-13.2-4.5-47.8-3S5284.2,478.4,5302.4,481.4Z" transform="translate(-2996.4 -105.4)"/><path class="cls-2" d="M6854.8,566.8c-3.3-17.9-1.3-49.9-57-47-98.9,5-123.9-2.6-142.1-2.6s-8.9-11.5,4.3-11.5,12.8-13.1-.4-19.1-31.6-1.4-36.5,12S6642,516,6604,516s-89.4,50.2-134,42.7-58.1-34.3-96-35.8-69.7,33-109.3,33-26.4-13.4-42.9-29.8-24.7-11.9-74.3-11.9-23.1,17.9-13.2,20.9,36.3,10.4,54.5,25.4-33,8.9-54.5,10.4-19.8-10.4-44.5-23.9-85.8-6-120.5-7.5-36.3,0-49.4-22.4-41.3-10.4-77.5-10.4-56.1-16.4-74.3-26.9-46.2-12-85.8-17.9-18.1,22.4-3.2,23.9c0,0,16.5,5.9,33,7.4s51.2,3,69.3,22.4-56.1,12-89.1,28.4-59.4,9-82.5,17.9,11.5,23.9,19.7,43.3,0,19.4-14.9,23.9,5-20.9-1.6-28.3-31.3-46.2-51.1-58.2-16.5,10.5-13.2,26.9,8.3,16.4,13.2,28.3-21.4,0-34.7-8.9-56.1,12-75.9,3,6.6-5.9,6.6-14.9-23.1-1.5-29.7-14.9,41.3-29.8,71-34.3,26.4-4.5,26.4-17.9-52.8-8.9-97.3,10.4-33,32.9-39.6,46.2,14.8,14.9,24.7,22.4-11.5,10.4-31.3,16.4-24.8,0-47.9,7.5-9.9,16.4-29.7,23.9-18.1,7.4-34.6,13.4,3.3-22.4,26.4-25.3,16.5-14.9,9.9-19.4-49.5-16.4-95.7-28.4-120.5,4.5-145.2,14.9-23.1,17.9-26.4,32.9-59.4,37.3-87.4,50.7-3.4,31.3,4.9,43.3,26.4,5.9,49.5,0,19.8,19.4,23.1,28.3,16.5,10.5,38,1.5,16.5-29.8,16.5-41.8-5-17.9,9.9-34.3,28.1-26.8,41.2-34.3,11.6,5.9-8.3,20.9-6.6,19.4,3.3,37.3,29.7,0,54.5-3-21.5,19.4-39.6,19.4,0,17.9-11.5,17.9-13.2,7.5-14.8,25.3-8.3,13.4-21.4,17.9-33,5.9-54.5,1.5-19.8-22.4-34.6-34.3-18.2,6-18.2,13.4-14.8,23.9-21.4,23.9-26.4,17.9-38,32.8-19.7,6-23.1,0,8.2-14.9,1.6-29.8-33-26.8-24.8-61.1-9.9-16.4-36.3-13.4-34.7,13.4-36.3,22.4-16.5,26.8-33,43.3-4.9,29.8,3.3,47.7,29.7-5.9,36.3-20.9,14.8-22.4,24.7-14.9-14.8,20.9-18.2,38.8,6.6,16.4,29.7,10.4,11.5-10.4,29.7-3-16.5,13.4-38,14.9-13.2,14.9,5,26.8,9.9,29.8-1.7,31.3-33,4.5-66,10.4-3.3,29.8-9.9,43.2-8.3,43.3,6.6,44.8,14.9,23.9,6.6,31.3-9.9,14.9-29.7,28.4-5,25.3-11.5,43.2-23.1,7.5-42.9,26.9-28,34.3-42.9,56.7-16.5,23.9,1.7,50.7,0,34.3-14.9,58.2,4.9,25.4,11.5,46.3,19.8,16.4,24.8,37.3,11.5,26.8,34.6,41.8,46.2,35.8,57.8,31.3,29.7-16.4,67.6-14.9,24.8-14.9,64.4-20.9,6,8.5,10.9,19,38.6,16.9,68.3,18.3,4.9,34.3,3.3,55.2,0,20.9,14.9,38.8,34.7,58.2,39.6,79.1-4.9,44.7-18.2,64.1-8.3,64.1,19.8,97,11.5,31.3,11.5,65.6,19.8,28.3,34.7,47.7,8.3,55.2,21.4,74.6,36.3,1.5,62.7-7.5,38-5.9,69.3-26.9,56.1-62.6,56.1-74.6,9.9-16.4,26.4-22.3,13.2-44.8,11.5-55.2,3.3-19.4,9.9-25.4,47.8-41.8,62.7-56.7,1.6-35.8-1.6-59.6-13.2-32.8-13.2-61.2-9.9-25.4,44.6-71.6,105.6-119.3,110.5-135.7,3.3-29.8,0-41.8-74.3,12-90.8,12-58.6-31.8-61.9-43.7-15.6-24.9-37.1-42.8-4.9-43.3-21.4-62.6-24.8-47.7-28.1-64.1,24.8,11.9,46.2,34.3,49.6,64.2,57.8,79.1,14.8,37.3,16.5,55.2,14.8,20.9,34.7,19.4,89.1-34.3,113.8-44.8,54.5-41.7,66-71.6-24.7-25.4-41.2-40.3-16.5,0-36.3,4.5-36.3-19.4-67.6-46.3-11.5-17.9-4.9-23.9,37.9,13.4,56.1,32.9,21.4,11.9,42.9,11.9,26.4,9,54.5,16.4,42.9-3,66.8-.7,20.6,12.6,37.1,36.4,9.9,16.4,46.2,19.4,9.9,0,9.9,20.9,3.3,28.4,24.8,53.7,29.6,73.1,36.2,97,19.8,0,41.2,0-6.1,22.7,18.2,40.3c28.1,20.3,26.5-8.8,26.5-17.7s-8.3-30.1-18.2-37.5-23.1-6-11.6-17.9-13.4-19.6-13.4-36,6.5-38.6,14.8-46,48.2-28.3,66.3-47.7,33-22.3,57.8-20.9,4.9,4.5,19.8,22.4,18.2,43.3,34.6,61.2,18.2-3,31.3-9,5,17.9,14.9,35.8,3.3,41.8,3.3,58.2,21.5,32.8,34.7,47.7,8.3,22.4,0,28.3-24.8-14.9-37.9-26.8-33-4.5-19.8,9,21.4,37.3,36.3,62.6,46.2,55.2,67.7,82,90.7,38.8,117.1,38.8,79.2,20.9,105.6,23.9,46.2,0,64.3-8.9,9.9-19.4,8.3-23.9-14.9,4.5-33,7.5-23.1,3-46.2,4.5-8.3-7.5-33-8.9-49.5-6-77.5-14.9-42.9-16.4-62.7-22.4-1.7-16.4-3.3-41.8-19.8-14.9-34.7-23.9-9.9-28.3-3.3-22.3,8.3,13.4,8.3-17.9-31.3-52.2-51.1-79.1-16.6-41.8-14.9-55.2,36.3,12,54.5,31.4,18.1,19.4,28.1,14.9,39.6-19.4,46.2-43.3-52.8-71.6-61-94,11.5-8.9,21.4-23.9,21.5,6,14.9,16.4,1.6,16.4,8.3,26.9,6.6,0,13.2-13.4,1.6-17.9,13.2-26.8,56.1-20.9,67.6-31.4,19.8-22.4,34.6-59.6-1.6-35.8-8.3-49.2-26.4-35.8-37.9-49.3-1.6-10.4,6.6-14.9,1.6-14.9-18.2-20.9-16.5,6-34.6,3-8.3-14.9,11.5-35.8,9.9,4.5,23.1,13.4,16.5-7.5,26.4-3,29.7,13.4,44.6,31.3,14.7,43.8,29.5,42.4,15-12.5,21.6-26-15.1-26.9-26.7-37.3-26.2-8.9-16.3-17.9,1.6-22.4,6.6-32.8,23.1-4.5,41.2-12,19.8-32.8,19.8-59.6-14.9-38.8-23.1-47.7,9.9-4.5,24.8,5.9,38,67.1,42.9,89.5,1.6,22.4,21.4,41.8,13.2,16.4,6.6,38.8-23.1,28.4-47.8,34.3-16.5,10.5-31.3,32.8,8.3,23.9,21.4,29.9,14.8-18.7,31.3-29.2,39.6-15.6,67.6-15.6-8.2-34.3-9.9-52.2-3.3-29.8-9.9-43.2,6.6-13.4,26.4-22.4,18.2-26.9,6.6-26.9-21.4,7.5-47.8,6-19.8-20.9-26.4-28.4-14.9-23.8-16.5-37.3-24.8-31.3-41.2-44.8-26.4-22.3-26.4-16.4-9.9-1.5-33-3-28,3-47.8,1.5,1.6-31.3,9.9-52.2,31.4-8.9,49.5-8.9,81.9-71.2,108.3-65.3,14.9-14.9,19.8-31.3,16.5-7.5,31.3-1.5,19.8,7.5,19.8-6,13.2-16.4,24.7-4.5c5.8,6,4.7,15.8,2.2,24.1a108,108,0,0,0-3.8,48.3c2.4,15.6,7,31.7,15.7,36,18.1,9,10.8,58.6,32.2,72s15-22.5,15-47.9-10.2-68.3-25-92.2-5-13.4,23-13.4,29.7-8.9,36.3-16.4,11.5-8.9,36.3-8.9,9.9-9-1.6-20.9-34.6-8.9-26.4-16.4,52.8,4.5,74.3,12S6858.1,584.7,6854.8,566.8ZM5315.9,1063.1c-9.9,17.9-14.8,29.8-29.6,25.4s-64.4-3-89.1-10.5-61-20.9-67.6-4.5,16.5,29.8-24.8,16.4-85.8-29.8-90.7-41.8,16.5-44.7-13.2-44.7-71-1.5-84.2,7.4-64.4,25.4-80.9,20.9c-15-4-37.9-9-11.5-19.4s57.8-4.5,61.1-19.4-23.1-17.9,3.3-31.3,16.5-25.4,34.7-32.9,42.9-6,56.1-10.4-4.9-9,21.5,4.5,42.9,38.8,56.1,40.3,21.5,10.4,13.2,16.4-21.5,10.5-26.4,10.5-8.3,11.9-3.3,13.4,16.5,20.9,24.7,14.9-2.9-15.7,11.9-20.2,32.7-9.7,26.1-18.7-13.2-19.4,0-13.4,28.7,4.9,13.9-8.5-23.8-15.4-41.9-27.3-37.9-17.9-37.9-26.8-11.6-25.3,6.6-19.4,80.9,37.3,80.9,49.2,16.5,32.8,1.6,43.2,14.9,13.4,21.4,19.4,3.4,22.4,21.5,19.4,31.4-1.5,21.4-17.9-26.4-23.8-9.9-29.8,19.8-13.4,24.7,11.9-1.7,34.3,37.9,35.8,66-8.9,70.9,1.5S5325.8,1045.3,5315.9,1063.1Zm64.4-111.9c-26.4-1.5-65.5.1-87,.1s-43,5.2-43,5.2c-18.1-3-53.2-3.8-31.8-29.1s8.3-58.1,34.7-49.2,27.5,40.7,44,19.8,35.1-42.2,40.1-25.8-23.1,29.8,11.5,43.2S5406.7,952.8,5380.3,951.3Zm162.5,63.3c-24.7,0-58.1-12.6-58.1-24.6s-2.7-27.1-2.7-27.1c-8.4-33.5-34-36.8-34-56.2s19.9-34.5,46.3-34.5,59.7,0.3,39.9,21.2-58,19-31.6,51.9S5567.5,1014.6,5542.7,1014.6Z" transform="translate(-2996.4 -105.4)"/><path class="cls-2" d="M6443,1223.5c13,3.3,16.7-45.3-7.4-38.6S6427.8,1219.6,6443,1223.5Z" transform="translate(-2996.4 -105.4)"/><path class="cls-2" d="M6472.9,1369.2c11.1,6.7,13,18.5,11.1,36.9s-20.4,16.8,11.1,28.5,68.6,31.8,59.3-5-1.9-41.9-35.2-70.4-35.2-10.1-38.9-33.5-13-67.1-26-50.3c-11.4,14.8-20.4,20.1-7.4,45.3S6461.8,1362.4,6472.9,1369.2Z" transform="translate(-2996.4 -105.4)"/><path class="cls-2" d="M6402.4,1427.8c-11.2,13-33.4,41.9-48.2,52s-40.8-3.3-38.9,20.1,3.7,33.5,5.5,50.3,5.6,26.8,33.4,26.8,40.8,8.4,50.1,5,7.4-18.5,18.5-38.6,29.7-15.1,22.3-30.2-7.4-11.7-7.4-26.8,9.3-5,3.7-30.2S6415.4,1412.8,6402.4,1427.8Z" transform="translate(-2996.4 -105.4)"/><path class="cls-2" d="M6793.7,1583.7c-24.1-23.5-64.9-40.2-81.6-38.5s-31.5,25.1-40.8,16.7-37.1-48.6-51.9-36.9,1.8,25.2-16.7,25.2-24.1,20.1-27.8-6.7-18.5-40.2-22.3-20.1-5.5,33.5-14.8,18.5-14.8-5-14.8-20.1-37.1-31.9-51.9-15.1c-9.3,10.5-13,11.7-16.7,35.2s-13,60.4,7.4,50.3,24.1-1.7,33.4-13.4,20.4-18.4,37.1-11.7,9.3,6.7,38.9,3.4,44.5-3.4,64.9,8.4,61.2,5,61.2,16.8-42.6,20.1,0,31.9,51.9,38.6,64.9,25.2,31.5-31.9,44.5-18.4,63,50.3,53.8,30.2-7.4-38.6,22.3-60.3,22.2-31.9,9.3-31.9-13,15.1-42.6,18.4S6817.8,1607.2,6793.7,1583.7Z" transform="translate(-2996.4 -105.4)"/><path class="cls-2" d="M6806.6,1800c-16.7-38.6-16.7-68.7-26-85.5s-1.9-36.9-29.7-36.9c-11.3,0-11.1,6.7-20.4,28.5s1.8,62-22.3,57-35.2-15.1-40.8-36.9,7.4-41.9-11.1-41.9-70.4-11.7-83.4,6.7,3.7,25.2-24.1,25.2-38.9,0-53.8,16.7-35.2,63.7-115,67.1-38.9,41.9-38.9,83.8-42.6,67.1-24.1,82.1-5.6,35.2,33.3,23.5,74.2-15.1,135.4-23.5,89-11.7,90.8,15.1-7.4,8.4,16.7,13.4-1.8,40.2,26,43.6,4.7,27.2,28.8,27.2,17.7,17.7-2.7,17.7-21,47.5,8.6,34.1,52.4-25.5,52.4-45.6-3.7-21.8,31.5-46.9,116.8-85.5,111.3-134.1S6823.3,1838.5,6806.6,1800Z" transform="translate(-2996.4 -105.4)"/></g><path class="cls-3" d="M5685.8,2080.8H5339.8v-9.1h345.4c4-.5,47.3-7,47.3-51.6V2020c0.1-1.6.9-38.5-35.6-46.9H5569.5c-0.5,0-46-4.3-46.1-55.3-0.3-3-2-28.2,14.5-46.5,10.9-12.1,27.2-18.3,48.4-18.3h373.9a55.1,55.1,0,0,0,28.2-7.5c15.5-9.2,23.2-23.9,22.9-43.6V1147.4h9.1v654.4c0.4,28.8-14.6,43.9-27.3,51.5a64.2,64.2,0,0,1-32.9,8.8H5586.3c-18.5,0-32.5,5.1-41.6,15.3-14.5,16.1-12.3,39.5-12.2,39.8v0.5c0,18.1,6.4,31.4,18.9,39.5a45.9,45.9,0,0,0,18.7,6.9h128.3c43.3,9.5,43.3,53.1,43.2,56,0,53.8-55,60.5-55.6,60.6h-0.2Z" transform="translate(-2996.4 -105.4)"/><path class="cls-4" d="M4436,1856.7h-11.4V1469.8a84.8,84.8,0,0,1,11-31.1c8.6-14.4,25.6-31.6,57.3-31.6,3.5,0,52.5,0,63.2,48.8v143.4c0.4,3.4,5.3,41.4,51.3,41.4h0.6c0.2,0,26.4,2.4,44-13.6,11.2-10.1,16.8-25.6,16.8-46V1163.4a72.3,72.3,0,0,1,9.9-37c8.5-14.3,25.5-31.4,58.1-30.9h177.7v11.4H4737.1c-21.8-.3-38.1,8.2-48.3,25.3a60.9,60.9,0,0,0-8.3,31.2v417.8c0,23.8-7,42.2-20.7,54.5-20.6,18.5-48.9,16.7-52.4,16.4-57.5-.2-62.4-51.6-62.4-52.1V1457.7c-9.2-40.3-50-39.3-51.7-39.3H4493c-21.2,0-37.2,8.8-47.6,26a74.2,74.2,0,0,0-9.4,26.2v386Z" transform="translate(-2996.4 -105.4)"/><path class="cls-5" d="M5758.1,1414.9H5434s-41.2,160.3-57.3,176.3h438.6C5799.3,1575.3,5758.1,1414.9,5758.1,1414.9Z" transform="translate(-2996.4 -105.4)"/><path class="cls-4" d="M5872,1597.6c0,9.1-3.6,16.5-8,16.5H5328.1c-4.4,0-8-7.4-8-16.5h0c0-9.1,3.6-16.5,8-16.5H5864c4.4,0,8,7.4,8,16.5h0Z" transform="translate(-2996.4 -105.4)"/><path class="cls-4" d="M4812.3,1318.8v94c0,25.1,31.8,46.6,70.2,46.6H6309.3c38.4,0,72.3-21.5,72.3-46.6v-94H4812.3Z" transform="translate(-2996.4 -105.4)"/><path class="cls-6" d="M6381.6,534.7c0-45.3-33.8-81-72.3-81H4882.5c-38.4,0-70.2,35.6-70.2,81v784.1H6381.6V534.7Z" transform="translate(-2996.4 -105.4)"/><path class="cls-7" d="M6353,563.6c0-41.6-31.3-73.6-68.4-73.6H4907.1c-37.1,0-68.1,32-68.1,73.6v718.6H6353V563.6Z" transform="translate(-2996.4 -105.4)"/><circle class="cls-8" cx="2602.6" cy="1293.7" r="37"/><path class="cls-9" d="M6381.6,1141.8L5231.5,454.4H6307.3a74.3,74.3,0,0,1,74.3,74.3v613.1Z" transform="translate(-2996.4 -105.4)"/><path class="cls-10" d="M1310.4,1653.6H2426.8a24.7,24.7,0,0,1,24.7,24.7v477.9a0,0,0,0,1,0,0H1285.7a0,0,0,0,1,0,0V1678.3A24.7,24.7,0,0,1,1310.4,1653.6Z"/><path class="cls-11" d="M1314,1703.5h49a8.6,8.6,0,0,1,8.6,8.6v24.4a0,0,0,0,1,0,0h-66.3a0,0,0,0,1,0,0v-24.4A8.6,8.6,0,0,1,1314,1703.5Z"/><path class="cls-11" d="M1395.3,1703.5h49a8.6,8.6,0,0,1,8.6,8.6v24.4a0,0,0,0,1,0,0h-66.3a0,0,0,0,1,0,0v-24.4A8.6,8.6,0,0,1,1395.3,1703.5Z"/><path class="cls-11" d="M1476.7,1703.5h49a8.6,8.6,0,0,1,8.6,8.6v24.4a0,0,0,0,1,0,0h-66.3a0,0,0,0,1,0,0v-24.4A8.6,8.6,0,0,1,1476.7,1703.5Z"/><path class="cls-11" d="M1558.1,1703.5h49a8.6,8.6,0,0,1,8.6,8.6v24.4a0,0,0,0,1,0,0h-66.3a0,0,0,0,1,0,0v-24.4A8.6,8.6,0,0,1,1558.1,1703.5Z"/><path class="cls-11" d="M1639.5,1703.5h49a8.6,8.6,0,0,1,8.6,8.6v24.4a0,0,0,0,1,0,0h-66.3a0,0,0,0,1,0,0v-24.4A8.6,8.6,0,0,1,1639.5,1703.5Z"/><path class="cls-11" d="M1720.9,1703.5h49a8.6,8.6,0,0,1,8.6,8.6v24.4a0,0,0,0,1,0,0h-66.3a0,0,0,0,1,0,0v-24.4A8.6,8.6,0,0,1,1720.9,1703.5Z"/><path class="cls-11" d="M1802.2,1703.5h49a8.6,8.6,0,0,1,8.6,8.6v24.4a0,0,0,0,1,0,0h-66.3a0,0,0,0,1,0,0v-24.4A8.6,8.6,0,0,1,1802.2,1703.5Z"/><path class="cls-11" d="M1883.6,1703.5h49a8.6,8.6,0,0,1,8.6,8.6v24.4a0,0,0,0,1,0,0H1875a0,0,0,0,1,0,0v-24.4A8.6,8.6,0,0,1,1883.6,1703.5Z"/><path class="cls-11" d="M1965,1703.5h49a8.6,8.6,0,0,1,8.6,8.6v24.4a0,0,0,0,1,0,0h-66.3a0,0,0,0,1,0,0v-24.4A8.6,8.6,0,0,1,1965,1703.5Z"/><path class="cls-11" d="M2046.4,1703.5h49a8.6,8.6,0,0,1,8.6,8.6v24.4a0,0,0,0,1,0,0h-66.3a0,0,0,0,1,0,0v-24.4A8.6,8.6,0,0,1,2046.4,1703.5Z"/><path class="cls-11" d="M2127.8,1703.5h49a8.6,8.6,0,0,1,8.6,8.6v24.4a0,0,0,0,1,0,0h-66.3a0,0,0,0,1,0,0v-24.4A8.6,8.6,0,0,1,2127.8,1703.5Z"/><path class="cls-11" d="M2209.1,1703.5h49a8.6,8.6,0,0,1,8.6,8.6v24.4a0,0,0,0,1,0,0h-66.3a0,0,0,0,1,0,0v-24.4A8.6,8.6,0,0,1,2209.1,1703.5Z"/><path class="cls-11" d="M2290.5,1703.5h49a8.6,8.6,0,0,1,8.6,8.6v24.4a0,0,0,0,1,0,0h-66.3a0,0,0,0,1,0,0v-24.4A8.6,8.6,0,0,1,2290.5,1703.5Z"/><path class="cls-11" d="M2371.9,1703.5h49a8.6,8.6,0,0,1,8.6,8.6v24.4a0,0,0,0,1,0,0h-66.3a0,0,0,0,1,0,0v-24.4A8.6,8.6,0,0,1,2371.9,1703.5Z"/><rect class="cls-11" x="1305.3" y="1757.1" width="66.3" height="59.76"/><rect class="cls-11" x="1427.3" y="1833.1" width="66.3" height="59.76"/><rect class="cls-11" x="1446.8" y="1909.3" width="66.3" height="59.76"/><rect class="cls-11" x="1460.4" y="1988.5" width="66.3" height="59.76"/><rect class="cls-11" x="1540.1" y="1988.5" width="66.3" height="59.76"/><rect class="cls-11" x="1307.7" y="2069" width="66.3" height="59.76"/><rect class="cls-11" x="1386.7" y="2069" width="66.3" height="59.76"/><rect class="cls-11" x="1468.1" y="2069" width="66.3" height="59.76"/><rect class="cls-11" x="1549.4" y="2069" width="66.3" height="59.76"/><rect class="cls-11" x="1619.8" y="1988.5" width="66.3" height="59.76"/><rect class="cls-11" x="1699.5" y="1988.5" width="66.3" height="59.76"/><rect class="cls-11" x="1634.1" y="2069" width="391.3" height="59.76"/><rect class="cls-11" x="1779.2" y="1988.5" width="66.3" height="59.76"/><rect class="cls-11" x="1858.9" y="1988.5" width="66.3" height="59.76"/><rect class="cls-11" x="1938.5" y="1988.5" width="66.3" height="59.76"/><rect class="cls-11" x="2018.2" y="1988.5" width="66.3" height="59.76"/><rect class="cls-11" x="2043.7" y="2069" width="83.1" height="59.76"/><rect class="cls-11" x="2097.9" y="1988.5" width="66.3" height="59.76"/><rect class="cls-11" x="2142.8" y="2069" width="66.3" height="59.76"/><path class="cls-11" d="M2226.3,2097.3h51.8a5.1,5.1,0,0,1,5.1,5.1v26.4a0,0,0,0,1,0,0h-62a0,0,0,0,1,0,0v-26.4A5.1,5.1,0,0,1,2226.3,2097.3Z"/><path class="cls-11" d="M2297.8,2069h55.1a5.6,5.6,0,0,1,5.6,5.6v19.4a0,0,0,0,1,0,0h-66.3a0,0,0,0,1,0,0v-19.4A5.6,5.6,0,0,1,2297.8,2069Z"/><rect class="cls-11" x="2292.2" y="2102.4" width="66.3" height="26.45"/><path class="cls-11" d="M2373.5,2097.3h50a6.1,6.1,0,0,1,6.1,6.1v25.5a0,0,0,0,1,0,0h-62.1a0,0,0,0,1,0,0v-25.5A6.1,6.1,0,0,1,2373.5,2097.3Z"/><rect class="cls-11" x="2177.6" y="1988.5" width="66.3" height="59.76"/><rect class="cls-11" x="2257.3" y="1988.5" width="172.3" height="59.76"/><rect class="cls-11" x="1307.3" y="1988.5" width="135.5" height="59.76"/><rect class="cls-11" x="1526.9" y="1909.3" width="66.3" height="59.76"/><rect class="cls-11" x="1607" y="1909.3" width="66.3" height="59.76"/><rect class="cls-11" x="1687.1" y="1909.3" width="66.3" height="59.76"/><rect class="cls-11" x="1767.2" y="1909.3" width="66.3" height="59.76"/><rect class="cls-11" x="1847.3" y="1909.3" width="66.3" height="59.76"/><rect class="cls-11" x="1927.4" y="1909.3" width="66.3" height="59.76"/><rect class="cls-11" x="2007.5" y="1909.3" width="66.3" height="59.76"/><rect class="cls-11" x="2087.6" y="1909.3" width="66.3" height="59.76"/><rect class="cls-11" x="2167.7" y="1909.3" width="66.3" height="59.76"/><rect class="cls-11" x="2247.9" y="1909.3" width="66.3" height="59.76"/><rect class="cls-11" x="2327.2" y="1909.3" width="102.4" height="59.76"/><rect class="cls-11" x="1507" y="1833.1" width="66.3" height="59.76"/><rect class="cls-11" x="1586.6" y="1833.1" width="66.3" height="59.76"/><rect class="cls-11" x="1666.3" y="1833.1" width="66.3" height="59.76"/><rect class="cls-11" x="1746" y="1833.1" width="66.3" height="59.76"/><rect class="cls-11" x="1825.7" y="1833.1" width="66.3" height="59.76"/><rect class="cls-11" x="1905.4" y="1833.1" width="66.3" height="59.76"/><rect class="cls-11" x="1985.1" y="1833.1" width="66.3" height="59.76"/><rect class="cls-11" x="2064.8" y="1833.1" width="66.3" height="59.76"/><rect class="cls-11" x="2144.4" y="1833.1" width="66.3" height="59.76"/><rect class="cls-11" x="2224.1" y="1833.1" width="66.3" height="59.76"/><rect class="cls-11" x="2306.8" y="1833.1" width="122.8" height="59.76"/><rect class="cls-11" x="1386.7" y="1757.1" width="66.3" height="59.76"/><rect class="cls-11" x="1468.1" y="1757.1" width="66.3" height="59.76"/><rect class="cls-11" x="1549.4" y="1757.1" width="66.3" height="59.76"/><rect class="cls-11" x="1630.8" y="1757.1" width="66.3" height="59.76"/><rect class="cls-11" x="1712.2" y="1757.1" width="66.3" height="59.76"/><rect class="cls-11" x="1793.6" y="1757.1" width="66.3" height="59.76"/><rect class="cls-11" x="1875" y="1757.1" width="66.3" height="59.76"/><rect class="cls-11" x="1956.4" y="1757.1" width="66.3" height="59.76"/><rect class="cls-11" x="2037.7" y="1757.1" width="66.3" height="59.76"/><rect class="cls-11" x="2119.1" y="1757.1" width="66.3" height="59.76"/><rect class="cls-11" x="2200.5" y="1757.1" width="66.3" height="59.76"/><rect class="cls-11" x="2281.9" y="1757.1" width="147.7" height="59.76"/><rect class="cls-11" x="1305.3" y="1833.8" width="105.8" height="59.15"/><rect class="cls-11" x="1305.3" y="1909.3" width="127.4" height="59.41"/><rect class="cls-12" x="1305.3" y="1733" width="66.3" height="3.56"/><rect class="cls-13" x="1305.3" y="1813.3" width="66.3" height="3.56"/><rect class="cls-13" x="1305.3" y="1889.3" width="105.8" height="3.6"/><rect class="cls-13" x="1305.3" y="1965" width="127.4" height="3.61"/><rect class="cls-13" x="1307.3" y="2044.7" width="135.5" height="3.61"/><rect class="cls-13" x="1386.7" y="1813.3" width="66.3" height="3.56"/><rect class="cls-13" x="1427.3" y="1889.4" width="66.3" height="3.56"/><rect class="cls-13" x="1446.8" y="1965.4" width="66.3" height="3.56"/><rect class="cls-13" x="1460.4" y="2044.7" width="66.3" height="3.56"/><rect class="cls-13" x="1307.7" y="2125.3" width="66.3" height="3.56"/><rect class="cls-13" x="1386.7" y="2125.3" width="66.3" height="3.56"/><rect class="cls-13" x="1468.1" y="2125.3" width="66.3" height="3.56"/><rect class="cls-13" x="1549.4" y="2125.3" width="66.3" height="3.56"/><rect class="cls-13" x="1540.1" y="2044.7" width="66.3" height="3.56"/><rect class="cls-13" x="1619.8" y="2044.7" width="66.3" height="3.56"/><rect class="cls-13" x="1699.5" y="2044.7" width="66.3" height="3.56"/><rect class="cls-13" x="1779.2" y="2044.7" width="66.3" height="3.56"/><rect class="cls-13" x="1858.9" y="2044.7" width="66.3" height="3.56"/><rect class="cls-13" x="1938.5" y="2044.7" width="66.3" height="3.56"/><rect class="cls-13" x="2018.2" y="2044.7" width="66.3" height="3.56"/><rect class="cls-13" x="2142.8" y="2125.3" width="66.3" height="3.56"/><rect class="cls-13" x="2221.2" y="2125.3" width="62" height="3.56"/><rect class="cls-13" x="2367.5" y="2125.3" width="62" height="3.56"/><rect class="cls-13" x="2292.2" y="2125.3" width="66.3" height="3.56"/><rect class="cls-13" x="2043.7" y="2125.3" width="83.1" height="3.56"/><rect class="cls-13" x="2097.9" y="2044.7" width="66.3" height="3.56"/><rect class="cls-13" x="2177.6" y="2044.7" width="66.3" height="3.56"/><rect class="cls-13" x="2257.3" y="2044.7" width="172.3" height="3.56"/><rect class="cls-13" x="1526.9" y="1965.4" width="66.3" height="3.56"/><rect class="cls-13" x="1607" y="1965.4" width="66.3" height="3.56"/><rect class="cls-13" x="1687.1" y="1965.4" width="66.3" height="3.56"/><rect class="cls-13" x="1767.2" y="1965.4" width="66.3" height="3.56"/><rect class="cls-13" x="1847.3" y="1965.4" width="66.3" height="3.56"/><rect class="cls-13" x="1927.4" y="1965.4" width="66.3" height="3.56"/><rect class="cls-13" x="2007.5" y="1965.4" width="66.3" height="3.56"/><rect class="cls-13" x="2087.6" y="1965.4" width="66.3" height="3.56"/><rect class="cls-13" x="2167.7" y="1965.4" width="66.3" height="3.56"/><rect class="cls-13" x="2247.9" y="1965.4" width="66.3" height="3.56"/><rect class="cls-13" x="2327.2" y="1965.5" width="102.4" height="3.56"/><rect class="cls-13" x="1507" y="1889.4" width="66.3" height="3.56"/><rect class="cls-13" x="1586.6" y="1889.4" width="66.3" height="3.56"/><rect class="cls-13" x="1666.3" y="1889.4" width="66.3" height="3.56"/><rect class="cls-13" x="1746" y="1889.4" width="66.3" height="3.56"/><rect class="cls-13" x="1825.7" y="1889.4" width="66.3" height="3.56"/><rect class="cls-13" x="1905.4" y="1889.4" width="66.3" height="3.56"/><rect class="cls-13" x="1985.1" y="1889.4" width="66.3" height="3.56"/><rect class="cls-13" x="2064.8" y="1889.4" width="66.3" height="3.56"/><rect class="cls-13" x="2144.4" y="1889.4" width="66.3" height="3.56"/><rect class="cls-13" x="2224.1" y="1889.4" width="66.3" height="3.56"/><rect class="cls-13" x="2306.8" y="1889.4" width="122.8" height="3.56"/><rect class="cls-13" x="1468.1" y="1813.3" width="66.3" height="3.56"/><rect class="cls-13" x="1549.4" y="1813.3" width="66.3" height="3.56"/><rect class="cls-13" x="1630.8" y="1813.3" width="66.3" height="3.56"/><rect class="cls-13" x="1712.2" y="1813.3" width="66.3" height="3.56"/><rect class="cls-13" x="1793.6" y="1813.3" width="66.3" height="3.56"/><rect class="cls-13" x="1875" y="1813.3" width="66.3" height="3.56"/><rect class="cls-13" x="1956.4" y="1813.3" width="66.3" height="3.56"/><rect class="cls-13" x="2037.7" y="1813.3" width="66.3" height="3.56"/><rect class="cls-13" x="2119.1" y="1813.3" width="66.3" height="3.56"/><rect class="cls-13" x="2200.5" y="1813.3" width="66.3" height="3.56"/><rect class="cls-13" x="2281.9" y="1813.3" width="147.7" height="3.56"/><rect class="cls-12" x="1386.7" y="1733" width="66.3" height="3.56"/><rect class="cls-12" x="1468.1" y="1733" width="66.3" height="3.56"/><rect class="cls-12" x="1549.4" y="1733" width="66.3" height="3.56"/><rect class="cls-12" x="1630.8" y="1733" width="66.3" height="3.56"/><rect class="cls-12" x="1712.2" y="1733" width="66.3" height="3.56"/><rect class="cls-12" x="1793.6" y="1733" width="66.3" height="3.56"/><rect class="cls-12" x="1875" y="1733" width="66.3" height="3.56"/><rect class="cls-12" x="1956.4" y="1733" width="66.3" height="3.56"/><rect class="cls-12" x="2037.7" y="1733" width="66.3" height="3.56"/><rect class="cls-12" x="2119.1" y="1733" width="66.3" height="3.56"/><rect class="cls-12" x="2200.5" y="1733" width="66.3" height="3.56"/><rect class="cls-12" x="2281.9" y="1733" width="66.3" height="3.56"/><rect class="cls-12" x="2363.3" y="1733" width="66.3" height="3.56"/><rect class="cls-13" x="1285.7" y="2156.1" width="1165.8" height="7.9"/><rect class="cls-14" x="2546.2" width="777.3" height="992.18" rx="54.8" ry="54.8"/><rect class="cls-15" x="2590.2" y="100.9" width="340.9" height="11.4"/><rect class="cls-15" x="2945.4" y="100.9" width="322.5" height="11.4"/><rect class="cls-16" x="2588.5" y="125.2" width="125.9" height="77.06"/><rect class="cls-15" x="2728.4" y="125.2" width="125.9" height="77.06"/><rect class="cls-17" x="2868.2" y="125.2" width="125.9" height="77.06"/><rect class="cls-15" x="2591.7" y="620.4" width="125.9" height="77.06"/><rect class="cls-16" x="3005.4" y="125.2" width="125.9" height="77.06"/><rect class="cls-15" x="3145.3" y="125.2" width="125.9" height="77.06"/><circle class="cls-15" cx="2594" cy="47.2" r="14.1"/><circle class="cls-16" cx="2632.1" cy="47.2" r="14.1"/><circle class="cls-17" cx="2670.1" cy="47.2" r="14.1"/><rect class="cls-16" x="2588.9" y="230.2" width="170.9" height="7.05"/><rect class="cls-16" x="2588.9" y="247" width="409.3" height="6.33"/><rect class="cls-16" x="2588.9" y="261.5" width="409.3" height="6.33"/><rect class="cls-16" x="2588.9" y="276" width="409.3" height="6.33"/><rect class="cls-16" x="2754.4" y="620.4" width="170.9" height="7.05"/><rect class="cls-16" x="2754.4" y="637.3" width="539.3" height="6.33"/><rect class="cls-16" x="2754.4" y="651.7" width="539.3" height="6.33"/><rect class="cls-16" x="2754.4" y="666.2" width="539.3" height="6.33"/><rect class="cls-16" x="2754.4" y="685.4" width="539.3" height="6.33"/><rect class="cls-16" x="2754.4" y="699.8" width="539.3" height="6.33"/><rect class="cls-16" x="3011.8" y="247.6" width="177.9" height="7.05"/><rect class="cls-16" x="3011.8" y="267.3" width="281.9" height="6.33"/><rect class="cls-16" x="3011.8" y="281.8" width="281.9" height="6.33"/><rect class="cls-16" x="3011.8" y="297" width="281.9" height="6.33"/><rect class="cls-17" x="3011.8" y="316.6" width="281.9" height="6.33"/><rect class="cls-17" x="3011.8" y="333.6" width="281.9" height="6.33"/><rect class="cls-17" x="3011.8" y="350.6" width="281.9" height="6.33"/><rect class="cls-17" x="3011.8" y="367.6" width="281.9" height="6.33"/><rect class="cls-17" x="3011.8" y="384.6" width="281.9" height="6.33"/><rect class="cls-17" x="2593.6" y="824.6" width="700.1" height="6.33"/><rect class="cls-17" x="2593.6" y="841.6" width="700.1" height="6.33"/><rect class="cls-17" x="2593.6" y="858.6" width="700.1" height="6.33"/><rect class="cls-17" x="2593.6" y="875.6" width="700.1" height="6.33"/><rect class="cls-17" x="2593.6" y="892.6" width="700.1" height="6.33"/><rect class="cls-15" x="2588.9" y="297" width="409.3" height="6.33"/><rect class="cls-18" x="2588.9" y="310.3" width="409.3" height="6.33"/><rect class="cls-16" x="2589.9" y="415.8" width="409.3" height="6.33"/><rect class="cls-16" x="2589.9" y="437.3" width="409.3" height="6.33"/><rect class="cls-16" x="2589.9" y="458.7" width="703.8" height="6.33"/><rect class="cls-17" x="2589.9" y="473.8" width="703.7" height="6.33"/><rect class="cls-17" x="2589.9" y="488.5" width="703.7" height="6.33"/><rect class="cls-17" x="2589.9" y="504.1" width="703.7" height="6.33"/><rect class="cls-18" x="2589.9" y="327.4" width="409.3" height="6.33"/><rect class="cls-18" x="2590.8" y="342.5" width="407.4" height="6.33"/><rect class="cls-18" x="2590.8" y="356.9" width="407.4" height="6.33"/><rect class="cls-15" x="2591.7" y="724.8" width="409.3" height="6.33"/><rect class="cls-18" x="2591.7" y="738.2" width="409.3" height="6.33"/><rect class="cls-18" x="2592.7" y="755.2" width="409.3" height="6.33"/><rect class="cls-18" x="2593.6" y="770.4" width="407.4" height="6.33"/><rect class="cls-18" x="2593.6" y="784.7" width="700.1" height="6.33"/><rect class="cls-15" x="2590.8" y="371.8" width="127.8" height="30.93"/><rect class="cls-15" x="2740.5" y="371.8" width="127.8" height="30.93"/><rect class="cls-16" x="2884" y="371.8" width="114.2" height="30.93"/><rect class="cls-16" x="2590.8" y="531.8" width="127.8" height="49.41"/><rect class="cls-17" x="2743.8" y="532" width="127.8" height="49.41"/><rect class="cls-17" x="2895.8" y="532" width="127.8" height="49.41"/><rect class="cls-17" x="3017.5" y="724.1" width="127.8" height="49.41"/><rect class="cls-17" x="3165.9" y="724.1" width="127.8" height="49.41"/><rect class="cls-17" x="3047.7" y="532" width="127.8" height="49.41"/><rect class="cls-17" x="3199.7" y="532" width="94" height="49.41"/><rect class="cls-15" x="3011.8" y="404.3" width="63.9" height="49.41"/><rect class="cls-15" x="3094" y="404.3" width="63.9" height="49.41"/><rect class="cls-15" x="3176.3" y="404.3" width="63.9" height="49.41"/><path class="cls-16" d="M6264.3,166.7H5717.4c-5.7,0-10.3-5.6-10.3-12.5h0c0-6.9,4.6-12.5,10.3-12.5h546.9c5.7,0,10.3,5.6,10.3,12.5h0C6274.6,161.1,6270,166.7,6264.3,166.7Z" transform="translate(-2996.4 -105.4)"/><rect class="cls-6" x="5253.6" y="817.5" width="45.1" height="58.35" transform="translate(1433 6017.4) rotate(-90)"/><path class="cls-19" d="M5299.5,845.6c0,109.1,89,197.6,198.9,197.6s198.9-88.5,198.9-197.6-89-197.6-198.9-197.6S5299.5,736.5,5299.5,845.6Zm364.3,0c0,90.7-74,164.3-165.4,164.3S5333,936.4,5333,845.6s74-164.3,165.4-164.3S5663.8,754.9,5663.8,845.6Z" transform="translate(-2996.4 -105.4)"/><path class="cls-20" d="M4938.7,845.6h0a36,36,0,0,0,36,36h280.6V809.7H4974.7A36,36,0,0,0,4938.7,845.6Z" transform="translate(-2996.4 -105.4)"/><path class="cls-21" d="M5620.8,957.1a165.8,165.8,0,1,1-11.6-234.2,165.8,165.8,0,0,1,11.6,234.2" transform="translate(-2996.4 -105.4)"/><path class="cls-20" d="M5447.2,903.1c0.3-1.5,1.9-7.7.7-8.7s-3.3-3.6-7.2-3.5a52.2,52.2,0,0,1-8.2,0c2.6-5.2,1.7-9.6,4.8-14.7s-7.7-2.2-9-1.8-1.8,1.8-2.1,3.9-2.4,3.1-2.1,4.3a10.8,10.8,0,0,0-3.4,0c-1.7.2-3.4,0.3-4.5-.6s-3.4.8-4.8-1.8-0.7-4.2-1.7-5.7c-2.1-3.4-3-10.2-.7-13.6s-1.3-6.1,1.9-8.5c1.4-1.1,3.1-5.4,3-7.6,2.7-.2,7.8,2.7,10.1,2.9,0.7,1.5,4.2,3.2,4.5.8,0.8,0.7,1.6,1.9,2.9,1.1a1.7,1.7,0,0,0-1.3-1.6,2.9,2.9,0,0,0,.3-2.4c1.7-1,3.4.5,4.5,0.5a4.9,4.9,0,0,1,3.5-.1c0.9,0.2,3-1.1,3.9-1.5-0.3,2.1.7,3.5,1.9,2.7s2.5,0.7,3.9,2.2-0.6,6.6,3.5,8.9c-0.3,1.8,2.4,6.5,3.3,6.4,7.2-.9-2.4-17.2-1.2-21.5a8,8,0,0,1,4.5-5.6c2.1-1.2-.2-6.1,2-6.8s5.7,0.4,7.8-.5,2-1.2.5-2a20.9,20.9,0,0,1,3.2-2.1c-0.1-1.7-2.7-4.4-2.4-5.6s1.2-.5,1.1-0.2,2.1-2.5,2.3-2.7c1.3-2.2-2-3.5-1.5-5.3,1.1,0.2,4.1,1.2,4.8-.4s-1.3-9.8-2.2-9.7c2.8-3.1,9.6,5.4,12.2,2.9,2.1,0.2,3.2.4,3.2-1.9s-2.3,0-2.9-1.3,2.1-3.3,4.5-4.2,1.1-1.8,1.6-2.7,2.4-1,3.8-1.6c3.7-1.5,1.1-1.1,2.3-1.6s6.2-.5,5.8-1.1c0.5,1.1-4.3,2.4-3.9,4.6s4.3-.8,6.4-1.3c1.8-3.7,6.4-1.8,10.3-2.6,0.3-1.1-1-.6-0.8-1.6a3.9,3.9,0,0,0,3.9-1.3c0.6-.8.3-1.6-1.5-1.4,0-.9-1.8-8.2-4.4-4.9-1.3,1.6,1,5,.9,6.8a9.1,9.1,0,0,0-3.4-.2,12.9,12.9,0,0,1-2.4,0c-0.8-1.2-1.2-1.1-2.5-1.6s-2.1-3.3-2.6-3.1a12.8,12.8,0,0,0,1.3-2.4,24.4,24.4,0,0,0-4-.8c1.9,0.1,7.5-1.1,4.7-3.6s-5,.3-7.2,1a23.1,23.1,0,0,0-6.1,3.2c-0.6.4-3,.2-4.1,0.5,0-1.4,3.9-4.1,5.1-4.7s3.2-.3,4.4-2.5,1.3-2.4,3-2.1,5.5-1.4,7.9-1.2c4.1,0.3,7.3,2,10.9.9,1.8-.5,2.8-2.2,4-3.5l4.8-.3c2.2-.1,4-2.1,3.3-3.7s0.2-6.6-3.9-4.5c-0.7-.2-0.5-2.6-3.2-2.1a8.7,8.7,0,0,0,2.1-1.3c-0.8-1.5-7.9-2.1-9.6-1.4-0.4-.9.9-2.7-1-4.2s-4-.7-3.7-2.6c1.8,1.8,4.1-1.2.3-2.4-0.1-.8,2.7-0.2-0.1-2-0.6-.4-2.8-1.8-2.4-2.5s-5.6-7.4-7.3-1c-0.2.9-7.4,3.4-7.9,2.2s-1.4-.9-2.3-0.6-1.7-.3-2.8-0.9,1.8-.7,1.2-3.5-0.8-1.6.5-3.6-7.2-.3-6.4-3c-2.1-1.2-4.3-3.4-6.8-2.5s-3.6,2.3-5.8,1.7-3.7-2.4-5-.9-1.1,2.5.6,3.1a21.9,21.9,0,0,0-2.1,2.9,2.4,2.4,0,0,0,1.9.3,2.8,2.8,0,0,0,.5,2.4c-0.4.6-.5,1.8-1.2,2.1-0.5,2.5-4.1,2.4-.5,4.3s7.2,4.5,5.6,7.8-8.6,4.2-11.5,4.7c-0.3,2.5,1.3,2.4,1.4,4.9s0.8,2.8.7,4.1c-0.2,3-1.4,1.6-2.9,3s-2.7-1.4-4.1-2.1-2.7-2.6-2.5-4.7,0.9-5.7-1.4-6.1c-4.1-.8-9.1.5-12.7-2.1-1.8-1.3-3-3.6-5.5-4.1s-2.9,1.2-4,1.6-2.1-.3-2.7.5c0.8-1.2-.3-6-3-5.9s-3-3.2-2.4-4.5,5.5-3.1,5.7-4.5,5-4.4,3.4-4.2c4.9-1.7,4-1.8-.5-2.9a4.8,4.8,0,0,1,3.2-1.3c2.2,0.1,4.5,1.3,3.4-1.1,3.1,1,6.7-1.3,7.7-4.3-0.7-.3-7.3-0.3-6.9-1.6,2.7,0.9,5.4,1.7,7.8,0s3.4-2.1,1-2.9a21.2,21.2,0,0,1,7.4-.5,2.3,2.3,0,0,0-2.4-1.6c1.2-1,2.3.3,3.4,0.5a5.1,5.1,0,0,0,4.8-1.9c3-3.4-3.6-1.9-2.5-4.8a3.2,3.2,0,0,1,2.2-.1c0.7,0.3,1.5.5,1.6-.8s-1.5-1.4-3-1.7-10.2,1.5-5.3,2.5a6.1,6.1,0,0,1-2.4,1.1,11.7,11.7,0,0,1-2.2,3.2c-1.8,1.9-3.4,2.5-4.9,0,0.3-.5,3.5-4.7-0.4-3.3-1.5.6-2.5,2.2-3.8,3.1,0.7-1-.9-2.3.5-2.9-0.7-.7-1.6-0.4-2.5-0.1a4.2,4.2,0,0,1-1.5.3c-0.2-1.5,1.7-.8,2.1-1.9s-2.5-.3-2.2-2.2-3.5-.5-4.1-0.2-2.8,2.6-4.6,3.7a1.1,1.1,0,0,0,1.1.3c-0.2.7-2.4,2,.1,2.2a11.2,11.2,0,0,0,3-.3,13.4,13.4,0,0,1,2.5-.3c0,0.5-3.5,1.7-3.7,1.9s0.6,0.6,1.2.4a1.6,1.6,0,0,1,.9-0.1c-0.8,1.5-3.3,2-4.5,2.8s-0.1,1.3-1.1,2.7-0.8-1.5-.5-2.4c-1.4-.4-5.4-0.3-5,1.9-1.5.7-7.8,3.7-9.3,2.9-3.3-1.8-7.6,2.9-9.6,5.2h0c-4.3-.2-6.6,3.6-10.6,4.3l2.4-2.1c-1.6-1.2-8.7,4.9-9.8,6.1-5,5.6-1.6-1-6.9-1.6-0.7.7,1.1,1.2,0.8,2.1s-3.4,1.3-4.2,1.6a21.9,21.9,0,0,0-4.7,2l-1.1,1.4-0.2.2a164.8,164.8,0,0,0-18,28.2c2.2,0,4.5.1,5,.5-0.9,2.5,5.7,1.8,5.5,3.3,0.7-.3-0.4,3.1-0.4,3a21.6,21.6,0,0,0-.9,3.4c1.3-.5.3-2.6,1.6-3.2a29.1,29.1,0,0,1-.2,4.6c0.4,2-1.6,7.6-.9,8.5s2.5,3.1,2,3.8-0.2,5.2-.4,6.8-0.9,4.4-1.1,6.7-1.4,7.3-.9,10.9,2.1,8.4,3.3,12.7,2.3,1.1,3.5,3.6,2.2,7.2,3.7,10.5c0.6,1.3,4.7,6.9,1.3,6.4-0.2,3.5,5,3.6,5.3,6.9s3.5,4.9,4.5,8.5c2.9,0.1-.3-4-0.3-4.8-1.7-.1-2.7-4.9-2.9-6.9s-2.5-4.4-3.4-5.9-3-5.1-2.7-8.4c3.5,0.9,4.2,4.1,5.4,7.6,0.5,1.5,1.4,4.3,2.3,5.1s2.1,2.6,2.4,4.8c3.9,2.2,6.3,8.2,8.2,12,1.1,2.2-.6,3.5.7,5.6s3.5,2.8,4.4,4.9c3.9,1.1,7.5,3.9,10.9,5.8s3.8,2.5,6.1,2.9,3.1-1.2,4.8-1.2c3.3,0,6.4,5.5,9,7.3,1.1,0,10,3.7,10.1,2.4s4.6,6.5,5.8,7.1-1.1,1.7.7,3l0.9,0.6,5.5-2.2a5.8,5.8,0,0,1-1.4-4.6" transform="translate(-2996.4 -105.4)"/><path class="cls-20" d="M5574.5,958.6c-0.8-3-5.9-.2-7.9-1.7s-3.7-3.4-6-3.2-5-.5-7.9-1-2.7,2.1-4.5,2.1c0.4-2.7-2.6-3.8-5.9-3.2-1-1.5-3.1-1.2-4.9-.2a5.5,5.5,0,0,0,.5-1.6c-1.4-1.2-2.9.2-4.6,0s-2.9,2.8-5.5,2.9c1.1-3.1,4.4-3.9,6-6.5s-2.2-2.9-2.6-4.1c-1.5-4-1.2-3.5-4.6-5.8a16.7,16.7,0,0,0-7.9-2.7c-2.5-.2-2.7,1-5,0.1s-4.6-1.6-6.6-1.4c0.9-4.7-4.7-5.6-7.4-5.3a9.1,9.1,0,0,1,2.1-2.1,3.8,3.8,0,0,0-2.1-1.3c1.2-.3.7-2.4,1.1-3.2-2.3-.4-3.4,3.2-4.8,1.6,0.4-.5,1.7,0,1.6-1.1-2-1.2-5.7-.6-7.5.7s-4.7-1.4-7.2-1.1-3,.8-4.1-1a3.6,3.6,0,0,0-3.7-1.4c-0.7-.5-0.9-3.1-2.3-2.2s-0.9,1.9.5,1.9c-1.1,1.1-3.2.5-4.2,1.6s-1.3-1.7-.2-2c4.3-1.1-1.5-2.4-2.3-3.8a5.1,5.1,0,0,0-2.4-2.1c-3.4-1.5-8.3.2-11.5,0.5-1-1.4-2.6-2.8-3.8-4.4l-5.5,2.2c0.8,0.5,1.7.8,1.3-.2,1,2.4,3.2.7,3.2,3.7,0.4,0.9,2.9,1.4,3.5,1.3a4.2,4.2,0,0,1,1.7.3,11.1,11.1,0,0,1,2.7,1.6c1.4,1,1.3.8,3.5,0.7a11.7,11.7,0,0,0-1.1-2.6c2.3,0,2.3-1.3,4.8-.8-0.1,1,1.6,3.3,1.1,4-2.1.6-4.6-.1-6.1,1.7s-0.6,3.6-1.6,3.7a3.3,3.3,0,0,0-2.6,2.9,2.6,2.6,0,0,0-1.6-1.1c-1,.8,1.4,1.4.5,2.1a2.2,2.2,0,0,0-1.6,1.3c-0.1,1.5,1.7,2.7,1.9,4.2s0.9,5.4.2,6.7-4,2.7-2.8,2.9c-1.8.1-.4,1.9-2.4,2s-1.9.3-1.4,1.9-3.6,5.7-.9,6.7a7.7,7.7,0,0,0,2.6.1c0,2.4-2.7,2-3.7,3.6s3.2,3.4.8,3.4c0.7,1.3,2.3,1.6,3.4,2.1a19.1,19.1,0,0,0,2.5,3.4c1.9,2.1,3.9,4.2,4.9,6.9,2.7,2,3.6,5.2,5.9,7.2a25.2,25.2,0,0,0,7.2,4,51.1,51.1,0,0,1,7.8,3.9c0.4,1.3,1.9,5.7.8,6.9s-0.7,8.7-.2,8.7c-0.3,1.9-2.1-1-.4,2.1a1.2,1.2,0,0,1,.3,1.3c0,0.2-1.5,2.8-2.8,2.1a1.9,1.9,0,0,0,1,1.1,166.7,166.7,0,0,0,35.9,1c-1-.4-1.1-1.3-2.7-1.1,4.3-.7,8.1,1.4,12.2-0.7,0.9-.5,2.4-2.3,3.6-3h-0.2c2.4,0.1,7.9-4.3,8.1-6.2,0.5-4.8,7.7-5.5,9.8-8.8,5.1-.6,7.6,1.1,11.1-1.9s3.7-5.1,5.6-7.8-2-5.9-.9-8,6.2-1,7.3-3.1C5570,968.3,5575.9,963.6,5574.5,958.6Z" transform="translate(-2996.4 -105.4)"/><path class="cls-20" d="M5383.1,731c2.5,0.3,2.3,1.3,4,2.9,0.3-.6,6-7.1,6.6-6.4a4.3,4.3,0,0,0-1.3,1.3,0.7,0.7,0,0,1,.8,0,5.1,5.1,0,0,0-1.9,2.1c1.7,0,4.4-1.2,5.4-1.7a34,34,0,0,0,6.8-4.5c1.7,0.3,3.4-2.2,5.5-2.3a9.3,9.3,0,0,0,6.7-3.3c-0.9-.9-2.1,1.1-2.6.5,1.2-1.1,5.5-1.4,5-3.2s-3.6,1.1-5.3,0c1.2-1,.6-2.2.5-3.4-3.3-.2-4,2.3-5.3,4.5-1,0-.1-1.3-0.5-1.3s-2.6,1.9-4,2.9-6.3,3.1-8.3,2.8-2.6-1.6-5.2-1.3h-1.3l-3.3,3a2.2,2.2,0,0,1-.5,1.2c-1.4,2.1-1.5,1.2-1.6,3.7C5383.1,729.8,5380.5,730.6,5383.1,731Z" transform="translate(-2996.4 -105.4)"/><path class="cls-20" d="M5375.3,734.1l-1.8,2.1a14.3,14.3,0,0,0,3.3-1.6A1.5,1.5,0,0,0,5375.3,734.1Z" transform="translate(-2996.4 -105.4)"/><path class="cls-20" d="M5655.4,799.5a8.9,8.9,0,0,0-.8-4.5A3.8,3.8,0,0,0,5655.4,799.5Z" transform="translate(-2996.4 -105.4)"/><path class="cls-20" d="M5628,753.4c-0.3-.4-0.1-2.1.5-1.3-2,2.1,4.7,5.3,4.5,7.9a1.9,1.9,0,0,0-1.9,0l1.1,2.1-1.3.3c0.2,2.2,2.8,1.8,3.7,3.4a6.9,6.9,0,0,1-1.9-.8c-1.3,4.9-1.6,1.1,2.1,3.7a1.1,1.1,0,0,1,.3-1.1c2,0.8,3.1,1.7,5.6,2.1a17.4,17.4,0,0,0-.3-3.7c-0.9-2.1-3.2-4.6-4.6-6.6s-3.2-4.3-4.7-6.4c-0.3-4.1-1.8-2.6-3.5-5.6a1.1,1.1,0,0,0,1.1-.8l-3.4-2.1a3.4,3.4,0,0,0,.5,1.9l-0.5-.3C5625.5,747.6,5626.6,753.2,5628,753.4Z" transform="translate(-2996.4 -105.4)"/><path class="cls-20" d="M5662.4,823.1c-0.9-1.9-2-3.4-2.9-3.6s1.4-9.6-2.6-9.9c-1.1,1-3.6-.2-4.9-0.5a5.2,5.2,0,0,0-5.4,1.6c0.2,0.7-6.5,1.9-8-1.1s2.7-1.7,3.4-1.7c3,0.2,2.6-2.4,3.9-4.3s0-1.6-.7-3a22,22,0,0,0,1.3-3.7c4.2,0.5.6-4.2,2.4-5.3a10.7,10.7,0,0,0,2.9,2.1,5.1,5.1,0,0,1,1.6-2.1c2.1,2.8,2.7,6.3,4.3,9.3h0.1a165.3,165.3,0,0,0-13.7-34.1,3.4,3.4,0,0,0-1,3c-2-1-1.7,1.6-2.7,2.2s-1.3.1-1.7-.4a1.3,1.3,0,0,0-1.2-.7,9.8,9.8,0,0,1,.8,2.9c-1.8-1.4-2.2-1.2-4.5-1.6-0.3,2.4,4.7,6.2,6.2,8.3s2.3,6.4,1.3,8.1c-2.5-1.8-10.1-4.7-12.2-2.6-0.3,1.3,1.5,6.2,1.8,7.7a17.7,17.7,0,0,1-.7,6.3c3.7,2.1-1,6.5,5.3,5.3,2.7,3.2,2.6,7.4-.7,9.7s-1.6,3.5-3.3,5.7,1.2,4.8-1.2,7.6-4.1,2.8-4.8,4.9-4,4.4-4.1,8.1c-2.9,1.4-2.2,3.9-4.2,5.8s-0.2,3.9-.5,5.8a1.1,1.1,0,0,1,1.1.3c0.6,1.1.9,6,.8,7.2s-0.6,6.5-1.8,7.9,0.4,3.6-.3,6.2,0.5,4.9,3.1,4.4c-1.5,3.1,4.5,5.1,3.7,9.3,0.9,2.5,5.2,5.2,7.4,7.2s4,0.7,5.8-.7,3.3-2.5,5.6-1.1,8-5.5,9.4-6.3c1,1,.7,3,1.1,4.2a5.1,5.1,0,0,0,2.9-1.9c0.9,5.1-2.8,9.2-2.4,14,0,0.2,0,.3,0,0.5a166.3,166.3,0,0,0,9.2-81.3" transform="translate(-2996.4 -105.4)"/><path class="cls-20" d="M5621.6,759c2.7,4.4,10.5,3.7,6.4-2.1,2.1-.2-2.7-5.6-4-5.3a4.2,4.2,0,0,0-1.3,1.3,1.1,1.1,0,0,1,1.1.8c-1,0-1.6-.7-2.7-0.8s3.8,6.6.5,6.1" transform="translate(-2996.4 -105.4)"/><path class="cls-20" d="M5510.1,680.2a28.2,28.2,0,0,1-4.4.1c-2.7,0-5.4-.1-7.7,1.1a6.7,6.7,0,0,1,3.4.8h-1.2c-1.1-.1-2.3-0.2-2.8.6a2.4,2.4,0,0,0,1.3.1c0.3-.1,2.4,1.4,2.1,2.3,6.9,0.9,11.6-2.7,17.5,1.8,0,0.3-2.7,2.2-2.3,2.5,2-.4,2.5-0.7,4.1-0.4l-1.1.5a4.8,4.8,0,0,1,2.7,1.1c-0.1,0-2.7,0-2.4.3a1.3,1.3,0,0,1,1.3.3,1.9,1.9,0,0,0-1.3.8,0.7,0.7,0,0,1,.8.3H5519c-1.3.6,3.4,0.9,5.2,0.8a0.5,0.5,0,0,1,.7-0.3c0.1,0.1-.2.2-0.7,0.3v0.3c1.8,0.6,4.8.4,5.8,1.8-0.6-.1-0.5.1-0.3,0.3s0.4,0.6-1.7,0-4.8-1.7-6.5-.3a1.6,1.6,0,0,1,1.1.8c-1.7-.3-2.7,3.6-2.6,3.7s7.9,0.5,9-1.8l-2.4-1.1,3.7,0.8a0.7,0.7,0,0,0-.8.3c0.1,0.6.6,0.5,1,.4s0.6-.1.6,0.1c0.9,3.3-4.4,2.4-6.1,3.5,1.4,0.3-.9,1.2-1.1,1.9s-0.3,1.3.7,1.1l-0.8.5c1,1.1,3.1.2,4,1-4.7,0-1.7,2.7,2,3.3,0,2-1.1,2.6.9,3-1.7-.1-1.3.9-0.6,1.8a13.5,13.5,0,0,0,1.8,1.8c0.4,1.3,0,.7,1.3,1.6s2.4,0.3,2.7.8a11.8,11.8,0,0,0-.1,5c2.1,0.7,3.5-1.5,4.5,0a3.2,3.2,0,0,0,1.4.9h0c-1.8,1.7,3.4,1.7,4.1,1.8a1.1,1.1,0,0,0,1.2,1.2q1.5,0-.1,1a17.2,17.2,0,0,0,5.6-.5,0.7,0.7,0,0,0-.3,1.1c1.7,0.4,1.3-1.3,1.6-1.3s2.9,0.2,2.9.5a2.6,2.6,0,0,0-1.6,1.3l4,0.8c-1.6,1.9.7,1,2.4,1.8a5.7,5.7,0,0,1,2.6-.3,6,6,0,0,0,2.4-.2c0.5-1.6-.1-1.3-0.4-1.1h0l1.2-1.3c-0.5-1.3-1.7-.6-0.8-3.3s-1-2.3-2.1-4.7a4.1,4.1,0,0,0,1.6-.3,1.2,1.2,0,0,0-.8-1.3c1.4-.2,2.7.2,3.4-2.1a13.2,13.2,0,0,1-2.7-1.9,2.4,2.4,0,0,0,1.9-.3,14.9,14.9,0,0,0-1.9-1.8,2.9,2.9,0,0,0,1.9-.3,2,2,0,0,0-1.1-1.6c3.5,1.2,5.8,3.1,9.1,3a48.4,48.4,0,0,1-.3-5.1,3.8,3.8,0,0,0,2.4.8c0.5-1.7-.9-3.4.8-4.8,1.2,0.4,2.9,1.2,4.1.5a16.6,16.6,0,0,0,3.9-.9,165.1,165.1,0,0,0-76.5-25.1" transform="translate(-2996.4 -105.4)"/><path class="cls-20" d="M5659.9,808.9c-0.1-.1-0.2-0.2-0.5.1a5.9,5.9,0,0,0,1.2,3.1Z" transform="translate(-2996.4 -105.4)"/><path class="cls-20" d="M5656.7,805.3c-0.2-2.9-.5-4.2-2.1-5.6,0.5,1.9.4,4.2,1.6,5.8Q5656.2,804.9,5656.7,805.3Z" transform="translate(-2996.4 -105.4)"/><path class="cls-20" d="M5463.8,685.5a18.1,18.1,0,0,1,4.8-.8c-1.2.3-3,.5-4.8,0.8l-3,.7a5.9,5.9,0,0,0-2.1,1.1c0.3-.2.2,0.6-0.1,0.8s1.8-.2.8-0.7c0.9-.3,5.1-0.7,5.8,0-1.3,0-9.3.6-9.5,2.7,1.5-.1,5.5-1.2,6.6-0.3-1.4.5-14.1,1.3-13.5,4.8,2.2,0,5.1-1.4,7.3-1.7a60.5,60.5,0,0,0,7.7-1.8c2.8-.8,8.8.6,10.7-2.6-2.8-.1-6,1.3-8.7.6,2.2-.6,4.5-0.3,6.7-0.9s1.8-1.3,3.4-1.5,5.6-1.2,6.3-2.7c-1.5-.2-3.3.7-4.8,0.3,2.7-.9,5.8-0.1,8.5-1.3a1.8,1.8,0,0,1-1.6-.3c1.7,0.1,11.9-2.2,16.9-2.7h-0.9q-7.1-.1-14.3.4c-4.3.6-8.6,1.4-12.9,2.4s-10,1.3-13.5,3.7h1.2Z" transform="translate(-2996.4 -105.4)"/><path class="cls-20" d="M5458,686.8a1.9,1.9,0,0,0,.8-0.5C5458.4,686.2,5457.3,686.7,5458,686.8Z" transform="translate(-2996.4 -105.4)"/><path class="cls-20" d="M5442.4,693.1h0.6a0.3,0.3,0,0,0,.3-0.2,33.3,33.3,0,0,1,7.8-1.5c1.7-1.4,4.6-2.3,6.5-3.2a2.1,2.1,0,0,1-1.5-.5l0.3-.3-1,.3a23.3,23.3,0,0,0-2.9.8h0.1l-0.2.2,0.4-.2c0.3,0-1,.4-0.5.4s0.9-.4.5-0.4c-5,1.5-12.7,3.8-12.3,5.5Z" transform="translate(-2996.4 -105.4)"/><path class="cls-20" d="M5602.5,720.4c-0.1-1-2.7-3-3.6-3.5s-0.6-.2-0.7,0-0.4.5-1.9-.3-5.1-1.9-5.2-1.6a0.7,0.7,0,0,1,.3,1.1c0-.5-4.2-3.5-5.6-3.7s1,0.9.5,1.1-2.5-1.1-2.7.3,4.4,0.2,5,2.4a2.8,2.8,0,0,1-1.2-.2c-0.8-.2-1.7-0.4-2,0.4,1.4,0.8,3.5.7,4.5,2.1a0.9,0.9,0,0,0-1.3.8c1.6,0.5,16.7,6.2,16.4,3.4a13.6,13.6,0,0,0-.7-1.2,2.3,2.3,0,0,0-1.9-1.2" transform="translate(-2996.4 -105.4)"/><path class="cls-20" d="M5475.1,879.7c0-2.5-2.7-2.4-4.5-2.4-0.1-.6.8-0.8,0.3-1.3a23.9,23.9,0,0,0-5.6-1.6c-0.5-1.3-1.9-1.9-3.1-2.2s-4.3-2.7-6.4-2.6-5.1-1.2-8.2-.4c-1.4.4-5.5,2.6-4.2,4.8,1.5,0.3,5.9-2.4,7.4-3.2,0.4,2.5,3.6,2,6.1,3.2s3.8,0,4.7,2.1,2.5,1.2,4.1,2.2c-0.5.9-1.8,0.7-1.6,2.1C5467.7,879.7,5471.4,880.2,5475.1,879.7Z" transform="translate(-2996.4 -105.4)"/><path class="cls-20" d="M5463.8,886c0.2,0.1,5.3,1.2,5-.2S5459.1,883.4,5463.8,886Z" transform="translate(-2996.4 -105.4)"/><path class="cls-20" d="M5478.4,885.6a8.2,8.2,0,0,0,3.4.2,3,3,0,0,0,2.4,1.6c0.6-5.1,9.2.6,9.3-3.2-2.1-2.6-6.6-4.5-9.4-4.2s-6.9-1.3-7.3.6c0,0,3.4,3.5,3.2,3.4-2,.9-3.8-1.1-5.8-0.3C5473.6,886.8,5477.1,885.4,5478.4,885.6Z" transform="translate(-2996.4 -105.4)"/><path class="cls-20" d="M5496.5,885.3c0.1,2.6,5.8,1.2,5.4-.3S5496.4,882.7,5496.5,885.3Z" transform="translate(-2996.4 -105.4)"/><path class="cls-20" d="M5400.9,715.7c-1.1,0-3.9-.5-3.9,1.3,1.9,1.6,8.8-.7,8.2-3.5a3.5,3.5,0,0,1-2.1-1.1,7,7,0,0,0-4,1.1C5398.4,713.7,5400.6,715.6,5400.9,715.7Z" transform="translate(-2996.4 -105.4)"/><path class="cls-20" d="M5441,699.6c5.1-.6,9.7-3.2,14.7-3.3,1.5,0,3.7-.4,4.6-1.8,1.1,1.5,3.5.5,4.9,0.2s2.5-1.2,4.4-2.3c-4.5-1.3-9.9.2-14.2,1.8-1.9.7-3.2,0.5-5.1,1.3s-4.7,0-5.6.9c0.6-1.1,2.2-.7,2.9-1.6a20,20,0,0,0-6.9,1.9c-0.1,1.1,1,.2,1.1.8S5440.7,698.2,5441,699.6Z" transform="translate(-2996.4 -105.4)"/><path class="cls-20" d="M5477.4,710.4c-2.8-.9-6.4-0.2-6.4,3.2C5473.5,714.6,5477.7,713.8,5477.4,710.4Z" transform="translate(-2996.4 -105.4)"/><path class="cls-20" d="M5496,703.1c-1.2.2-2.6,0.8-3.8,0.6a12.1,12.1,0,0,0,2.9-1.1c-0.3-1.2-2.3-1.1-4.2-1s-4.4,1.6-4.6.7c1.5-.1-2.3-4.3-3.7-1.3-0.2-1.6-1.4-1.3-2.5-1a3.3,3.3,0,0,1-1.7.2,5.3,5.3,0,0,0,2.4-1.3c-1.8-1.3-11.6-2.4-11.7,1.4a2.4,2.4,0,0,0-2.7-.1,2.3,2.3,0,0,1-2.3.1,10,10,0,0,0,1.8-2.4c-2.8-2.7-7.9-.4-10.6,1.4a1.3,1.3,0,0,1,1.3.3c-1.2,0-3.2,0-3.4,1.6a2.3,2.3,0,0,1,1.1.8,1.4,1.4,0,0,0-1.6,1.1c0.3,0.9,1.9.1,2.1,1.1a2.9,2.9,0,0,1-2.9.8,1.9,1.9,0,0,0,1.6-.8c-0.8-1.4-2.5-1.4-2.7-2.9s3.3-1.7,4.5-3.2c-3.3.4-12.7,2.8-11.4,6.7a2,2,0,0,0-1.9,1.6h2.1a6.7,6.7,0,0,1,3.2.1c-1,.8-3.6,0-4,1.6s3.2,0.6,4.5.2,1.4-.2,1.7,0,0.7,0.4,2.5.1a72.3,72.3,0,0,1,11-.7c0.2-1.5,1.1-1.3,2.1-1a4,4,0,0,0,2.5,0c2.8-1.1-.5-1.5-0.7-1.9s7.7,2.4,8.8,2.9a6.2,6.2,0,0,1-2.9.5c-0.4,2.3,2.5.9,3.6,0.6s2,0.7,4.2,1.2c5.9,1.3,1,5.9-2.5,6.7,0,1,2.3,1.6,1.9,2.4-3.1.3-5.3,0.8-8.3,0.9-1.4.1-4.6,1.5-4.1,3.7,1.8,0.1,9.2-1.1,9.3-2.6s8,3.5,9,4.4a1.2,1.2,0,0,0-1.1,1.1c2.2,1.7,5.7,1.4,7.4,4,3.2-.4,6.2.5,9.3,0.7,0-4.2-3-4.2-8.4-5.5,3.4,0.7,8.1-.2,8.7.2s1.4,2.8,3.2,2.9a9,9,0,0,0,0-2.9,1.7,1.7,0,0,0,1.1.3c0.5-2.5-1.5-2.4-2.7-4a0.5,0.5,0,0,0,.8-0.5c-1.4,0-8.7-4.4-8.2-5a2.4,2.4,0,0,0,2.4.5c0.3-1.3-1.2-.8-1.3-1.9,2.5-.9,5.6-1.2,7.7.4s2.3,4.4,4.3,4.4c0.3-.8-1-1.8-0.3-2.4a34.7,34.7,0,0,1,3.7-.5c0.8-.5-0.9-0.9,0-1.3s3.5-1.3.9-2.2-2.5.2-3.5-1.2-3,.8-4.2,0a1.5,1.5,0,0,0,1.9-.5c-1.9-3-9.1-2.1-12.2-3.9a1.3,1.3,0,0,1,1.3-.3c0.3-.7-1.4-1-0.8-1.3a9.1,9.1,0,0,0,4.2.5c0.2-1.3-.8-1.2-1.8-1.2s-1.6,0-1.9-.6c5.2,0,1.6-1.9-.2-1.6" transform="translate(-2996.4 -105.4)"/><path class="cls-20" d="M5452.7,727.4c1.1,0,8.3,4.1,8.2,0a8.6,8.6,0,0,0-4.2-.5c0.8-2.5-3-.8-4.7-1.5-3.8-1.5-.4-1.1-3-1.4a1.6,1.6,0,0,0-1.3-1.9c-0.7,1.4-2,2.5-2.5,4.1s-1.9,1.9-3.1,4.4c1.5,0.2,2.9-1.1,4.2-.8a2.9,2.9,0,0,0,0,1.6c2.3-.1,3.6-2.2,5.8-2.4C5452.8,728.5,5451.8,727.5,5452.7,727.4Z" transform="translate(-2996.4 -105.4)"/><path class="cls-20" d="M5428.1,716.3c-0.9.1-3.3-1.2-4.5-1.3s-3.4,2.8-3.7,3.7C5422.9,718.4,5426.1,719.2,5428.1,716.3Z" transform="translate(-2996.4 -105.4)"/><path class="cls-20" d="M5456.4,687.3l0.6-.2Z" transform="translate(-2996.4 -105.4)"/><path class="cls-20" d="M5439.6,700.3c-2-.7-17.5,1.9-17.7,3.7C5426.2,703.4,5438.4,707.5,5439.6,700.3Z" transform="translate(-2996.4 -105.4)"/><path class="cls-20" d="M5532.1,770h-0.9c-2,.4-3.1,2.2-4,4s-1.5,3.9-2.5,4.9l-0.3.2a1.4,1.4,0,0,0-.3,2.2,2.9,2.9,0,0,0-2.2,1.5,1.5,1.5,0,0,0-.1.8c0.1,0.7.9,0.9,1.8,1h10.3l0.9,0.2-0.4.2a6.1,6.1,0,0,0-2.2,1.9,2.7,2.7,0,0,0,1.2.3,3.6,3.6,0,0,0,2.2-1.1l0.2-.2a3.2,3.2,0,0,1,2-1h0.5c-0.2,2.3-.7,2.2,1.9,3l0.9,0.2c1,0,1.1-1,1.4-2.1s-2.6-2.1-3.1-2.7a1.1,1.1,0,0,1,.9-1.2c0.6-.2,1.2-0.5,1-1.5l-0.6-.2-0.8.2-0.8.2h-0.2c0-1.3,2.1-2.8-.4-3.4h-3.5a3.2,3.2,0,0,1-2.2-1c3-.9-0.8-1.1-2-1.1h-0.4c0.7-1,2.4-3,3.3-4.4a3.1,3.1,0,0,0,.4-1.1l-1.8-.3" transform="translate(-2996.4 -105.4)"/><polygon class="cls-21" points="2623.5 484.9 2630.4 518.3 2388.5 518.3 2388.5 280.7 2655.5 280.7 2655.5 475.6 2623.5 484.9"/><rect class="cls-19" x="2388.5" y="280.7" width="267.1" height="29.49"/><rect class="cls-19" x="2433.1" y="338.1" width="179.2" height="9.7"/><rect class="cls-19" x="2433.1" y="373.2" width="179.2" height="9.7"/><rect class="cls-19" x="2433.1" y="408.4" width="179.2" height="9.7"/><rect class="cls-19" x="2433.1" y="443.5" width="179.2" height="9.7"/><polygon class="cls-19" points="2655.5 476.4 2631.6 518.8 2618.9 483.1 2655.5 476.4"/><rect class="cls-22" x="1853.5" y="1024.3" width="903.3" height="119.41"/><path class="cls-21" d="M5932.4,1265.7H4878a49.1,49.1,0,0,1-49.1-49.1v-58.9a49.1,49.1,0,0,1,49.1-49.1H5932.4a49.1,49.1,0,0,1,49.1,49.1v58.9A49.1,49.1,0,0,1,5932.4,1265.7ZM4878,1129.7a28.1,28.1,0,0,0-28.1,28.1v58.9a28.1,28.1,0,0,0,28.1,28.1H5932.4a28.1,28.1,0,0,0,28.1-28.1v-58.9a28.1,28.1,0,0,0-28.1-28.1H4878Z" transform="translate(-2996.4 -105.4)"/><rect class="cls-19" x="2647.6" y="302.1" width="7.9" height="175.23"/><rect class="cls-19" x="2388.5" y="305.9" width="7.9" height="212.43"/><rect class="cls-19" x="5506.2" y="501.5" width="7.9" height="236.41" transform="translate(3133.5 -4995.9) rotate(90)"/><rect class="cls-21" x="2749.5" y="1015.7" width="217.3" height="128"/><rect class="cls-22" x="5858.7" y="1188.6" width="7.8" height="10.11" transform="translate(8252.1 -1516.8) rotate(142.7)"/><path class="cls-22" d="M5860,1190.5a34.5,34.5,0,1,0-48.1-6.6A34.4,34.4,0,0,0,5860,1190.5Zm-38.3-50.2a28.7,28.7,0,1,1-5.3,40.1A28.6,28.6,0,0,1,5821.7,1140.4Z" transform="translate(-2996.4 -105.4)"/><path class="cls-22" d="M5897.9,1240.3h0a6.2,6.2,0,0,0,1.2-8.7l-29.5-38.7-9.9,7.6,29.5,38.7A6.2,6.2,0,0,0,5897.9,1240.3Z" transform="translate(-2996.4 -105.4)"/><circle class="cls-21" cx="1944.4" cy="1081.8" r="21"/><circle class="cls-21" cx="2033.1" cy="1081.8" r="21"/><circle class="cls-21" cx="2121.7" cy="1081.8" r="21"/><line class="cls-23" x1="3226.7" y1="699.1" x2="3525.5" y2="1157.9"/><rect class="cls-23" x="6429.2" y="1006.3" width="32.9" height="279.6" transform="matrix(0.84, -0.55, 0.55, 0.84, -2577.18, 3598.52)"/><path class="cls-23" d="M6401.5,1078.4l138.5-4.3v-4.9L6370.5,949.4,6223.1,804.5l72.9,193.3,41.1,203.6,3.9,2.3Z" transform="translate(-2996.4 -105.4)"/><path class="cls-24" d="M6224.7,806.1l145.7,143.3,169.6,119.9v4.9l-119.3,3.7,115,176.5-14.3,9.3-120-185-32.2-49.6-17.1-26.4-129-198.1Z" transform="translate(-2996.4 -105.4)"/></svg>