<svg id="Pagina_inicia_Movil" data-name="Pagina inicia Movil" xmlns="http://www.w3.org/2000/svg" viewBox="0 0 290 330.5"><defs><style>.cls-1{fill:#cddff0;}.cls-2{fill:#221f1f;opacity:0.1;}.cls-11,.cls-17,.cls-18,.cls-19,.cls-2,.cls-20{isolation:isolate;}.cls-3{opacity:0.12;}.cls-4{fill:#050505;}.cls-5{fill:#fdfeff;}.cls-6{fill:#f9f9f9;}.cls-7{fill:#b5c8ca;}.cls-8{fill:#33414c;}.cls-9{fill:#f55f13;}.cls-10{fill:#3d4d5d;}.cls-11{fill:#020202;opacity:0.06;}.cls-12{fill:#c6c6c6;}.cls-13{fill:#f4f4f4;}.cls-14{fill:#ddd;}.cls-15{fill:#a5a4a4;}.cls-16{fill:#fafbfc;}.cls-17{fill:#eb5a49;}.cls-17,.cls-18,.cls-19,.cls-20{opacity:0.61;}.cls-18{fill:#5884a5;}.cls-19{fill:#415f79;}.cls-20{fill:#f96e64;}.cls-21{fill:#4ba5a5;}.cls-22{fill:#52677a;}.cls-23{fill:#fff;}.cls-24{fill:#51677c;}.cls-25{fill:none;}.cls-26{fill:#e4e4e4;}.cls-27{fill:#b3b2b3;}</style></defs><title>empresa3</title><path class="cls-1" d="M0,88.8A14,14,0,0,1,6.3,77.9L138.7,1.5a14,14,0,0,1,12.6,0L283.7,77.9A14,14,0,0,1,290,88.8V241.6a14,14,0,0,1-6.3,10.9L151.3,328.9a14,14,0,0,1-12.6,0L6.3,252.5A14,14,0,0,1,0,241.6V88.8H0Z" transform="translate(0 0)"/><path class="cls-2" d="M283.3,77.9L150.9,1.5a12.7,12.7,0,0,0-6-1.5V330.5a12.8,12.8,0,0,0,6-1.5l132.4-76.4a14,14,0,0,0,6.3-10.9V88.8A14,14,0,0,0,283.3,77.9Z" transform="translate(0 0)"/><g class="cls-3"><path class="cls-4" d="M103.7,187.5c-2.1-.6-2.3.1-2.5-1.1s-1.7-1.2-3-1.2a3.4,3.4,0,0,1-2.9-1.1c-1.1-.9-3.3-1.1-4-1.3s-0.4-2.2-1.8-4.1-4.4-2.2-6.3-3.3-1.3-5.2-4-4.8-3,1.4-5.5.1-4.2-2.1-5.5-1.2-3,2.7-3.8,3.2-2.3-.4-3.1-0.2-1.8-.8-2.4-1.6,1.1-4.9-.5-4.9-3.6-.7-3.6-1.3,3.2-4.1,2.3-4.7-2.9-.2-4.5,2-3.2,2.1-4,1.3-2.7-5.6-1.2-8.3,3.6-4.3,5.5-4.2,2.7-.5,4.6-0.6a5.4,5.4,0,0,1,4.2,1.5c0.5,0.7-.5,1.9.7,3.3s1.9,0.8,2,1.4-1,1.2-1.4,1.2-4.4,1.1-2.9,1.8,4.3,0.1,4.9,1.1-1.9,2.9,1.7,3.1,5.9,0.6,8,.7,3.4,0.2,3.7.7,1.7-1.8-1.7-1.8-5.9-1.9-7.7-2.2a3.5,3.5,0,0,1-3.1-2.9c-0.1-1.4.1-2.5-.6-3.6s-2.5-4-.8-5.2,5-3.4,5.8-4.9a5.6,5.6,0,0,1,2.7-3.1,35.1,35.1,0,0,0,5.2-3.8c1.1-1.1,2.9-2.7,3.2-1.9s2,1.1,4,.4,4.5-2.5,2.4-2.5-3.4-.6-2.9-1.4-1.4-1.2-2-1.1-0.6-1.2,1.4-1.5,0.4,1.8,2.1,1.7,2.7-1.8,3.9-2,1.7,0.8.1,1.9-2,.7,0,1.2,2.6,1.5,3.8.5-0.2-1.4-.4-2.8,0.8-4.2-.5-5.2-1.9-1.9-1.9-2.8,0.2-2.9-1.1-2-2.4,1.5-2.9,1.1,0.2-1.4-.8-2.1-1.2-1.8-2.5-1.6-2.6-.9-3.3.6-1.4,2.8-1.7,3.3,0.8,2.1-.1,2.9-3.6,2-3.9,2.8-1.8,2.9-2.1,1.5,1.2-3.5-1-4.1-3.8-.1-4.2-1.4-1.3-2.5.8-3.5,4.3-2.9,6.3-3.2,0.6,1.4,2.3,1.3-0.2-.9,1.8-1.3,1.7-.4,1.1-1.1-0.2-.8,1.3-1.5,0.4-1.2,1.9-1.8,1.9-1.2,2.7-1.2,0.7,0.4.2,1.4-0.8,1.8.6,1.1,2.1-1.2,1.1-.1-1.8,1.1-3.3,1.3-1.1.5-.4,1.3,2.5,0.9,3.1,1.4,1.3,2.1,2.7,1.3,0.4-.9,2.3-1.8,4.6-1.3,4.4-2.3-2.1-1.6-2.4-2.9,2.6-2-1.1-2.6-1.5-1.1-3.3-1.1-5.1,0-6.3.6-1.9-.4-2.5.6,0.1,2.2-.5,2.2-1.7.9-2.1,0-1.5-1.9-.1-2.2,1.7-.1,1.9-1.2-2-.9-0.7-1.2,1.9,0.1,3.7.1,5.8,0.7,6.4-.4-1-1.1-2.7-1.2-4.9-.7-6.2-0.1a9,9,0,0,0-3.6,2.5c-0.6.9-.6-0.2-1.8,0s-3.2,1.5-2.1,2.2,1.1,1.5-.1,1.5S71.9,112,71,112s-3.1-.1-2-0.7,2.3-.6,2.1-2,1.2-1.9,1.2-2.3-2.9,1.1-5.1.4-3.2-1.8-5.5-1.6-5.2,3.1-3.8,3.3,2.5-.2,2.7.5-0.2,1.3.6,1.6,2.4,1.3.4,0.8-1.1-1.3-4.2-1.4-5-1.1-8.2-.2-2.7,1.5-4.9.8-7.3-3.4-10.9-2.7a26.8,26.8,0,0,0-8.3,3.6c-1.1.7-1.7-1.1-3.6-1s-6.5-.6-5.5.6,2.1,1.3.7,1.5-3.3.4-4,1.4-3.3,1.6-1.7,2.1,4.4,1.5,3.2,1.6-7.3,2.5-9.9,3.1-2.5,7.3-.2,6.4,8.3-7.3,9.7-7.8,2-.1,1.9.7,1.7-.4,3.1-1.4,1.8-3.6,3-2.9,1.5,0.4,2.5.1,5.6,1.4,6.5,1.9a26.4,26.4,0,0,1,2.6,2.2c0.6,0.5.8,1.5,0.2,1.6s-0.7.7-.6,1.6,0.6,1.8-.6,2-1,1.6-.2,1.5a1.4,1.4,0,0,0,1.3-1.2c0.1-.7,1.7-2,1.4-1.1a16.2,16.2,0,0,0-.8,2.6c0,0.7-.8.6-1,1.3s0.1,0.7.7,1.3,0.2,0.9.1,2.2-3.7,4.8-4.2,6-0.2,2.8-.2,4.1-0.5,2.9.8,3.4S32,147,32,148.2s0,2.6.7,3.4,0.4,0.7.4,2,0.8,0.6,1,1.6-0.6,1.5.6,2.3,2.5,1.4,1.9.1a34.2,34.2,0,0,1-1.5-4.2c-0.6-1.9-1-5.3-.2-4.2s1.7,4.2,2.7,6.5,2.4,2,2.4,3.6-1.3,3.2,1.3,4.2,4.5,3.3,6.1,3.1,2.5-1.2,3.1-.1,1.9,2.5,3.3,2.5,1.9,0.9,2.1,2.3,1.2,1.6,2.6,2.1,1.8,2,2.9,1.9,2.5-.6,2.5.5,0.5,3.6-1.3,5.3-2.6,2.8-1.7,3.9,0.1,2.1-.4,2.9,0.4,1.5,1.3,2.8a17.3,17.3,0,0,1,3.1,5.4,6,6,0,0,0,4,4.3c2,0.8,3.6,2.2,3.6,4.2s-0.1,8.8-.1,10.8,1.1,4,.7,5.5a4.2,4.2,0,0,0,.5,3.4c0.5,0.6.4,1.9,0.5,3.2s1.5,0.4,1.5,1.5-0.6,2.9.1,3.5-0.8,2.7,2.4,4.7,3.4,2.1,3.7,2.5,1.3-.7,1.3-0.1-1.8,4,1.5,4,5.3-1.2,3.3-2.7-3.2-.8-3.6-2.3-0.8-1.3-1.1-2.3,0.8-1.5.5-2.6-2.1-1.2-2-2.2,1.2-2,1.5-2.5a1,1,0,0,0-.4-1.4c-0.6-.5-0.5-0.6.4-0.8s1,0.1,1.3-1.1,1.4-1.1,1.9-1.4,2.1-.8,1.5-2.3-2.2-2.4-.9-2.4,3,0.1,3.8-1.6,0.5-2,1.4-3.3,0.5-2.4.5-3.4a2.2,2.2,0,0,1,1.4-2.4c1.3-.6,5.6-1.3,6.2-3.1a12.7,12.7,0,0,0,1-5.5c-0.2-1.9-.4-3.1,1-4.6s3-2.8,3-4.2S105.9,188.1,103.7,187.5Z" transform="translate(0 0)"/><path class="cls-4" d="M126,108c1.3-1.4,1-2.1,2.7-2.8s1.3-1.6,1.1-3.1,0.7-.8,1.4-1.3a4.3,4.3,0,0,1,2.7-.9c1.7-.1.1-0.7,0.1-1.4s-1.2-.6-2.9-0.4-1.4,0-2.6-.5-8.2-.5-10-0.5-5,.4-6.7.5-1.5,0-4.8-.4a102,102,0,0,0-14.7.2c-3.1.4-4.9-.5-6.9,0.8s-3,.7-5.2,1-3.8-.3-4.9-0.3-1-.6-2.9.1-1.3,1.2-2,.2-1.7,0-5,.8,1.6,3.7,2.7,4a22.1,22.1,0,0,0,3.6-.5c1.3-.4,1.9.5,2.7,0.2a17.5,17.5,0,0,1,5.8-2.1,15.9,15.9,0,0,1,10,.6c1.9,0.8,1.9.4,3.6-.7a21.3,21.3,0,0,1,7.5-2.3c3-.5,1.1.6-0.8,1.3s-3.6.5-3.2,1.6,4,0.8,5.1.8,1.2,1.6,1.3,2.6a16,16,0,0,0,.1,2.3c0.2,0.9.8,0.8-.2,1.8s-1.7.8-1.7,2.5a5.6,5.6,0,0,0,2.4,4.6c1.7,1.2,2.6,1.3,3.6-.6s3.2-3.1,4.4-3.6,2.9,0,4.4-1.4,3.6-.8,5.8-1.5S124.6,109.4,126,108Z" transform="translate(0 0)"/><path class="cls-4" d="M128.1,114.6c-3.6.5-6.9-.7-6.3,1.2s0.9,5.5,2.8,4.9,6.2-2.3,5.4-3.8S131.6,114.2,128.1,114.6Z" transform="translate(0 0)"/><path class="cls-4" d="M151,105.6h0.4a1.5,1.5,0,0,0,2.1-1.2c1.3-1.9.8,1.5,2.3,0.9s3.4-2,5.1-2.8-2-.5-5-0.9-7.1.4-8.3,1.2S149.3,105.1,151,105.6Z" transform="translate(0 0)"/><path class="cls-4" d="M168.6,100.8s-0.6.8,0.8,0.8,4.4-.9,6.8-0.9,1.7-.8,1.2-0.8-1.8-1.3-3.7-1.2-1.8.9-3,.9-1-.4-3.4-0.2S167.3,100.5,168.6,100.8Z" transform="translate(0 0)"/><path class="cls-4" d="M280.4,107.5c-0.2-1.4-.1-3.9-4.1-3.7a56.2,56.2,0,0,1-10.2-.2c-1.3,0-.6-0.9.3-0.9s0.9-1,0-1.5a1.9,1.9,0,0,0-2.6.9c-0.4,1.1,1.4,1.4-1.4,1.4s-6.4,4-9.6,3.4-4.2-2.7-6.9-2.8-5,2.6-7.9,2.6-1.9-1.1-3.1-2.3-1.8-.9-5.4-0.9-1.7,1.4-1,1.6a11.1,11.1,0,0,1,3.9,2c1.3,1.2-2.4.7-3.9,0.8s-1.4-.8-3.2-1.9-6.2-.5-8.7-0.6-2.6,0-3.6-1.8-3-.8-5.6-0.8-4-1.3-5.4-2.1-3.3-.9-6.2-1.4-1.3,1.8-.2,1.9a10.3,10.3,0,0,0,2.4.6c1.2,0.1,3.7.2,5,1.8s-4,.9-6.4,2.2-4.3.7-5.9,1.4,0.8,1.9,1.4,3.4,0,1.5-1.1,1.9,0.4-1.6-.1-2.2-2.3-3.6-3.7-4.6-1.2.8-1,2.1,0.6,1.3,1,2.2-1.5,0-2.5-.7-4,.9-5.5.2,0.5-.5.5-1.2-1.7-.1-2.1-1.2,3-2.3,5.1-2.7,1.9-.4,1.9-1.4-3.8-.7-7,0.8-2.4,2.6-2.9,3.6,1.1,1.2,1.8,1.8-0.8.8-2.3,1.3-1.8,0-3.4.6-0.7,1.3-2.1,1.9l-2.5,1.1c-1.2.5,0.2-1.8,1.9-2s1.2-1.2.7-1.5a50.1,50.1,0,0,0-6.9-2.2c-3.3-.9-8.7.4-10.5,1.2s-1.7,1.4-1.9,2.6-4.3,2.9-6.3,4-0.2,2.5.4,3.4,1.9,0.5,3.6,0,1.4,1.5,1.7,2.2,1.2,0.8,2.7.1,1.2-2.3,1.2-3.3-0.4-1.4.7-2.7a12.4,12.4,0,0,1,3-2.7c0.9-.6.8,0.5-0.6,1.6s-0.5,1.5.2,2.9,2.1,0,3.9-.2-1.5,1.5-2.9,1.5,0,1.4-.8,1.4-1,.6-1.1,2-0.6,1.1-1.5,1.4a7.2,7.2,0,0,1-3.9.1c-1.5-.3-1.4-1.8-2.5-2.7s-1.3.5-1.3,1.1a2.8,2.8,0,0,1-1.5,1.9c-0.5,0-1.9,1.4-2.7,2.6s-1.4.5-1.7,0,0.6-1.2.1-2.3-2.4-2.1-1.8-4.8-0.7-1.3-2.6-1.1-2.5,1.1-2.6,1.8a10.3,10.3,0,0,1-2.4,3.4c-1.2,1.3-.4,2.3.2,3.8s2.1-.5,2.6-1.6,1.1-1.8,1.8-1.2-1.1,1.6-1.3,3.1,0.5,1.3,2.1.8,0.8-.8,2.1-0.2-1.2,1.1-2.7,1.2-1,1.2.4,2.1,0.7,2.3-.1,2.5l-4.8.8c-2.4.5-.2,2.3-0.7,3.4s-0.6,3.4.5,3.5,1.1,1.9.5,2.5a11.4,11.4,0,0,1-2.1,2.2c-1.4,1.1-.4,2-0.8,3.4s-1.7.6-3.1,2.1a23.2,23.2,0,0,0-3.1,4.5c-1.1,1.8-1.2,1.9.1,4s0,2.7-1.1,4.6,0.4,2,.8,3.6,1.4,1.3,1.8,2.9,0.8,2.1,2.5,3.3,3.3,2.8,4.2,2.5a8.8,8.8,0,0,1,4.9-1.2c2.7,0.1,1.8-1.2,4.6-1.6s0.4,0.7.8,1.5,2.8,1.3,4.9,1.4,0.4,2.7.2,4.3,0,1.6,1.1,3.1a20.9,20.9,0,0,1,2.9,6.2,7.2,7.2,0,0,1-1.3,5c-1,1.5-.6,5,1.4,7.6s0.8,2.5.8,5.2,1.4,2.2,2.5,3.8,0.6,4.3,1.5,5.9,2.6,0.1,4.5-.6,2.7-.5,5-2.1,4-4.9,4-5.9,0.7-1.3,1.9-1.8,1-3.5.8-4.3a2.3,2.3,0,0,1,.7-2c0.5-.5,3.4-3.3,4.5-4.5s0.1-2.8-.1-4.7-1-2.6-1-4.8-0.7-2,3.2-5.6,7.6-9.4,8-10.7a6.2,6.2,0,0,0,0-3.3c-0.2-.9-5.4.9-6.5,0.9s-4.2-2.5-4.5-3.4-1.1-2-2.7-3.4-0.4-3.4-1.5-4.9a12.4,12.4,0,0,1-2-5c-0.2-1.3,1.8.9,3.3,2.7a40.2,40.2,0,0,1,4.2,6.2,13.3,13.3,0,0,1,1.2,4.3c0.1,1.4,1.1,1.6,2.5,1.5s6.4-2.7,8.2-3.5a10.9,10.9,0,0,0,4.8-5.6c0.8-2.4-1.8-2-3-3.2s-1.2,0-2.6.4-2.6-1.5-4.9-3.6-0.8-1.4-.4-1.9,2.7,1.1,4,2.6,1.5,0.9,3.1.9,1.9,0.7,3.9,1.3,3.1-.2,4.8-0.1,1.5,1,2.7,2.9,0.7,1.3,3.3,1.5,0.7,0,.7,1.6,0.2,2.2,1.8,4.2,2.1,5.8,2.6,7.6,1.4,0,3,0-0.4,1.8,1.3,3.2,1.9-.7,1.9-1.4a5.1,5.1,0,0,0-1.3-3c-0.7-.6-1.7-0.5-0.8-1.4s-1-1.5-1-2.8a6.2,6.2,0,0,1,1.1-3.6c0.6-.6,3.5-2.2,4.8-3.8a4.2,4.2,0,0,1,4.2-1.6c1.8,0.1.4,0.4,1.4,1.8s1.3,3.4,2.5,4.8,1.3-.2,2.3-0.7,0.4,1.4,1.1,2.8,0.2,3.3.2,4.6,1.5,2.6,2.5,3.8,0.6,1.8,0,2.2-1.8-1.2-2.7-2.1-2.4-.4-1.4.7,1.5,2.9,2.6,4.9,3.3,4.3,4.9,6.5,6.5,3.1,8.4,3.1,5.7,1.6,7.6,1.9a7.3,7.3,0,0,0,4.6-.7,1.2,1.2,0,0,0,.6-1.9c-0.1-.4-1.1.4-2.4,0.6l-3.3.4c-1.7.1-.6-0.6-2.4-0.7a20.5,20.5,0,0,1-5.6-1.2l-4.5-1.8c-1.4-.5-0.1-1.3-0.2-3.3s-1.4-1.2-2.5-1.9-0.7-2.2-.2-1.8,0.6,1.1.6-1.4-2.3-4.1-3.7-6.2A5.3,5.3,0,0,1,232,168c0.1-1.1,2.6.9,3.9,2.5s1.3,1.5,2,1.2,2.9-1.5,3.3-3.4-3.8-5.6-4.4-7.4,0.8-.7,1.5-1.9,1.5,0.5,1.1,1.3,0.1,1.3.6,2.1,0.5,0,1-1.1,0.1-1.4,1-2.1,4-1.6,4.9-2.5,1.4-1.8,2.5-4.7-0.1-2.8-.6-3.9a27,27,0,0,0-2.7-3.9c-0.8-1.1-.1-0.8.5-1.2s0.1-1.2-1.3-1.6-1.2.5-2.5,0.2-0.6-1.2.8-2.8,0.7,0.4,1.7,1.1,1.2-.6,1.9-0.2a8.7,8.7,0,0,1,3.2,2.5c1.1,1.4,1.1,3.5,2.1,3.3s1.1-1,1.6-2-1.1-2.1-1.9-2.9-1.9-.7-1.2-1.4,0.1-1.8.5-2.6,1.7-.4,3-0.9,1.4-2.6,1.4-4.7a5.1,5.1,0,0,0-1.7-3.8c-0.6-.7.7-0.4,1.8,0.5s2.7,5.3,3.1,7,0.1,1.8,1.5,3.3,1,1.3.5,3.1-1.7,2.2-3.4,2.7-1.2.8-2.3,2.6,0.6,1.9,1.5,2.4,1.1-1.5,2.3-2.3a8.5,8.5,0,0,1,4.9-1.2c2,0-.6-2.7-0.7-4.1a9.7,9.7,0,0,0-.7-3.4c-0.5-1.1.5-1.1,1.9-1.8s1.3-2.1.5-2.1-1.5.6-3.4,0.5-1.4-1.6-1.9-2.2a6.6,6.6,0,0,1-1.2-2.9c-0.1-1.1-1.8-2.5-3-3.5s-1.9-1.8-1.9-1.3-0.7-.1-2.4-0.2-2,.2-3.4.1,0.1-2.5.7-4.1,2.3-.7,3.6-0.7,5.9-5.6,7.8-5.1,1.1-1.2,1.4-2.5,1.2-.6,2.3-0.1,1.4,0.6,1.4-.5,1-1.3,1.8-.4a2.1,2.1,0,0,1,.2,1.9,9.3,9.3,0,0,0-.3,3.8c0.2,1.2.5,2.5,1.1,2.8s0.8,4.6,2.3,5.7,1.1-1.8,1.1-3.8a17.8,17.8,0,0,0-1.8-7.3c-1.1-1.9-.4-1.1,1.7-1.1s2.1-.7,2.6-1.3,0.8-.7,2.6-0.7,0.7-.7-0.1-1.6-2.5-.7-1.9-1.3,3.8,0.4,5.4.9S280.6,108.9,280.4,107.5ZM169.6,146.6c-0.7,1.4-1.1,2.3-2.1,2s-4.6-.2-6.4-0.8-4.4-1.6-4.9-.4,1.2,2.3-1.8,1.3-6.2-2.3-6.5-3.3,1.2-3.5-1-3.5-5.1-.1-6.1.6-4.6,2-5.8,1.6-2.7-.7-0.8-1.5,4.2-.4,4.4-1.5-1.7-1.4.2-2.5,1.2-2,2.5-2.6,3.1-.5,4-0.8-0.4-.7,1.5.4,3.1,3.1,4,3.2,1.5,0.8,1,1.3a4.2,4.2,0,0,1-1.9.8c-0.4,0-.6.9-0.2,1.1s1.2,1.6,1.8,1.2-0.2-1.2.9-1.6,2.4-.8,1.9-1.5-1-1.5,0-1.1,2.1,0.4,1-.7a19.6,19.6,0,0,0-3-2.2c-1.3-.9-2.7-1.4-2.7-2.1s-0.8-2,.5-1.5,5.8,2.9,5.8,3.9,1.2,2.6.1,3.4,1.1,1.1,1.5,1.5,0.2,1.8,1.5,1.5,2.3-.1,1.5-1.4-1.9-1.9-.7-2.3,1.4-1.1,1.8.9-0.1,2.7,2.7,2.8,4.8-.7,5.1.1A4.3,4.3,0,0,1,169.6,146.6Zm4.6-8.8c-1.9-.1-4.7,0-6.3,0a13.9,13.9,0,0,0-3.1.4c-1.3-.2-3.8-0.3-2.3-2.3s0.6-4.6,2.5-3.9,2,3.2,3.2,1.6,2.5-3.3,2.9-2-1.7,2.3.8,3.4,4.2,2.9,2.3,2.8h0Zm11.7,5c-1.8,0-4.2-1-4.2-1.9a15.9,15.9,0,0,0-.2-2.1c-0.6-2.6-2.4-2.9-2.4-4.4s1.4-2.7,3.3-2.7,4.3,0,2.9,1.7-4.2,1.5-2.3,4.1,4.7,5.5,2.9,5.5h0Z" transform="translate(0 0)"/><path class="cls-4" d="M250.7,159.2c0.9,0.3,1.2-3.6-.5-3S249.6,158.9,250.7,159.2Z" transform="translate(0 0)"/><path class="cls-4" d="M252.9,170.7c0.8,0.5.9,1.5,0.8,2.9s-1.5,1.3.8,2.2,4.9,2.5,4.3-.4-0.1-3.3-2.5-5.5-2.5-.8-2.8-2.6-0.9-5.3-1.9-4-1.5,1.6-.5,3.6S252.1,170.2,252.9,170.7Z" transform="translate(0 0)"/><path class="cls-4" d="M247.8,175.3a27.9,27.9,0,0,1-3.5,4.1c-1.1.8-2.9-.3-2.8,1.6s0.3,2.6.4,4,0.4,2.1,2.4,2.1,2.9,0.7,3.6.4,0.5-1.5,1.3-3,2.1-1.2,1.6-2.4a3.1,3.1,0,0,1-.5-2.1c0-1.2.7-.4,0.3-2.4S248.7,174.1,247.8,175.3Z" transform="translate(0 0)"/><path class="cls-4" d="M276,187.6c-1.7-1.9-4.7-3.2-5.9-3s-2.3,2-2.9,1.3-2.7-3.8-3.7-2.9,0.1,2-1.2,2-1.7,1.6-2-.5-1.3-3.2-1.6-1.6-0.4,2.6-1.1,1.5-1.1-.4-1.1-1.6-2.7-2.5-3.7-1.2a3.9,3.9,0,0,0-1.2,2.8c-0.3,1.9-.9,4.8.5,4s1.7-.1,2.4-1.1a2,2,0,0,1,2.7-.9c1.2,0.5.7,0.5,2.8,0.3s3.2-.3,4.7.7,4.4,0.4,4.4,1.3-3.1,1.6,0,2.5,3.7,3,4.7,2,2.3-2.5,3.2-1.4,4.5,4,3.9,2.4-0.5-3,1.6-4.7,1.6-2.5.7-2.5-0.9,1.2-3.1,1.4S277.7,189.4,276,187.6Z" transform="translate(0 0)"/><path class="cls-4" d="M276.9,204.6c-1.2-3-1.2-5.4-1.9-6.7s-0.1-2.9-2.1-2.9-0.8.5-1.5,2.2,0.1,4.9-1.6,4.5a3.4,3.4,0,0,1-2.9-2.9c-0.4-1.7.5-3.3-.8-3.3s-5.1-.9-6,0.5,0.3,2-1.7,2-2.8,0-3.9,1.3-2.5,5-8.3,5.3-2.8,3.3-2.8,6.6-3.1,5.3-1.7,6.5-0.4,2.8,2.4,1.9,5.3-1.2,9.8-1.9,6.4-.9,6.5,1.2-0.5.7,1.2,1.1-0.1,3.2,1.9,3.4,0.3,2.1,2.1,2.1,1.3,1.4-.2,1.4-1.5,3.7.6,2.7,3.8-2,3.8-3.6-0.3-1.7,2.3-3.7,8.4-6.7,8-10.6S278.1,207.7,276.9,204.6Z" transform="translate(0 0)"/></g><path class="cls-5" d="M196.2,226.7H171.3V226h24.9a3.9,3.9,0,0,0,3.4-4.1h0c0-.1.1-3-2.6-3.7h-9.2s-3.3-.3-3.3-4.4a5.5,5.5,0,0,1,1-3.7,4.3,4.3,0,0,1,3.5-1.4H216a3.7,3.7,0,0,0,2-.6,3.7,3.7,0,0,0,1.6-3.4V153.2h0.7v51.5a4.5,4.5,0,0,1-2,4.1,4.3,4.3,0,0,1-2.4.7H189a3.7,3.7,0,0,0-3,1.2,4.8,4.8,0,0,0-.9,3.1h0a3.6,3.6,0,0,0,1.4,3.1,3.1,3.1,0,0,0,1.3.5h9.2c3.1,0.7,3.1,4.2,3.1,4.4a4.7,4.7,0,0,1-4,4.8h0Z" transform="translate(0 0)"/><path class="cls-6" d="M106.2,209.1h-0.8V178.6a7.1,7.1,0,0,1,.8-2.4,4.5,4.5,0,0,1,4.1-2.5,4.6,4.6,0,0,1,4.6,3.8v11.3a3.5,3.5,0,0,0,3.7,3.3h0a4.3,4.3,0,0,0,3.2-1.1,4.9,4.9,0,0,0,1.2-3.6V154.5a6.1,6.1,0,0,1,.7-2.9,4.4,4.4,0,0,1,4.2-2.4h12.8V150H127.9a3.6,3.6,0,0,0-3.5,2,5.1,5.1,0,0,0-.6,2.5v32.9a5.8,5.8,0,0,1-1.5,4.3,5,5,0,0,1-3.8,1.3,4.5,4.5,0,0,1-4.5-4.1V177.7a3.7,3.7,0,0,0-3.7-3.1h0a3.7,3.7,0,0,0-3.4,2,6.2,6.2,0,0,0-.7,2.1v30.4h0Z" transform="translate(0 0)"/><path class="cls-7" d="M201.4,174.3H178.1s-3,12.6-4.1,13.9h31.6C204.4,186.9,201.4,174.3,201.4,174.3Z" transform="translate(0 0)"/><path class="cls-6" d="M209.6,188.7a1.2,1.2,0,0,1-.6,1.3H170.4a1.2,1.2,0,0,1-.6-1.3h0a1.2,1.2,0,0,1,.6-1.3H209a1.2,1.2,0,0,1,.6,1.3h0Z" transform="translate(0 0)"/><path class="cls-6" d="M133.3,166.7v7.4c0,2,2.3,3.7,5.1,3.7H241.1c2.8,0,5.2-1.7,5.2-3.7v-7.4h-113Z" transform="translate(0 0)"/><path class="cls-8" d="M246.3,105c0-3.6-2.4-6.4-5.2-6.4H138.4c-2.8,0-5.1,2.8-5.1,6.4v61.8h113V105Z" transform="translate(0 0)"/><path class="cls-9" d="M244.3,107.2c0-3.3-2.3-5.8-4.9-5.8H140.1c-2.7,0-4.9,2.5-4.9,5.8v56.6h109V107.2Z" transform="translate(0 0)"/><ellipse class="cls-10" cx="190" cy="173" rx="2.7" ry="2.9"/><path class="cls-11" d="M246.3,152.8L163.5,98.6H241a5.6,5.6,0,0,1,5.4,5.9v48.3h0Z" transform="translate(0 0)"/><path class="cls-12" d="M96.9,201.4h80.4a1.9,1.9,0,0,1,1.8,1.9V241h-84V203.3a1.9,1.9,0,0,1,1.8-1.9h0Z" transform="translate(0 0)"/><path class="cls-13" d="M97.2,205.3h3.5a0.7,0.7,0,0,1,.6.7v1.9H96.5V206a0.7,0.7,0,0,1,.6-0.7h0Z" transform="translate(0 0)"/><path class="cls-13" d="M103,205.3h3.5a0.7,0.7,0,0,1,.6.7v1.9h-4.8V206a0.7,0.7,0,0,1,.6-0.7h0Z" transform="translate(0 0)"/><path class="cls-13" d="M108.9,205.3h3.5a0.7,0.7,0,0,1,.6.7v1.9h-4.8V206a0.7,0.7,0,0,1,.6-0.7h0Z" transform="translate(0 0)"/><path class="cls-13" d="M114.7,205.3h3.5a0.7,0.7,0,0,1,.6.7v1.9h-4.8V206a0.7,0.7,0,0,1,.6-0.7h0Z" transform="translate(0 0)"/><path class="cls-13" d="M120.6,205.3h3.5a0.7,0.7,0,0,1,.6.7v1.9H120V206a0.7,0.7,0,0,1,.6-0.7h0Z" transform="translate(0 0)"/><path class="cls-13" d="M126.5,205.3H130a0.7,0.7,0,0,1,.6.7v1.9h-4.8V206a0.7,0.7,0,0,1,.6-0.7h0Z" transform="translate(0 0)"/><path class="cls-13" d="M132.3,205.3h3.5a0.7,0.7,0,0,1,.6.7v1.9h-4.8V206a0.7,0.7,0,0,1,.6-0.7h0Z" transform="translate(0 0)"/><path class="cls-13" d="M138.2,205.3h3.5a0.7,0.7,0,0,1,.6.7v1.9h-4.8V206A0.7,0.7,0,0,1,138.2,205.3Z" transform="translate(0 0)"/><path class="cls-13" d="M144,205.3h3.5a0.7,0.7,0,0,1,.6.7v1.9h-4.8V206a0.7,0.7,0,0,1,.6-0.7h0Z" transform="translate(0 0)"/><path class="cls-13" d="M149.9,205.3h3.5a0.7,0.7,0,0,1,.6.7h0v1.9h-4.8V206a0.7,0.7,0,0,1,.6-0.7h0Z" transform="translate(0 0)"/><path class="cls-13" d="M155.8,205.3h3.5a0.7,0.7,0,0,1,.6.7h0v1.9h-4.8V206a0.7,0.7,0,0,1,.6-0.7h0Z" transform="translate(0 0)"/><path class="cls-13" d="M161.6,205.3h3.5a0.7,0.7,0,0,1,.6.7h0v1.9H161V206a0.7,0.7,0,0,1,.6-0.7h0Z" transform="translate(0 0)"/><path class="cls-13" d="M167.5,205.3H171a0.7,0.7,0,0,1,.6.7h0v1.9h-4.8V206a0.7,0.7,0,0,1,.6-0.7h0Z" transform="translate(0 0)"/><path class="cls-13" d="M173.3,205.3h3.5a0.7,0.7,0,0,1,.6.7h0v1.9h-4.8V206a0.7,0.7,0,0,1,.6-0.7h0Z" transform="translate(0 0)"/><rect class="cls-13" x="96.5" y="209.6" width="4.8" height="4.71"/><rect class="cls-13" x="105.3" y="215.5" width="4.8" height="4.71"/><rect class="cls-13" x="106.7" y="221.5" width="4.8" height="4.71"/><rect class="cls-13" x="107.7" y="227.8" width="4.8" height="4.71"/><rect class="cls-13" x="113.4" y="227.8" width="4.8" height="4.71"/><rect class="cls-13" x="96.7" y="234.1" width="4.8" height="4.71"/><rect class="cls-13" x="102.4" y="234.1" width="4.8" height="4.71"/><rect class="cls-13" x="108.3" y="234.1" width="4.8" height="4.71"/><rect class="cls-13" x="114.1" y="234.1" width="4.8" height="4.71"/><rect class="cls-13" x="119.2" y="227.8" width="4.8" height="4.71"/><rect class="cls-13" x="124.9" y="227.8" width="4.8" height="4.71"/><rect class="cls-13" x="120.2" y="234.1" width="28.2" height="4.71"/><rect class="cls-13" x="130.7" y="227.8" width="4.8" height="4.71"/><rect class="cls-13" x="136.4" y="227.8" width="4.8" height="4.71"/><rect class="cls-13" x="142.1" y="227.8" width="4.8" height="4.71"/><rect class="cls-13" x="147.9" y="227.8" width="4.8" height="4.71"/><rect class="cls-13" x="149.7" y="234.1" width="6" height="4.71"/><rect class="cls-13" x="153.6" y="227.8" width="4.8" height="4.71"/><rect class="cls-13" x="156.8" y="234.1" width="4.8" height="4.71"/><path class="cls-13" d="M162.9,236.3h3.7a0.4,0.4,0,0,1,.4.4h0v2.1h-4.5v-2.1A0.4,0.4,0,0,1,162.9,236.3Z" transform="translate(0 0)"/><path class="cls-13" d="M168,234.1h4a0.4,0.4,0,0,1,.4.4h0v1.5h-4.8v-1.5A0.4,0.4,0,0,1,168,234.1Z" transform="translate(0 0)"/><rect class="cls-13" x="167.6" y="236.8" width="4.8" height="2.08"/><path class="cls-13" d="M173.5,236.3h3.6a0.5,0.5,0,0,1,.4.5h0v2H173v-2A0.5,0.5,0,0,1,173.5,236.3Z" transform="translate(0 0)"/><rect class="cls-13" x="159.4" y="227.8" width="4.8" height="4.71"/><rect class="cls-13" x="165.1" y="227.8" width="12.4" height="4.71"/><rect class="cls-13" x="96.7" y="227.8" width="9.8" height="4.71"/><rect class="cls-13" x="112.5" y="221.5" width="4.8" height="4.71"/><rect class="cls-13" x="118.3" y="221.5" width="4.8" height="4.71"/><rect class="cls-13" x="124" y="221.5" width="4.8" height="4.71"/><rect class="cls-13" x="129.8" y="221.5" width="4.8" height="4.71"/><rect class="cls-13" x="135.6" y="221.5" width="4.8" height="4.71"/><rect class="cls-13" x="141.3" y="221.5" width="4.8" height="4.71"/><rect class="cls-13" x="147.1" y="221.5" width="4.8" height="4.71"/><rect class="cls-13" x="152.9" y="221.5" width="4.8" height="4.71"/><rect class="cls-13" x="158.6" y="221.5" width="4.8" height="4.71"/><rect class="cls-13" x="164.4" y="221.5" width="4.8" height="4.71"/><rect class="cls-13" x="170.1" y="221.5" width="7.4" height="4.71"/><rect class="cls-13" x="111.1" y="215.5" width="4.8" height="4.71"/><rect class="cls-13" x="116.8" y="215.5" width="4.8" height="4.71"/><rect class="cls-13" x="122.5" y="215.5" width="4.8" height="4.71"/><rect class="cls-13" x="128.3" y="215.5" width="4.8" height="4.71"/><rect class="cls-13" x="134" y="215.5" width="4.8" height="4.71"/><rect class="cls-13" x="139.7" y="215.5" width="4.8" height="4.71"/><rect class="cls-13" x="145.5" y="215.5" width="4.8" height="4.71"/><rect class="cls-13" x="151.2" y="215.5" width="4.8" height="4.71"/><rect class="cls-13" x="157" y="215.5" width="4.8" height="4.71"/><rect class="cls-13" x="162.7" y="215.5" width="4.8" height="4.71"/><rect class="cls-13" x="168.7" y="215.5" width="8.8" height="4.71"/><rect class="cls-13" x="102.4" y="209.6" width="4.8" height="4.71"/><rect class="cls-13" x="108.3" y="209.6" width="4.8" height="4.71"/><rect class="cls-13" x="114.1" y="209.6" width="4.8" height="4.71"/><rect class="cls-13" x="120" y="209.6" width="4.8" height="4.71"/><rect class="cls-13" x="125.8" y="209.6" width="4.8" height="4.71"/><rect class="cls-13" x="131.7" y="209.6" width="4.8" height="4.71"/><rect class="cls-13" x="137.6" y="209.6" width="4.8" height="4.71"/><rect class="cls-13" x="143.4" y="209.6" width="4.8" height="4.71"/><rect class="cls-13" x="149.3" y="209.6" width="4.8" height="4.71"/><rect class="cls-13" x="155.1" y="209.6" width="4.8" height="4.71"/><rect class="cls-13" x="161" y="209.6" width="4.8" height="4.71"/><rect class="cls-13" x="166.9" y="209.6" width="10.6" height="4.71"/><rect class="cls-13" x="96.5" y="215.6" width="7.6" height="4.66"/><rect class="cls-13" x="96.5" y="221.5" width="9.2" height="4.68"/><rect class="cls-14" x="96.5" y="207.7" width="4.8" height="0.28"/><rect class="cls-15" x="96.5" y="214" width="4.8" height="0.28"/><rect class="cls-15" x="96.5" y="220" width="7.6" height="0.28"/><rect class="cls-15" x="96.5" y="225.9" width="9.2" height="0.28"/><rect class="cls-15" x="96.7" y="232.2" width="9.8" height="0.28"/><rect class="cls-15" x="102.4" y="214" width="4.8" height="0.28"/><rect class="cls-15" x="105.3" y="220" width="4.8" height="0.28"/><rect class="cls-15" x="106.7" y="226" width="4.8" height="0.28"/><rect class="cls-15" x="107.7" y="232.2" width="4.8" height="0.28"/><rect class="cls-15" x="96.7" y="238.6" width="4.8" height="0.28"/><rect class="cls-15" x="102.4" y="238.6" width="4.8" height="0.28"/><rect class="cls-15" x="108.3" y="238.6" width="4.8" height="0.28"/><rect class="cls-15" x="114.1" y="238.6" width="4.8" height="0.28"/><rect class="cls-15" x="113.4" y="232.2" width="4.8" height="0.28"/><rect class="cls-15" x="119.2" y="232.2" width="4.8" height="0.28"/><rect class="cls-15" x="124.9" y="232.2" width="4.8" height="0.28"/><rect class="cls-15" x="130.7" y="232.2" width="4.8" height="0.28"/><rect class="cls-15" x="136.4" y="232.2" width="4.8" height="0.28"/><rect class="cls-15" x="142.1" y="232.2" width="4.8" height="0.28"/><rect class="cls-15" x="147.9" y="232.2" width="4.8" height="0.28"/><rect class="cls-15" x="156.8" y="238.6" width="4.8" height="0.28"/><rect class="cls-15" x="162.5" y="238.6" width="4.5" height="0.28"/><rect class="cls-15" x="173" y="238.6" width="4.5" height="0.28"/><rect class="cls-15" x="167.6" y="238.6" width="4.8" height="0.28"/><rect class="cls-15" x="149.7" y="238.6" width="6" height="0.28"/><rect class="cls-15" x="153.6" y="232.2" width="4.8" height="0.28"/><rect class="cls-15" x="159.4" y="232.2" width="4.8" height="0.28"/><rect class="cls-15" x="165.1" y="232.2" width="12.4" height="0.28"/><rect class="cls-15" x="112.5" y="226" width="4.8" height="0.28"/><rect class="cls-15" x="118.3" y="226" width="4.8" height="0.28"/><rect class="cls-15" x="124" y="226" width="4.8" height="0.28"/><rect class="cls-15" x="129.8" y="226" width="4.8" height="0.28"/><rect class="cls-15" x="135.6" y="226" width="4.8" height="0.28"/><rect class="cls-15" x="141.3" y="226" width="4.8" height="0.28"/><rect class="cls-15" x="147.1" y="226" width="4.8" height="0.28"/><rect class="cls-15" x="152.9" y="226" width="4.8" height="0.28"/><rect class="cls-15" x="158.6" y="226" width="4.8" height="0.28"/><rect class="cls-15" x="164.4" y="226" width="4.8" height="0.28"/><rect class="cls-15" x="170.1" y="226" width="7.4" height="0.28"/><rect class="cls-15" x="111.1" y="220" width="4.8" height="0.28"/><rect class="cls-15" x="116.8" y="220" width="4.8" height="0.28"/><rect class="cls-15" x="122.5" y="220" width="4.8" height="0.28"/><rect class="cls-15" x="128.3" y="220" width="4.8" height="0.28"/><rect class="cls-15" x="134" y="220" width="4.8" height="0.28"/><rect class="cls-15" x="139.7" y="220" width="4.8" height="0.28"/><rect class="cls-15" x="145.5" y="220" width="4.8" height="0.28"/><rect class="cls-15" x="151.2" y="220" width="4.8" height="0.28"/><rect class="cls-15" x="157" y="220" width="4.8" height="0.28"/><rect class="cls-15" x="162.7" y="220" width="4.8" height="0.28"/><rect class="cls-15" x="168.7" y="220" width="8.8" height="0.28"/><rect class="cls-15" x="108.3" y="214" width="4.8" height="0.28"/><rect class="cls-15" x="114.1" y="214" width="4.8" height="0.28"/><rect class="cls-15" x="120" y="214" width="4.8" height="0.28"/><rect class="cls-15" x="125.8" y="214" width="4.8" height="0.28"/><rect class="cls-15" x="131.7" y="214" width="4.8" height="0.28"/><rect class="cls-15" x="137.6" y="214" width="4.8" height="0.28"/><rect class="cls-15" x="143.4" y="214" width="4.8" height="0.28"/><rect class="cls-15" x="149.3" y="214" width="4.8" height="0.28"/><rect class="cls-15" x="155.1" y="214" width="4.8" height="0.28"/><rect class="cls-15" x="161" y="214" width="4.8" height="0.28"/><rect class="cls-15" x="166.9" y="214" width="10.6" height="0.28"/><rect class="cls-14" x="102.4" y="207.7" width="4.8" height="0.28"/><rect class="cls-14" x="108.3" y="207.7" width="4.8" height="0.28"/><rect class="cls-14" x="114.1" y="207.7" width="4.8" height="0.28"/><rect class="cls-14" x="120" y="207.7" width="4.8" height="0.28"/><rect class="cls-14" x="125.8" y="207.7" width="4.8" height="0.28"/><rect class="cls-14" x="131.7" y="207.7" width="4.8" height="0.28"/><rect class="cls-14" x="137.6" y="207.7" width="4.8" height="0.28"/><rect class="cls-14" x="143.4" y="207.7" width="4.8" height="0.28"/><rect class="cls-14" x="149.3" y="207.7" width="4.8" height="0.28"/><rect class="cls-14" x="155.1" y="207.7" width="4.8" height="0.28"/><rect class="cls-14" x="161" y="207.7" width="4.8" height="0.28"/><rect class="cls-14" x="166.9" y="207.7" width="4.8" height="0.28"/><rect class="cls-14" x="172.7" y="207.7" width="4.8" height="0.28"/><rect class="cls-15" x="95.1" y="241" width="84" height="0.62"/><path class="cls-16" d="M189.8,71.1h48.1a4.1,4.1,0,0,1,3.9,4.3V145a4.1,4.1,0,0,1-3.9,4.3H189.8a4.1,4.1,0,0,1-3.9-4.3V75.5A4.1,4.1,0,0,1,189.8,71.1Z" transform="translate(0 0)"/><rect class="cls-17" x="189.1" y="79.1" width="24.5" height="0.9"/><rect class="cls-17" x="214.6" y="79.1" width="23.2" height="0.9"/><rect class="cls-18" x="188.9" y="81" width="9.1" height="6.07"/><rect class="cls-17" x="199" y="81" width="9.1" height="6.07"/><rect class="cls-19" x="209.1" y="81" width="9.1" height="6.07"/><rect class="cls-17" x="189.2" y="120" width="9.1" height="6.07"/><rect class="cls-18" x="219" y="81" width="9.1" height="6.07"/><rect class="cls-17" x="229" y="81" width="9.1" height="6.07"/><ellipse class="cls-17" cx="189.3" cy="74.9" rx="1" ry="1.1"/><ellipse class="cls-18" cx="192.1" cy="74.9" rx="1" ry="1.1"/><ellipse class="cls-19" cx="194.8" cy="74.9" rx="1" ry="1.1"/><rect class="cls-18" x="189" y="89.3" width="12.3" height="0.56"/><rect class="cls-18" x="189" y="90.6" width="29.5" height="0.5"/><rect class="cls-18" x="189" y="91.7" width="29.5" height="0.5"/><rect class="cls-18" x="189" y="92.9" width="29.5" height="0.5"/><rect class="cls-18" x="200.9" y="120" width="12.3" height="0.56"/><rect class="cls-18" x="200.9" y="121.3" width="38.8" height="0.5"/><rect class="cls-18" x="200.9" y="122.5" width="38.8" height="0.5"/><rect class="cls-18" x="200.9" y="123.6" width="38.8" height="0.5"/><rect class="cls-18" x="200.9" y="125.1" width="38.8" height="0.5"/><rect class="cls-18" x="200.9" y="126.3" width="38.8" height="0.5"/><rect class="cls-18" x="219.4" y="90.6" width="12.8" height="0.56"/><rect class="cls-18" x="219.4" y="92.2" width="20.3" height="0.5"/><rect class="cls-18" x="219.4" y="93.3" width="20.3" height="0.5"/><rect class="cls-18" x="219.4" y="94.5" width="20.3" height="0.5"/><rect class="cls-19" x="219.4" y="96.1" width="20.3" height="0.5"/><rect class="cls-19" x="219.4" y="97.4" width="20.3" height="0.5"/><rect class="cls-19" x="219.4" y="98.8" width="20.3" height="0.5"/><rect class="cls-19" x="219.4" y="100.1" width="20.3" height="0.5"/><rect class="cls-19" x="219.4" y="101.4" width="20.3" height="0.5"/><rect class="cls-19" x="189.3" y="136.1" width="50.4" height="0.5"/><rect class="cls-19" x="189.3" y="137.4" width="50.4" height="0.5"/><rect class="cls-19" x="189.3" y="138.8" width="50.4" height="0.5"/><rect class="cls-19" x="189.3" y="140.1" width="50.4" height="0.5"/><rect class="cls-19" x="189.3" y="141.5" width="50.4" height="0.5"/><rect class="cls-17" x="189" y="94.5" width="29.5" height="0.5"/><rect class="cls-20" x="189" y="95.6" width="29.5" height="0.5"/><rect class="cls-18" x="189" y="103.9" width="29.5" height="0.5"/><rect class="cls-18" x="189" y="105.6" width="29.5" height="0.5"/><rect class="cls-18" x="189" y="107.3" width="50.7" height="0.5"/><rect class="cls-19" x="189" y="108.5" width="50.7" height="0.5"/><rect class="cls-19" x="189" y="109.6" width="50.7" height="0.5"/><rect class="cls-19" x="189" y="110.9" width="50.7" height="0.5"/><rect class="cls-20" x="189" y="96.9" width="29.5" height="0.5"/><rect class="cls-20" x="189.1" y="98.1" width="29.3" height="0.5"/><rect class="cls-20" x="189.1" y="99.3" width="29.3" height="0.5"/><rect class="cls-17" x="189.2" y="128.2" width="29.5" height="0.5"/><rect class="cls-20" x="189.2" y="129.3" width="29.5" height="0.5"/><rect class="cls-20" x="189.2" y="130.6" width="29.5" height="0.5"/><rect class="cls-20" x="189.3" y="131.8" width="29.3" height="0.5"/><rect class="cls-20" x="189.3" y="133" width="50.4" height="0.5"/><rect class="cls-17" x="189.1" y="100.4" width="9.2" height="2.44"/><rect class="cls-17" x="199.9" y="100.4" width="9.2" height="2.44"/><rect class="cls-18" x="210.2" y="100.4" width="8.2" height="2.44"/><rect class="cls-18" x="189.1" y="113" width="9.2" height="3.89"/><rect class="cls-19" x="200.1" y="113" width="9.2" height="3.89"/><rect class="cls-19" x="211.1" y="113" width="9.2" height="3.89"/><rect class="cls-19" x="219.8" y="128.2" width="9.2" height="3.89"/><rect class="cls-19" x="230.5" y="128.2" width="9.2" height="3.89"/><rect class="cls-19" x="222" y="113" width="9.2" height="3.89"/><rect class="cls-19" x="233" y="113" width="6.8" height="3.89"/><rect class="cls-17" x="219.4" y="103" width="4.6" height="3.89"/><rect class="cls-17" x="225.3" y="103" width="4.6" height="3.89"/><rect class="cls-17" x="231.3" y="103" width="4.6" height="3.89"/><path class="cls-18" d="M237.9,76H198.5a0.9,0.9,0,0,1-.7-1h0a0.9,0.9,0,0,1,.7-1h39.4a0.9,0.9,0,0,1,.7,1h0A0.9,0.9,0,0,1,237.9,76Z" transform="translate(0 0)"/><rect class="cls-8" x="164.6" y="127.8" width="4.2" height="3.55"/><path class="cls-21" d="M168.4,129.4c0,8.6,6.4,15.6,14.3,15.6s14.3-7,14.3-15.6-6.4-15.6-14.3-15.6S168.4,120.9,168.4,129.4Zm26.2,0c0,7.1-5.3,12.9-11.9,12.9s-11.9-5.8-11.9-12.9,5.3-12.9,11.9-12.9S194.6,122.3,194.6,129.4Z" transform="translate(0 0)"/><path class="cls-22" d="M142.4,129.4h0a2.7,2.7,0,0,0,2.6,2.8h20.2v-5.7H145A2.7,2.7,0,0,0,142.4,129.4Z" transform="translate(0 0)"/><path class="cls-23" d="M191.5,138.2a11.2,11.2,0,0,1-16.9.9,13.9,13.9,0,0,1-.8-18.4,11.2,11.2,0,0,1,16.9-.9,13.9,13.9,0,0,1,.8,18.4h0" transform="translate(0 0)"/><path class="cls-22" d="M179,134a1.5,1.5,0,0,0,.1-0.7,0.7,0.7,0,0,0-.5-0.3H178c0.2-.4.1-0.8,0.3-1.2s-0.6-.2-0.6-0.1a0.3,0.3,0,0,0-.2.3c0,0.2-.2.2-0.2,0.3h-0.6c-0.1-.1-0.2.1-0.3-0.1s-0.1-.3-0.1-0.4a1.3,1.3,0,0,1-.1-1.1,2,2,0,0,1,.1-0.7,1.1,1.1,0,0,0,.2-0.6l0.7,0.2c0.1,0.1.3,0.3,0.3,0.1s0.1,0.1.2,0.1h-0.1a0.2,0.2,0,0,0,0-.2h0.9c0,0.2.1,0.3,0.1,0.2s0.2,0.1.3,0.2a1.2,1.2,0,0,0,.3.7,0.7,0.7,0,0,0,.2.5c0.5-.1-0.2-1.4-0.1-1.7a0.6,0.6,0,0,1,.3-0.4c0.2-.1,0-0.5.1-0.5h0.6c0.2-.1.1-0.1,0-0.2l0.2-.2c0-.1-0.2-0.3-0.2-0.4h0.1l0.2-.2a1,1,0,0,0-.1-0.4c0.1,0,.3.1,0.3,0a1.5,1.5,0,0,0-.2-0.8c0.2-.2.7,0.4,0.9,0.2s0.2,0,.2-0.1-0.2,0-.2-0.1a0.4,0.4,0,0,1,.3-0.3c0.2-.1.1-0.1,0.1-0.2h0.9a1.5,1.5,0,0,0-.3.4c0,0.2.3-.1,0.5-0.1a0.8,0.8,0,0,1,.7-0.2,0.7,0.7,0,0,0-.1-0.1h0.3c0-.1,0-0.1-0.1-0.1s-0.1-.6-0.3-0.4a1.2,1.2,0,0,0,.1.5h-0.6l-0.2-.2v-0.2h-0.3c0.1,0,.5-0.1.3-0.3s-0.4,0-.5.1l-0.4.3H182a0.9,0.9,0,0,1,.4-0.4,0.4,0.4,0,0,0,.3-0.2c0.1-.2.1-0.2,0.2-0.2h0.6a2,2,0,0,0,.8.1l0.3-.3h0.3a0.2,0.2,0,0,0,.2-0.3c-0.1-.1,0-0.5-0.3-0.4s0-.2-0.2-0.2h0.2a0.9,0.9,0,0,0-.7-0.1,0.4,0.4,0,0,0-.1-0.3c-0.1-.1-0.3-0.1-0.3-0.2s0.3-.1,0-0.2,0.2,0,0-.2l-0.2-.2c0-.1-0.4-0.6-0.5-0.1a0.7,0.7,0,0,1-.6.2h-0.4a1.3,1.3,0,0,0,.1-0.3c0-.2-0.1-0.1,0-0.3s-0.5,0-.5-0.2a0.6,0.6,0,0,0-.5-0.2h-0.4c-0.2,0-.3-0.2-0.4-0.1s-0.1.2,0,.2l-0.2.2h0.1a0.2,0.2,0,0,0,0,.2v0.2c0,0.2-.3.2,0,0.3a0.5,0.5,0,0,1,.4.6,1.2,1.2,0,0,1-.8.4,1.9,1.9,0,0,0,.1.4c0,0.2.1,0.2,0.1,0.3s-0.1.1-.2,0.2-0.2-.1-0.3-0.2a0.4,0.4,0,0,1-.2-0.4c0-.2.1-0.4-0.1-0.5a2,2,0,0,1-.9-0.2,1.1,1.1,0,0,0-.4-0.3,0.3,0.3,0,0,0-.3.1h-0.2c0.1-.1,0-0.5-0.2-0.5s-0.2-.3-0.2-0.4l0.4-.4a1.7,1.7,0,0,0,.2-0.3c0.4-.1.3-0.1,0-0.2h0.2c0.2,0,.3.1,0.2-0.1a0.5,0.5,0,0,0,.6-0.3,0.9,0.9,0,0,1-.5-0.1,0.6,0.6,0,0,0,.6,0c0.2-.1.2-0.2,0.1-0.2h1c0.2-.3-0.3-0.1-0.2-0.4h0.3c0-.1-0.1-0.1-0.2-0.1s-0.7.1-.4,0.2h-0.2l-0.2.3c-0.1.1-.2,0.2-0.4,0s0.3-.4,0-0.3l-0.3.2c0.1-.1-0.1-0.2,0-0.2h-0.3c0-.1.1-0.1,0.2-0.1s-0.2,0-.2-0.2-0.3,0-.3,0l-0.3.3h0.1c0,0.1-.2.2,0,0.2H178l-0.3.2a0.6,0.6,0,0,0-.1.2c-0.1.1-.1-0.1,0-0.2s-0.4,0-.4.1l-0.7.2a0.7,0.7,0,0,0-.7.4h0a3.2,3.2,0,0,0-.8.3l0.2-.2a1.4,1.4,0,0,0-.7.5c-0.4.4-.1-0.1-0.5-0.1a0.5,0.5,0,0,0,.1.2h-0.3l-0.3.2h-0.1a13.2,13.2,0,0,0-1.3,2.2h0.4c-0.1.2,0.4,0.1,0.4,0.3a0.4,0.4,0,0,1,0,.2v0.3c0.1,0,0-.2.1-0.3a2.5,2.5,0,0,1,0,.4c0,0.2-.1.6-0.1,0.7a0.5,0.5,0,0,1,.1.3,3.7,3.7,0,0,0,0,.5v0.5a4.2,4.2,0,0,0-.1.9,9.7,9.7,0,0,0,.2,1c0.1,0.3.2,0.1,0.3,0.3l0.3,0.8c0,0.1.3,0.5,0.1,0.5a3.8,3.8,0,0,0,.4.5,5.3,5.3,0,0,0,.3.7c0.2,0,0-.3,0-0.4a0.7,0.7,0,0,1-.2-0.5,1.5,1.5,0,0,0-.2-0.5,1.3,1.3,0,0,1-.2-0.7,0.7,0.7,0,0,1,.4.6l0.2,0.4a0.7,0.7,0,0,1,.2.4,2.2,2.2,0,0,1,.6.9,4.3,4.3,0,0,0,.1.4l0.3,0.4,0.8,0.5,0.4,0.2h0.3a1.8,1.8,0,0,1,.6.6,2.3,2.3,0,0,0,.7.2,6,6,0,0,1,.4.6,0.6,0.6,0,0,0,.1.2h0.1l0.4-.2a0.5,0.5,0,0,1-.1-0.4" transform="translate(0 0)"/><path class="cls-22" d="M188.2,138.4c-0.1-.2-0.4,0-0.6-0.1a0.7,0.7,0,0,0-.4-0.3h-0.6a0.6,0.6,0,0,0-.3.2c0-.2-0.2-0.3-0.4-0.3a0.2,0.2,0,0,0-.4,0h-0.3c-0.1,0-.2.2-0.4,0.2a2.8,2.8,0,0,1,.4-0.5c0.1-.2-0.2-0.2-0.2-0.3a0.6,0.6,0,0,0-.3-0.5l-0.6-.2h-0.8a0.4,0.4,0,0,0-.5-0.4l0.2-.2h-0.2a0.4,0.4,0,0,0,.1-0.3c-0.2,0-.2.3-0.3,0.1h0.1a0.5,0.5,0,0,0-.5.1,1.3,1.3,0,0,1-.5-0.1c-0.2,0-.2.1-0.3-0.1H181c-0.1,0-.1-0.2-0.2-0.2s-0.1.1,0,.1h-0.3c-0.1.1-.1-0.1,0-0.2s-0.1-.2-0.2-0.3l-0.2-.2a1.6,1.6,0,0,0-.8,0l-0.3-.3-0.4.2h0.1c0.1,0.2.2,0.1,0.2,0.3h0.8v-0.2h0.3a1.6,1.6,0,0,1,.1.3,0.7,0.7,0,0,0-.4.1,1.9,1.9,0,0,1-.1.3,0.3,0.3,0,0,0-.2.2h-0.1a1.1,1.1,0,0,0,0,.2h-0.1a2.1,2.1,0,0,0,.1.3,1.5,1.5,0,0,1,0,.5,0.6,0.6,0,0,0-.2.2,1.9,1.9,0,0,1-.2.2c-0.1,0-.1,0-0.1.1s-0.3.4-.1,0.5h0.2a0.5,0.5,0,0,1-.3.3c-0.1.1,0.2,0.3,0.1,0.3l0.2,0.2,0.2,0.3a1.8,1.8,0,0,1,.4.5c0.2,0.2.3,0.4,0.4,0.6l0.5,0.3,0.6,0.3a1,1,0,0,1,.1.5,1.4,1.4,0,0,0,0,.7c0,0.1-.2-0.1,0,0.2h0s-0.1.2-.2,0.2h0.1a11,11,0,0,0,2.6.1h-0.2a2.3,2.3,0,0,0,.9-0.1l0.3-.2h0a0.9,0.9,0,0,0,.6-0.5,2,2,0,0,1,.7-0.7,1.1,1.1,0,0,0,.8-0.1,1,1,0,0,0,.3-1.2c0.1-.2.4-0.1,0.5-0.2A0.9,0.9,0,0,0,188.2,138.4Z" transform="translate(0 0)"/><path class="cls-22" d="M174.4,120.4a0.4,0.4,0,0,1,.3.2,1.9,1.9,0,0,1,.5-0.5h0v0.2h0.4l0.5-.4,0.4-.2,0.5-.3h-0.2c0.1-.1.4-0.1,0.4-0.3a0.9,0.9,0,0,0-.4,0,0.3,0.3,0,0,0,0-.3,0.4,0.4,0,0,0-.4.4c-0.1,0,0-.1,0-0.1l-0.3.2-0.6.2h-0.5l-0.2.2h0a0.4,0.4,0,0,0-.1.3C174.4,120.3,174.2,120.4,174.4,120.4Z" transform="translate(0 0)"/><path class="cls-22" d="M173.8,120.7v0.2h0.1Z" transform="translate(0 0)"/><path class="cls-22" d="M194,125.8a0.8,0.8,0,0,0-.1-0.4A0.3,0.3,0,0,0,194,125.8Z" transform="translate(0 0)"/><path class="cls-22" d="M192,122.2s0-.2,0-0.1,0.3,0.4.3,0.6h-0.1v0.2h-0.1a0.7,0.7,0,0,0,.3.3h-0.1c-0.1.4-.1,0.1,0.2,0.3h0l0.4,0.2a1.5,1.5,0,0,0,0-.3l-0.3-.5-0.3-.5a0.7,0.7,0,0,0-.3-0.4h0.1l-0.2-.2h0A1.1,1.1,0,0,0,192,122.2Z" transform="translate(0 0)"/><path class="cls-22" d="M194.5,127.7l-0.2-.3c-0.1,0,.1-0.8-0.2-0.8h-0.7a0.5,0.5,0,0,1-.6-0.1c-0.1-.2.2-0.1,0.2-0.1s0.2-.2.3-0.3,0-.1-0.1-0.2v-0.3c0.3,0,0-.3.2-0.4l0.2,0.2v-0.2a5.4,5.4,0,0,1,.3.7h0a13.8,13.8,0,0,0-1-2.7,0.3,0.3,0,0,0-.1.2c-0.1-.1-0.1.1-0.2,0.2h-0.2v0.2h-0.3a1.8,1.8,0,0,0,.4.7,0.8,0.8,0,0,1,.1.6,1,1,0,0,0-.9-0.2,3.3,3.3,0,0,0,.1.6,1.5,1.5,0,0,1-.1.5c0.3,0.2-.1.5,0.4,0.4a0.5,0.5,0,0,1-.1.8,0.9,0.9,0,0,0-.2.4,2.8,2.8,0,0,1-.1.6,1.6,1.6,0,0,0-.3.4,1.8,1.8,0,0,0-.3.6,1.3,1.3,0,0,0-.3.5,0.6,0.6,0,0,0,0,.5h0.1a2.1,2.1,0,0,1,.1.6,1.8,1.8,0,0,1-.1.6,2,2,0,0,0,0,.5c-0.1.2,0,.4,0.2,0.3s0.3,0.4.3,0.7a2.1,2.1,0,0,0,.5.6c0.2,0.2.3,0.1,0.4-.1a0.3,0.3,0,0,1,.4-0.1,1.3,1.3,0,0,0,.7-0.5,0.9,0.9,0,0,1,.1.3H194a10.6,10.6,0,0,1-.2,1.1h0a14.2,14.2,0,0,0,.7-6.4" transform="translate(0 0)"/><path class="cls-22" d="M191.6,122.6c0.2,0.3.8,0.3,0.5-.2s-0.2-.4-0.3-0.4h-0.2c-0.1,0,.3.5,0,0.5" transform="translate(0 0)"/><path class="cls-22" d="M183.6,116.4h-0.8l0.2,0.2c0.5,0.1.8-.2,1.3,0.1l-0.2.2h0.9a0.5,0.5,0,0,0-.5,0h0.1c-0.1,0-.2.3-0.2,0.3a0.9,0.9,0,0,0,.6-0.1h0.2c0.1,0.3-.3.2-0.4,0.3s-0.1.1-.1,0.1,0,0.1.1,0.1h0.2c-0.3,0-.1.2,0.1,0.3s-0.1.2,0.1,0.2-0.1.1,0,.1h0.4a1,1,0,0,0,0,.4c0.2,0.1.3-.1,0.3,0h0.1c-0.1.1,0.2,0.1,0.3,0.1h0.1q0.1,0,0,.1h0.4c0.1,0,.1-0.1.1-0.1h0.4c-0.1.1,0.1,0.1,0.2,0.1h0.4c0-.1,0-0.1,0-0.1h0.1c0-.1-0.1,0-0.1-0.3s-0.1-.2-0.2-0.4h0.1a0.2,0.2,0,0,0,.2-0.2h-0.1l0.7,0.2q0-.2,0-0.4h0.2a0.6,0.6,0,0,1,.1-0.4h0.6a11.2,11.2,0,0,0-5.5-2" transform="translate(0 0)"/><path class="cls-22" d="M194.3,126.6h0v0Z" transform="translate(0 0)"/><path class="cls-22" d="M194.1,126.3a0.6,0.6,0,0,0-.2-0.4,1.4,1.4,0,0,0,.1.5h0Z" transform="translate(0 0)"/><path class="cls-22" d="M180.2,116.8h-0.4s0,0,0,.1,0.1,0,.1-0.1h0.4a1,1,0,0,0-.7.2h0.5c-0.1,0-1,.1-1,0.4h1.1a1.1,1.1,0,0,0,.8-0.2h0.1l0.5-.2h0.2l1.2-.2h-1.1l-0.9.2a2.8,2.8,0,0,0-1,.3h0.3Z" transform="translate(0 0)"/><path class="cls-22" d="M179.8,116.9h0Z" transform="translate(0 0)"/><path class="cls-22" d="M178.7,117.4h0.6l0.5-.3h-0.3a1.7,1.7,0,0,0-.9.4h0.1Z" transform="translate(0 0)"/><path class="cls-22" d="M190.2,119.6l-0.3-.3h-0.5L189,119c-0.1,0,.1.1,0,0.1s-0.2-.1-0.2,0a1.9,1.9,0,0,1,.4.2H189l0.3,0.2h-0.1c0.1,0,1.2.5,1.2,0.3h-0.2" transform="translate(0 0)"/><path class="cls-22" d="M181,132.1c0-.2-0.2-0.2-0.3-0.2s0.1-.1,0-0.1h-0.4l-0.2-.2-0.5-.2h-0.6c-0.1,0-.4.2-0.3,0.4l0.5-.3a0.5,0.5,0,0,0,.4.3c0.2,0.1.3,0,.3,0.2a0.4,0.4,0,0,0,.3.2c0,0.1-.1.1-0.1,0.2H181Z" transform="translate(0 0)"/><path class="cls-22" d="M180.2,132.6s0.4,0.1.4,0S179.9,132.4,180.2,132.6Z" transform="translate(0 0)"/><path class="cls-22" d="M181.3,132.6h0.4c0-.4.7,0,0.7-0.3a0.9,0.9,0,0,0-.7-0.3c-0.2,0-.5-0.1-0.5,0l0.2,0.3H181C180.9,132.7,181.2,132.6,181.3,132.6Z" transform="translate(0 0)"/><path class="cls-22" d="M182.6,132.6c0,0.2.4,0.1,0.4,0S182.6,132.4,182.6,132.6Z" transform="translate(0 0)"/><path class="cls-22" d="M175.7,119.2c-0.1,0-.3,0-0.3.1s0.6-.1.6-0.3h-0.4v0.2Z" transform="translate(0 0)"/><path class="cls-22" d="M178.6,117.9l1.1-.3H180a0.3,0.3,0,0,0,.4,0l0.3-.2a1.6,1.6,0,0,0-1,.1h-1A0.3,0.3,0,0,0,178.6,117.9Z" transform="translate(0 0)"/><path class="cls-22" d="M181.2,118.8a0.3,0.3,0,0,0-.5.3A0.3,0.3,0,0,0,181.2,118.8Z" transform="translate(0 0)"/><path class="cls-22" d="M182.5,118.2h-0.7c0.1,0-.2-0.3-0.3-0.1s-0.1-.1-0.2-0.1h0.1c-0.1-.1-0.8-0.2-0.8.1h-0.4v-0.2a0.6,0.6,0,0,0-.8.1h0.1a0.2,0.2,0,0,0-.2.1h0a0.8,0.8,0,0,1-.2-0.2,0.9,0.9,0,0,1,.3-0.3c-0.2,0-.9.2-0.8,0.5H179a0.5,0.5,0,0,0-.3.1c0,0.1.2,0,.3,0h1.1c0-.1.1-0.1,0.2-0.1h0.2c0.2-.1,0-0.1-0.1-0.1l0.6,0.2h-0.2c0,0.2.2,0.1,0.3,0h0.3c0.4,0.1.1,0.5-.2,0.5a1.3,1.3,0,0,1,.1.2h-0.6a0.3,0.3,0,0,0-.3.3,1.1,1.1,0,0,0,.7-0.2,1.3,1.3,0,0,1,.6.3h-0.1a1.6,1.6,0,0,1,.5.3h0.7c0-.3-0.2-0.3-0.6-0.4H183a0.5,0.5,0,0,0,.2.2,0.8,0.8,0,0,0,0-.2h0.1c0-.2-0.1-0.2-0.2-0.3h0.1l-0.6-.4h0.2c0-.1-0.1-0.1-0.1-0.1a0.6,0.6,0,0,1,.6,0,0.9,0.9,0,0,0,.3.3,0.5,0.5,0,0,1,0-.2h0.3a0.5,0.5,0,0,1,0-.1c0.1,0,.3-0.1.1-0.2h-0.3a0.7,0.7,0,0,0-.3,0h0.1a2.5,2.5,0,0,0-.9-0.3h0.1c0-.1-0.1-0.1-0.1-0.1h0.3c0-.1-0.1-0.1-0.1-0.1h-0.1c0.4,0,.1-0.1,0-0.1" transform="translate(0 0)"/><path class="cls-22" d="M179.4,120.1c0.1,0,.6.3,0.6,0h-0.3c0.1-.2-0.2-0.1-0.3-0.1h-0.3l-0.2.3-0.2.3H179a0.2,0.2,0,0,0,0,.1l0.4-.2C179.4,120.2,179.4,120.1,179.4,120.1Z" transform="translate(0 0)"/><path class="cls-22" d="M177.6,119.3h-0.3a0.5,0.5,0,0,0-.3.3A0.6,0.6,0,0,0,177.6,119.3Z" transform="translate(0 0)"/><path class="cls-22" d="M179.7,117h0Z" transform="translate(0 0)"/><path class="cls-22" d="M178.5,118a2.6,2.6,0,0,0-1.3.3C177.5,118.2,178.4,118.6,178.5,118Z" transform="translate(0 0)"/><path class="cls-22" d="M185.1,123.5h-0.1a0.5,0.5,0,0,0-.3.3l-0.2.4h0a0.1,0.1,0,0,0,0,.2h1c0,0.2-.1.2,0.1,0.2h0.1c0.1,0,.1-0.1.1-0.2a0.5,0.5,0,0,0-.2-0.2h0.1a0.1,0.1,0,0,0,.1-0.1h-0.2c0-.1.2-0.2,0-0.3h-0.4c0.2-.1-0.1-0.1-0.1-0.1h0l0.2-.3h-0.1" transform="translate(0 0)"/><polygon class="cls-23" points="191.5 109.3 192 112 174.5 112 174.5 93.3 193.8 93.3 193.8 108.6 191.5 109.3"/><rect class="cls-21" x="174.5" y="93.3" width="19.2" height="2.32"/><rect class="cls-21" x="177.7" y="97.8" width="12.9" height="0.76"/><rect class="cls-21" x="177.7" y="100.5" width="12.9" height="0.76"/><rect class="cls-21" x="177.7" y="103.3" width="12.9" height="0.76"/><rect class="cls-21" x="177.7" y="106.1" width="12.9" height="0.76"/><polygon class="cls-21" points="193.8 108.7 192 112 191.1 109.2 193.8 108.7"/><rect class="cls-24" x="136" y="151.8" width="65" height="9.41"/><path class="cls-23" d="M214,162.5H138a3.7,3.7,0,0,1-3.5-3.9h0V154a3.7,3.7,0,0,1,3.5-3.9H214a3.7,3.7,0,0,1,3.5,3.9h0v4.6a3.7,3.7,0,0,1-3.5,3.9h0ZM138,151.8a2.1,2.1,0,0,0-2,2.2h0v4.6a2.1,2.1,0,0,0,2,2.2H214a2.1,2.1,0,0,0,2-2.2h0V154a2.1,2.1,0,0,0-2-2.2H138Z" transform="translate(0 0)"/><rect class="cls-21" x="193.2" y="94.9" width="0.6" height="13.8"/><rect class="cls-21" x="174.5" y="95.2" width="0.6" height="16.73"/><rect class="cls-21" x="175" y="111.3" width="17" height="0.62"/><rect class="cls-23" x="200.5" y="151.2" width="15.6" height="10.08"/><polygon class="cls-24" points="209.3 156.8 208.9 157.2 208.4 156.6 208.9 156.2 209.3 156.8"/><path class="cls-24" d="M208.8,156.6a2.9,2.9,0,0,0,.5-3.8,2.3,2.3,0,0,0-3.5-.5,2.9,2.9,0,0,0-.5,3.8h0A2.3,2.3,0,0,0,208.8,156.6Zm-2.8-4a2,2,0,0,1,2.9.4,2.4,2.4,0,0,1-.4,3.2,2,2,0,0,1-2.9-.4h0a2.4,2.4,0,0,1,.4-3.2h0Z" transform="translate(0 0)"/><path class="cls-24" d="M211.5,160.5h0a0.5,0.5,0,0,0,.1-0.7h0l-2.1-3-0.7.6,2.1,3a0.4,0.4,0,0,0,.6.1h0Z" transform="translate(0 0)"/><ellipse class="cls-23" cx="142.6" cy="156.4" rx="1.5" ry="1.7"/><ellipse class="cls-23" cx="148.9" cy="156.4" rx="1.5" ry="1.7"/><ellipse class="cls-23" cx="155.3" cy="156.4" rx="1.5" ry="1.7"/><line class="cls-25" x1="234.9" y1="126.2" x2="256.4" y2="162.4"/><polygon class="cls-26" points="245.7 142.6 247.7 141.2 258.8 159.7 256.8 161.1 245.7 142.6"/><path class="cls-26" d="M247.7,147.8l10-.3v-0.4l-12.2-9.4-10.6-11.4,5.2,15.2,3,16,0.3,0.2Z" transform="translate(0 0)"/><path class="cls-27" d="M235,126.3l10.5,11.3,12.2,9.4v0.4l-8.6.3,8.3,13.9-1,.7-8.6-14.6-2.3-3.9-1.2-2.1-9.3-15.6H235Z" transform="translate(0 0)"/></svg>