<svg id="Pagina_inicia_Movil" data-name="Pagina inicia Movil" xmlns="http://www.w3.org/2000/svg" viewBox="0 0 62.2 62.2"><defs><style>.cls-1{fill:#0094e9;}.cls-2{fill:#fff;}</style></defs><title>area-soporte</title><circle class="cls-1" cx="31.1" cy="31.1" r="31.1"/><path class="cls-2" d="M31.1,8.1A22.5,22.5,0,0,1,40,9.9,22.6,22.6,0,0,1,52.3,22.2a22.8,22.8,0,0,1,0,17.9A22.6,22.6,0,0,1,40,52.3a22.8,22.8,0,0,1-17.9,0A22.6,22.6,0,0,1,9.9,40a22.8,22.8,0,0,1,0-17.9A22.6,22.6,0,0,1,22.2,9.9,22.5,22.5,0,0,1,31.1,8.1Zm0,3.3a19.6,19.6,0,0,0-9.3,2.3l5,5a13.1,13.1,0,0,1,8.6,0l5-5A19.6,19.6,0,0,0,31.1,11.4Zm-17.4,29,5-5a13.1,13.1,0,0,1,0-8.6l-5-5A19.7,19.7,0,0,0,13.7,40.4ZM31.1,50.8a19.6,19.6,0,0,0,9.3-2.3l-5-5a13.1,13.1,0,0,1-8.6,0l-5,5A19.6,19.6,0,0,0,31.1,50.8Zm0-9.9A9.9,9.9,0,0,0,41,31.1a9.9,9.9,0,0,0-9.9-9.9,9.9,9.9,0,0,0-9.9,9.9A9.9,9.9,0,0,0,31.1,41Zm12.4-5.6,5,5a19.7,19.7,0,0,0,0-18.5l-5,5A13.1,13.1,0,0,1,43.5,35.4Z"/></svg>