<svg id="Pagina_inicia_Movil" data-name="Pagina inicia Movil" xmlns="http://www.w3.org/2000/svg" viewBox="0 0 62.2 62.2"><defs><style>.cls-1{fill:#0094e9;}.cls-2{fill:#fff;}</style></defs><title>area-desarrollo</title><circle class="cls-1" cx="31.1" cy="31.1" r="31.1"/><path class="cls-2" d="M26.5,31.1a6.7,6.7,0,0,0-1.8-4.7,6,6,0,0,0-8.9,0,7,7,0,0,0,0,9.5,6,6,0,0,0,8.9,0A6.7,6.7,0,0,0,26.5,31.1ZM45.3,44.5a3.3,3.3,0,0,0-.9-2.4,2.9,2.9,0,0,0-4.4,0,3.5,3.5,0,0,0,0,4.7,3,3,0,0,0,4.4,0A3.3,3.3,0,0,0,45.3,44.5Zm0-26.8a3.3,3.3,0,0,0-.9-2.4,2.9,2.9,0,0,0-4.4,0,3.5,3.5,0,0,0,0,4.7,3,3,0,0,0,4.4,0A3.3,3.3,0,0,0,45.3,17.7Zm-9.4,11v4.8a0.9,0.9,0,0,1-.2.5l-0.4.3-3.8.6a13.4,13.4,0,0,1-.8,2l2.2,3a1,1,0,0,1,.2.5,0.7,0.7,0,0,1-.2.5l-2,2.3q-1.5,1.6-1.9,1.6l-0.5-.2-2.8-2.4-1.9.8a33.1,33.1,0,0,1-.6,4.1,0.7,0.7,0,0,1-.7.6H17.9l-0.5-.2a0.7,0.7,0,0,1-.2-0.5l-0.6-4-1.8-.8-2.9,2.3-0.5.2-0.5-.2q-3.5-3.5-3.5-4.2A0.9,0.9,0,0,1,7.5,40l1-1.4L9.7,37a13.9,13.9,0,0,1-.9-2.1l-3.7-.6L4.7,34a0.8,0.8,0,0,1-.2-0.5V28.6a0.9,0.9,0,0,1,.2-0.5l0.4-.3,3.8-.6a13.4,13.4,0,0,1,.8-2l-2.2-3a1,1,0,0,1-.2-0.5,0.8,0.8,0,0,1,.2-0.5,21.8,21.8,0,0,1,2-2.3,4.7,4.7,0,0,1,1.9-1.5l0.5,0.2,2.8,2.4,1.9-.8a32,32,0,0,1,.6-4,0.7,0.7,0,0,1,.7-0.6h4.6L23,14.6a0.7,0.7,0,0,1,.2.5l0.6,4,1.8,0.8,2.9-2.3,0.5-.2,0.5,0.2Q33,21,33,21.7a1,1,0,0,1-.2.5l-1,1.4-1.1,1.6a18.5,18.5,0,0,1,.8,2.1l3.7,0.6,0.4,0.3A0.8,0.8,0,0,1,35.9,28.7ZM51.5,42.6v3.7q0,0.4-3.6.8a7.8,7.8,0,0,1-.7,1.4,15.2,15.2,0,0,1,1.2,3.6v0.2l-3,1.9a4,4,0,0,1-1.1-1.2l-1.3-1.8H41.4l-1.3,1.8A4,4,0,0,1,39,54.1l-3-1.9V52.1a15.2,15.2,0,0,1,1.2-3.6,7.8,7.8,0,0,1-.7-1.4q-3.6-.4-3.6-0.8V42.6q0-.4,3.6-0.8a7.4,7.4,0,0,1,.7-1.4,15.2,15.2,0,0,1-1.2-3.6V36.7l0.9-.5,1.4-.9,0.7-.4a4,4,0,0,1,1.1,1.2l1.3,1.8h1.5a23.8,23.8,0,0,1,2.3-2.9h0.1l3,1.8v0.2a15.2,15.2,0,0,1-1.2,3.6,7.4,7.4,0,0,1,.7,1.4Q51.5,42.2,51.5,42.6Zm0-26.8v3.7q0,0.4-3.6.8a7.8,7.8,0,0,1-.7,1.4,15.2,15.2,0,0,1,1.2,3.6v0.2l-3,1.9a4,4,0,0,1-1.1-1.2l-1.3-1.8H41.4l-1.3,1.8A4,4,0,0,1,39,27.3l-3-1.9V25.3a15.2,15.2,0,0,1,1.2-3.6,7.8,7.8,0,0,1-.7-1.4q-3.6-.4-3.6-0.8V15.9q0-.4,3.6-0.8a7.4,7.4,0,0,1,.7-1.4,15.2,15.2,0,0,1-1.2-3.6V9.9l0.9-.5,1.4-.9L39,8.1a4,4,0,0,1,1.1,1.2l1.3,1.8h1.5a23.8,23.8,0,0,1,2.3-2.9h0.1l3,1.8v0.2a15.2,15.2,0,0,1-1.2,3.6,7.4,7.4,0,0,1,.7,1.4Q51.5,15.5,51.5,15.9Z"/></svg>