<svg id="Pagina_inicia_Movil" data-name="Pagina inicia Movil" xmlns="http://www.w3.org/2000/svg" viewBox="0 0 62.2 62.2"><defs><style>.cls-1{fill:#0094e9;}.cls-2{fill:#fff;}</style></defs><title>area-formacion</title><circle class="cls-1" cx="31.1" cy="31.1" r="31.1"/><path class="cls-2" d="M22.3,31.1A8.3,8.3,0,0,0,16,34.2H12.7a5.5,5.5,0,0,1-3.3-1,3.3,3.3,0,0,1-1.3-2.8q0-8.5,3-8.5l1,0.5,2.3,1a8.4,8.4,0,0,0,2.9.5,9.6,9.6,0,0,0,3.2-.6,11.9,11.9,0,0,0-.1,1.6A10.5,10.5,0,0,0,22.3,31.1ZM48,46.4a6,6,0,0,1-1.7,4.5,6.5,6.5,0,0,1-4.6,1.7H20.6A6.5,6.5,0,0,1,16,50.9a6,6,0,0,1-1.7-4.5q0-1.3.1-2.5a24.4,24.4,0,0,1,.3-2.6,20.3,20.3,0,0,1,.6-2.6,12.3,12.3,0,0,1,1-2.3,8.4,8.4,0,0,1,1.5-1.9,6.2,6.2,0,0,1,2-1.3,7.2,7.2,0,0,1,2.7-.5l1,0.5,1.7,1.1a10.7,10.7,0,0,0,9,1.1,10.5,10.5,0,0,0,2.6-1.1l1.7-1.1,1-.5a7.2,7.2,0,0,1,2.7.5,6.2,6.2,0,0,1,2,1.3,8.4,8.4,0,0,1,1.5,1.9,12.3,12.3,0,0,1,1,2.3,20.3,20.3,0,0,1,.6,2.6,24.4,24.4,0,0,1,.3,2.6Q48,45.1,48,46.4ZM23.4,15.8a6.1,6.1,0,0,1-6.1,6.1,6.1,6.1,0,0,1-6.1-6.1,6.1,6.1,0,0,1,6.1-6.1A6.1,6.1,0,0,1,23.4,15.8ZM40.3,25a9.2,9.2,0,0,1-9.2,9.2A9.2,9.2,0,0,1,21.9,25a9.2,9.2,0,0,1,9.2-9.2A9.2,9.2,0,0,1,40.3,25Zm13.8,5.4a3.3,3.3,0,0,1-1.3,2.8,5.5,5.5,0,0,1-3.3,1H46.2a8.3,8.3,0,0,0-6.3-3.1A10.5,10.5,0,0,0,41.8,25a11.9,11.9,0,0,0-.1-1.6,9.6,9.6,0,0,0,3.2.6,8.4,8.4,0,0,0,2.9-.5l2.3-1,1-.5Q54.1,21.9,54.1,30.4ZM51,15.8a6.1,6.1,0,0,1-10.5,4.3,5.9,5.9,0,0,1-1.8-4.3,6.1,6.1,0,0,1,10.5-4.3A5.9,5.9,0,0,1,51,15.8Z"/></svg>