<svg id="Pagina_inicia_Movil" data-name="Pagina inicia Movil" xmlns="http://www.w3.org/2000/svg" viewBox="0 0 290 330.5"><defs><style>.cls-1{fill:#fff;}.cls-2{fill:#f7f8f9;}.cls-3{fill:#221f1f;opacity:0.1;isolation:isolate;}.cls-4{fill:#003a7f;}.cls-5{fill:#0094e9;}</style></defs><title>empresa</title><path class="cls-1" d="M0,88.8A14,14,0,0,1,6.3,77.9L138.7,1.5a14,14,0,0,1,12.6,0L283.7,77.9A14,14,0,0,1,290,88.8V241.6a14,14,0,0,1-6.3,10.9L151.3,328.9a14,14,0,0,1-12.6,0L6.3,252.5A14,14,0,0,1,0,241.6V88.8H0Z" transform="translate(0 0)"/><path class="cls-2" d="M145,276a9.7,9.7,0,1,1,9.7-9.7h0A9.7,9.7,0,0,1,145,276Zm0-18.5a8.8,8.8,0,1,0,8.8,8.8,8.8,8.8,0,0,0-8.8-8.8h0Z" transform="translate(0 0)"/><path class="cls-3" d="M283.3,77.9L150.9,1.5a12.7,12.7,0,0,0-6-1.5V330.5a12.8,12.8,0,0,0,6-1.5l132.4-76.4a14,14,0,0,0,6.3-10.9V88.8A14,14,0,0,0,283.3,77.9Z" transform="translate(0 0)"/><path class="cls-4" d="M156.8,243.6q0,9.4.2,27.9t0.2,27.7q0,2.7-1.8,3.2t-10.8.8q-8.5,0-10.9-.8a2.7,2.7,0,0,1-1.9-1.6,26,26,0,0,1-.1-3.8q0-8.8.2-26.6t0.2-26.7q0-36.4-1.5-57.9-0.1-2.1-.1-2.7,0-2.5,1.9-2.5a36.1,36.1,0,0,1,6.1.8,36.2,36.2,0,0,0,6.1.8,43.6,43.6,0,0,0,6.1-.6,43.9,43.9,0,0,1,6.1-.6q1.7,0,1.7,2.5,0,0.5-.1,2.5Q156.8,210.6,156.8,243.6Zm1.8-95.1q0,22.3-13.9,22.3-5.9,0-9.9-5.6t-4.2-16.6q0-10,4.4-16.4t9.7-5.9q5.5,0,9.6,6T158.6,148.4Z" transform="translate(0 0)"/><path class="cls-4" d="M209.3,257.7q0,2.8-3,2.8l-3.9-.2-3.9-.2q-5.8,0-8,1.8t-2.1,7.5q0,3.1.1,9.3t0.1,9.3q0,2.1.3,6.2t0.3,6.1q0,1.7-2.3,1.9t-10.4.3a106.3,106.3,0,0,1-10.8-.4,2.3,2.3,0,0,1-2.3-2.4q0-5.8.1-17.1t0.1-17.1q0-16.8-3-27.7a5.1,5.1,0,0,1-.1-1.1,1.4,1.4,0,0,1,1.1-1.4l11.4-1.6,11.5-2.2q1.3,0,1.6,4.5t1.3,4.5,5.8-3.8a26.9,26.9,0,0,1,13.1-3.8q3.9,0,3.9,1.7a56.5,56.5,0,0,1-.4,5.9q-0.4,4.1-.5,5.9t0.1,5.5Q209.3,256.4,209.3,257.7Z" transform="translate(0 0)"/><path class="cls-5" d="M73.9,219.5a11.8,11.8,0,0,1,0,16.6,11.5,11.5,0,0,1-15.9.5l-0.5-.5a126.1,126.1,0,0,1,0-176.9,11.5,11.5,0,0,1,15.9-.5l0.5,0.5a11.8,11.8,0,0,1,0,16.6A102.4,102.4,0,0,0,73.9,219.5ZM232.2,59.2a11.5,11.5,0,0,0-15.9-.5l-0.5.5a11.8,11.8,0,0,0,0,16.6,102.5,102.5,0,0,1,0,143.8,11.8,11.8,0,0,0,0,16.6,11.5,11.5,0,0,0,15.9.5l0.5-.5A126,126,0,0,0,232.2,59.2ZM94.7,147.6a50.9,50.9,0,0,1,14.6-35.9,11.8,11.8,0,0,0,0-16.6,11.5,11.5,0,0,0-15.9-.5l-0.5.5a74.9,74.9,0,0,0,0,105,11.5,11.5,0,0,0,15.9.5l0.5-.5a11.8,11.8,0,0,0,0-16.6A50.7,50.7,0,0,1,94.7,147.6Zm102-52.5a11.5,11.5,0,0,0-15.9-.5l-0.5.5a11.8,11.8,0,0,0,0,16.6,51.3,51.3,0,0,1,0,71.9,11.8,11.8,0,0,0,0,16.6,11.5,11.5,0,0,0,15.9.5l0.5-.5A74.9,74.9,0,0,0,196.7,95.1Zm-51.8,29.1a23.5,23.5,0,1,0,23.2,23.5A23.3,23.3,0,0,0,144.9,124.2Z" transform="translate(0 0)"/></svg>