<svg xmlns="http://www.w3.org/2000/svg" viewBox="0 0 643 637.4"><defs><style>.cls-1{isolation:isolate;}.cls-2{fill:#747678;}.cls-3{fill:#8b9092;}.cls-4{fill:#adafb0;}.cls-5{fill:#a0a7ad;}.cls-6{fill:#cacacc;}.cls-7{fill:#e5f4f7;}.cls-8{fill:#f37c54;}.cls-9{fill:#5cd2d2;}.cls-10{fill:#cf3a52;}.cls-11{fill:#e3516e;}.cls-12{fill:#4f9cd0;}.cls-13{fill:#f2c06b;}.cls-14{fill:#8f959b;}.cls-15{fill:#b5b5b7;}.cls-16{fill:#c76746;}.cls-17{fill:#4baeaf;}.cls-18{fill:#9fe5e5;}.cls-19{fill:#20aae0;}.cls-20{fill:#f6678a;}.cls-21{fill:#4181ad;}.cls-22{fill:#97c5e4;}.cls-23{fill:#d1d3d4;}.cls-24{fill:#c69f59;}.cls-25{fill:#f8b29b;}.cls-26{fill:#f8daa9;}.cls-27{fill:#909193;}.cls-28{fill:#758082;}.cls-29{fill:#adb5b6;}.cls-30{fill:#e4e4e5;}.cls-31{fill:#eb4517;}.cls-32{fill:#fff;}.cls-33{fill:#c59e78;}.cls-34{fill:#485654;}.cls-35{fill:#6e8583;}.cls-36{fill:#5b6e6c;}.cls-37{fill:#3b4846;}.cls-38{fill:#262729;}.cls-39{fill:#7f56c5;}.cls-40{fill:#c2a9e3;}.cls-40,.cls-41{mix-blend-mode:overlay;}.cls-41{fill:#e8dbf3;opacity:0.8;}.cls-42{fill:#00a19b;}.cls-43{fill:#7c98ab;}.cls-44{fill:#a7bac9;}.cls-45{fill:#5d7e95;}.cls-46{fill:#21adad;}.cls-47{fill:#e6e7e8;}.cls-48{fill:#d3d1d3;}.cls-49{mix-blend-mode:multiply;}.cls-50{fill:#a4dae7;}.cls-51{fill:#d3ecf3;}.cls-52{fill:#c8858f;}.cls-53,.cls-54{fill:#446ca9;}.cls-54,.cls-73{opacity:0.5;}.cls-54,.cls-56{mix-blend-mode:screen;}.cls-55{fill:#1e428a;}.cls-56{fill:#959bc4;opacity:0.25;}.cls-57{fill:#e7e9ea;}.cls-58{fill:#afb6bb;}.cls-59{fill:#543e36;}.cls-60{fill:#72594b;}.cls-61{fill:#fffffe;}.cls-62{fill:#d2cfcb;}.cls-63{fill:#b19380;}.cls-64{fill:#a08171;}.cls-65{fill:#008fbe;}.cls-66{fill:#00c1de;}.cls-67{fill:#55565a;}.cls-68{fill:#342e1f;}.cls-69{fill:#6fd1e6;}.cls-70{fill:#f0d0b4;}.cls-71{fill:#222;}.cls-72{fill:#77bc1f;}.cls-73,.cls-75{fill:#bde087;}.cls-74{fill:#a4d55d;}.cls-76{fill:#fd5373;}.cls-77{fill:#cf0a2c;}.cls-78{fill:#f3f4f4;}.cls-79{fill:#e4615b;}.cls-80{fill:#768ebe;}.cls-81{fill:#1ccfc9;}.cls-82{fill:#8ae1db;}.cls-83{fill:#00c4bc;}.cls-84{fill:#edeeee;}.cls-85{fill:#f18b81;}.cls-86{fill:#5e6ca6;}</style></defs><title>empresa4</title><g class="cls-1"><g id="OBJECTS"><polyline class="cls-2" points="453.4 493.8 385 533.3 385 540.4 453.4 500.9 453.4 493.8"/><polyline class="cls-3" points="381.6 531.4 381.6 538.5 385 540.4 385 533.3 381.6 531.4"/><polyline class="cls-4" points="450.1 491.8 450.1 491.8 381.6 531.4 385 533.3 453.4 493.8 450.1 491.8"/><polyline class="cls-2" points="441 486.5 372.5 526 372.5 533.2 441 493.7 441 486.5"/><polyline class="cls-3" points="369.2 524.1 369.2 531.2 372.5 533.2 372.5 526 369.2 524.1"/><polyline class="cls-4" points="437.6 484.6 437.6 484.6 369.2 524.1 369.2 524.1 372.5 526 441 486.5 437.6 484.6"/><polyline class="cls-2" points="428.6 479.4 360.2 518.9 360.2 526.1 428.6 486.6 428.6 479.4"/><polyline class="cls-3" points="356.8 517 356.8 524.1 360.2 526.1 360.2 518.9 356.8 517"/><polyline class="cls-4" points="425.3 477.5 356.8 517 360.2 518.9 428.6 479.4 425.3 477.5"/><path class="cls-5" d="M626,558.8l-377.6-218a28,28,0,0,1-14-24.2V76.7a14,14,0,0,1,21-12.1L633,282.1a28,28,0,0,1,14,24.3V546.7a14,14,0,0,1-21,12.1" transform="translate(-77.1 -62.7)"/><path class="cls-5" d="M386.7,430.4v36.2a24,24,0,0,1-12,20.9l-31.5,18.2L430.4,556,462,537.9a24,24,0,0,0,12-20.8V480.7l-87.4-50.2" transform="translate(-77.1 -62.7)"/><polygon class="cls-5" points="554.2 500.6 562.5 496.4 555.4 486.5 554.2 500.6"/><polygon class="cls-5" points="164.2 2 155.8 6.3 160 6.3 164.2 2"/><path class="cls-6" d="M617.2,563.4l-377.6-218a28,28,0,0,1-14-24.2V81.3a14,14,0,0,1,21-12.1L624.1,286.7a28,28,0,0,1,14,24.3V551.3a14,14,0,0,1-21,12.1" transform="translate(-77.1 -62.7)"/><polyline class="cls-7" points="167.2 27.1 167.2 256.6 540.9 472.3 540.9 242 167.2 27.1"/><polyline class="cls-8" points="185.9 59 185.9 87.8 515.6 278.1 515.6 249.5 185.9 59"/><polyline class="cls-9" points="186 102.3 186 188.5 254.3 227.9 254.4 141.8 186 102.3"/><polyline class="cls-10" points="266.7 156 266.6 242.1 335.2 281.8 335.2 195.6 266.7 156"/><path class="cls-11" d="M358.8,298.5h0l6.2,3.6h0l-6.1-3.5m-15-79.8v86l15.1,8.7v-15l-0.3-.2-1.6.8-0.3-.7,1-.6,6.2-3.6,1.2,0.7,4.4,2.5h0l0.8,0.5,1,0.6,8.2,4.7,4.1,2.4h0l5.1,5.4a2,2,0,0,0,1.4.6l1-.3,4.8-2.8,6.3,3.6L391,318.6l-1,.3a2,2,0,0,1-1.3-.4l-5.2-4.2h0l5.2,4.2a2,2,0,0,0,1.3.4l1-.3,11.2-6.5v4.2L391,322.8l-1,.3a2,2,0,0,1-1.3-.4l-5.2-4.2v9.4l28.7,16.6V258.2l-68.5-39.5" transform="translate(-77.1 -62.7)"/><polyline class="cls-12" points="360 202.7 360 289 428.5 328.4 428.8 242.3 360 202.7"/><polyline class="cls-13" points="447.2 253 447.2 403.9 515.7 443.5 515.9 292.7 447.2 253"/><polyline class="cls-14" points="390.7 414.5 390.7 421.6 396.9 418 390.7 414.5"/><polyline class="cls-15" points="390.7 414.4 390.7 414.5 396.9 418 397 418 390.7 414.4"/><path class="cls-5" d="M428.8,441.8c0,3.6-2.9,4.8-6.5,2.7s-6.5-6.6-6.5-10.2,2.9-4.8,6.5-2.7S428.8,438.2,428.8,441.8Z" transform="translate(-77.1 -62.7)"/><polyline class="cls-8" points="185.8 59 189.1 57.2 518.8 247.7 518.7 276.4 515.7 278.2 515.6 249.4 185.8 59"/><polyline class="cls-16" points="518.8 247.7 515.6 249.4 515.7 278.2 518.7 276.3 518.8 247.7"/><polygon class="cls-5" points="171.1 29.4 171.1 258.9 167.2 256.6 167.2 27.1 171.1 29.4"/><polyline class="cls-5" points="171.1 254.3 540.9 467.8 540.9 472.3 167.2 256.6 171.1 254.3"/><polyline class="cls-9" points="185.8 102.1 189.1 100.3 257.5 139.8 257.6 226 254.3 227.9 254.4 141.8 185.8 102.1"/><polyline class="cls-17" points="257.5 139.8 254.4 141.8 254.3 227.9 257.6 226 257.5 139.8"/><polyline class="cls-18" points="189.1 100.3 185.8 102.1 254.4 141.8 257.5 139.8 189.1 100.3"/><polyline class="cls-19" points="266.7 156 276.2 150.6 344.6 190.1 344.5 276.4 335.2 281.8 335.2 195.6 266.7 156"/><polyline class="cls-10" points="266.7 156 276.2 150.6 344.6 190.1 335.2 195.6 266.7 156"/><polyline class="cls-20" points="276.2 150.6 266.7 156 335.2 195.6 344.6 190.1 276.2 150.6"/><polygon class="cls-10" points="344.6 190.1 344.5 276.4 335.2 281.8 335.2 195.6 344.6 190.1"/><polyline class="cls-12" points="360 202.7 363.3 200.9 431.7 240.4 431.8 326.6 428.5 328.4 428.8 242.3 360 202.7"/><polyline class="cls-21" points="431.7 240.4 428.8 242.3 428.5 328.4 431.8 326.6 431.7 240.4"/><polyline class="cls-22" points="363.3 200.9 360 202.7 428.8 242.3 431.7 240.4 363.3 200.9"/><polyline class="cls-13" points="447.2 253 450.4 251.2 518.9 290.7 518.9 441.6 515.7 443.5 515.6 292.5 447.2 253"/><polyline class="cls-7" points="518.9 290.7 518.9 290.7 518.9 441.6 518.9 441.6 518.9 290.7"/><polyline class="cls-23" points="518.9 290.7 518.9 290.7 518.9 441.6 518.9 441.6 518.9 290.7"/><polyline class="cls-24" points="518.9 290.7 515.6 292.5 515.7 443.5 518.9 441.6 518.9 290.7"/><polyline class="cls-25" points="189.1 57.2 185.8 59 515.6 249.4 518.8 247.7 189.1 57.2"/><polyline class="cls-26" points="450.4 251.2 447.2 253 515.6 292.5 518.9 290.7 450.4 251.2"/><polyline class="cls-7" points="185.8 202.7 185.8 209.9 254.3 249.4 254.3 242.3 185.8 202.7"/><polyline class="cls-27" points="185.8 202.7 185.8 209.9 254.3 249.4 254.3 242.3 185.8 202.7"/><polyline class="cls-7" points="257.6 240.3 254.3 242.3 254.3 249.4 257.5 247.5 257.6 240.3"/><polyline class="cls-28" points="257.6 240.3 254.3 242.3 254.3 249.4 257.5 247.5 257.6 240.3"/><polyline class="cls-7" points="189.2 200.8 185.8 202.7 254.3 242.3 257.6 240.3 189.2 200.8"/><polyline class="cls-29" points="189.2 200.8 185.8 202.7 254.3 242.3 257.6 240.3 189.2 200.8"/><polyline class="cls-7" points="185.8 217.1 185.8 224.3 254.3 263.8 254.3 256.6 185.8 217.1"/><polyline class="cls-27" points="185.8 217.1 185.8 224.3 254.3 263.8 254.3 256.6 185.8 217.1"/><polyline class="cls-7" points="257.6 254.7 254.3 256.6 254.3 263.8 257.5 261.9 257.6 254.7"/><polyline class="cls-28" points="257.6 254.7 254.3 256.6 254.3 263.8 257.5 261.9 257.6 254.7"/><polyline class="cls-7" points="189.2 215.2 185.8 217.1 254.3 256.6 257.6 254.7 189.2 215.2"/><polyline class="cls-29" points="189.2 215.2 185.8 217.1 254.3 256.6 257.6 254.7 189.2 215.2"/><polyline class="cls-7" points="185.8 231.5 185.8 238.7 254.3 278.2 254.3 271 185.8 231.5"/><polyline class="cls-27" points="185.8 231.5 185.8 238.7 254.3 278.2 254.3 271 185.8 231.5"/><polyline class="cls-7" points="257.6 269.1 254.3 271 254.3 278.2 257.5 276.3 257.6 269.1"/><polyline class="cls-28" points="257.6 269.1 254.3 271 254.3 278.2 257.5 276.3 257.6 269.1"/><polyline class="cls-7" points="189.2 229.5 185.8 231.5 254.3 271 257.6 269.1 189.2 229.5"/><polyline class="cls-29" points="189.2 229.5 185.8 231.5 254.3 271 257.6 269.1 189.2 229.5"/><polyline class="cls-7" points="185.8 245.9 185.8 253 254.3 292.6 254.3 285.4 185.8 245.9"/><polyline class="cls-27" points="185.8 245.9 185.8 253 254.3 292.6 254.3 285.4 185.8 245.9"/><polyline class="cls-7" points="257.6 283.4 254.3 285.4 254.3 292.6 257.5 290.6 257.6 283.4"/><polyline class="cls-28" points="257.6 283.4 254.3 285.4 254.3 292.6 257.5 290.6 257.6 283.4"/><polyline class="cls-7" points="189.2 243.9 185.8 245.9 254.3 285.4 257.6 283.4 189.2 243.9"/><polyline class="cls-29" points="189.2 243.9 185.8 245.9 254.3 285.4 257.6 283.4 189.2 243.9"/><path class="cls-7" d="M383.5,335.1v7.2l16,9.2,2.4-1.4,6.2,3.6-0.5,2.5,10.8,6.2v-7.2l-34.9-20.2M350,315.7v7.2l8.7,5v-7.2l-8.7-5" transform="translate(-77.1 -62.7)"/><path class="cls-27" d="M383.5,335.1v7.2l16,9.2,2.4-1.4,6.2,3.6-0.5,2.5,10.8,6.2v-7.2l-34.9-20.2M350,315.7v7.2l8.7,5v-7.2l-8.7-5" transform="translate(-77.1 -62.7)"/><polyline class="cls-7" points="344.7 290.6 341.4 292.6 341.4 299.7 344.6 297.8 344.7 290.6"/><polyline class="cls-28" points="344.7 290.6 341.4 292.6 341.4 299.7 344.6 297.8 344.7 290.6"/><path class="cls-7" d="M383.5,331.2v3.9l34.9,20.2,3.3-1.9-38.2-22.1m-30.2-17.4-3.3,1.9,8.7,5v-3.8l-5.4-3.1" transform="translate(-77.1 -62.7)"/><path class="cls-29" d="M383.5,331.2v3.9l34.9,20.2,3.3-1.9-38.2-22.1m-30.2-17.4-3.3,1.9,8.7,5v-3.8l-5.4-3.1" transform="translate(-77.1 -62.7)"/><path class="cls-7" d="M406.2,362.5l-1.4,6.4,13.6,7.9v-7.2l-12.2-7.1m-28.9-16.7v6.5l-9.8-5.6v0.6l32.6,18.8,1.4-6.4-24.1-13.9M350,330.1v7.2l6.5,3.7,1.4-6.4-7.9-4.5" transform="translate(-77.1 -62.7)"/><path class="cls-27" d="M406.2,362.5l-1.4,6.4,13.6,7.9v-7.2l-12.2-7.1m-28.9-16.7v6.5l-9.8-5.6v0.6l32.6,18.8,1.4-6.4-24.1-13.9M350,330.1v7.2l6.5,3.7,1.4-6.4-7.9-4.5" transform="translate(-77.1 -62.7)"/><polyline class="cls-7" points="344.7 305 341.4 306.9 341.4 314.1 344.6 312.2 344.7 305"/><polyline class="cls-28" points="344.7 305 341.4 306.9 341.4 314.1 344.6 312.2 344.7 305"/><path class="cls-7" d="M407,359.1l-0.8,3.4,12.2,7.1,3.3-1.9L407,359.1m-29.6-14v0.7l24.1,13.9,0.5-2.5-6.2-3.6,0.9-.5-13.1-7.6v3.1h0l-6.2-3.6m-24-17-3.3,1.9,7.9,4.5,0.6-2.5,0.3-.2v-0.7l-5.4-3.1" transform="translate(-77.1 -62.7)"/><path class="cls-29" d="M407,359.1l-0.8,3.4,12.2,7.1,3.3-1.9L407,359.1m-29.6-14v0.7l24.1,13.9,0.5-2.5-6.2-3.6,0.9-.5-13.1-7.6v3.1h0l-6.2-3.6m-24-17-3.3,1.9,7.9,4.5,0.6-2.5,0.3-.2v-0.7l-5.4-3.1" transform="translate(-77.1 -62.7)"/><path class="cls-7" d="M397.4,378.3l-0.6.3,0.4,0.2v-0.6m6-3-1.4,6.4,16.5,9.5V384l-15.1-8.7M350,344.5v7.2l3.6,2.1,1.4-6.4-5-2.9" transform="translate(-77.1 -62.7)"/><path class="cls-27" d="M397.4,378.3l-0.6.3,0.4,0.2v-0.6m6-3-1.4,6.4,16.5,9.5V384l-15.1-8.7M350,344.5v7.2l3.6,2.1,1.4-6.4-5-2.9" transform="translate(-77.1 -62.7)"/><polyline class="cls-7" points="344.7 319.4 341.4 321.3 341.4 328.5 344.6 326.6 344.7 319.4"/><polyline class="cls-28" points="344.7 319.4 341.4 321.3 341.4 328.5 344.6 326.6 344.7 319.4"/><path class="cls-7" d="M404.2,371.9l-0.8,3.4,15.1,8.7,3.3-1.9-17.6-10.2m-37.3-21.6-0.2.9h0l32.6,18.7,0.2-.8-32.6-18.8m-13.5-7.8-3.3,1.9,5,2.9,0.8-3.4-2.5-1.4" transform="translate(-77.1 -62.7)"/><path class="cls-29" d="M404.2,371.9l-0.8,3.4,15.1,8.7,3.3-1.9-17.6-10.2m-37.3-21.6-0.2.9h0l32.6,18.7,0.2-.8-32.6-18.8m-13.5-7.8-3.3,1.9,5,2.9,0.8-3.4-2.5-1.4" transform="translate(-77.1 -62.7)"/><path class="cls-7" d="M400.6,388l-1.4,6.4,19.3,11.1v-7.2L400.6,388m-37.3-21.6-1.4,6.4,32.6,18.8,1.4-6.4-32.6-18.8M350,358.8V366l0.8,0.5,1.4-6.4-2.2-1.3" transform="translate(-77.1 -62.7)"/><path class="cls-27" d="M400.6,388l-1.4,6.4,19.3,11.1v-7.2L400.6,388m-37.3-21.6-1.4,6.4,32.6,18.8,1.4-6.4-32.6-18.8M350,358.8V366l0.8,0.5,1.4-6.4-2.2-1.3" transform="translate(-77.1 -62.7)"/><polyline class="cls-7" points="344.7 333.7 341.4 335.7 341.4 342.9 344.6 340.9 344.7 333.7"/><polyline class="cls-28" points="344.7 333.7 341.4 335.7 341.4 342.9 344.6 340.9 344.7 333.7"/><path class="cls-7" d="M401.3,384.6l-0.8,3.4,17.9,10.3,3.3-1.9-20.4-11.8m-37.5-20.7-0.6,2.6,32.6,18.8,0.8-3.4-2.7-1.5-0.8.5v0l-29.3-16.9m-10.9-6.7-2.9,1.7,2.2,1.3,0.7-3" transform="translate(-77.1 -62.7)"/><path class="cls-29" d="M401.3,384.6l-0.8,3.4,17.9,10.3,3.3-1.9-20.4-11.8m-37.5-20.7-0.6,2.6,32.6,18.8,0.8-3.4-2.7-1.5-0.8.5v0l-29.3-16.9m-10.9-6.7-2.9,1.7,2.2,1.3,0.7-3" transform="translate(-77.1 -62.7)"/><polyline class="cls-7" points="360.1 303.4 360.1 310.6 428.5 350.1 428.5 342.9 360.1 303.4"/><polyline class="cls-27" points="360.1 303.4 360.1 310.6 428.5 350.1 428.5 342.9 360.1 303.4"/><polyline class="cls-7" points="431.9 341 428.5 342.9 428.5 350.1 431.8 348.2 431.9 341"/><polyline class="cls-28" points="431.9 341 428.5 342.9 428.5 350.1 431.8 348.2 431.9 341"/><polyline class="cls-7" points="363.4 301.4 360.1 303.4 428.5 342.9 431.9 341 363.4 301.4"/><polyline class="cls-29" points="363.4 301.4 360.1 303.4 428.5 342.9 431.9 341 363.4 301.4"/><polyline class="cls-7" points="360.1 317.8 360.1 324.9 428.5 364.5 428.5 357.3 360.1 317.8"/><polyline class="cls-27" points="360.1 317.8 360.1 324.9 428.5 364.5 428.5 357.3 360.1 317.8"/><polyline class="cls-7" points="431.9 355.3 428.5 357.3 428.5 364.5 431.8 362.6 431.9 355.3"/><polyline class="cls-28" points="431.9 355.3 428.5 357.3 428.5 364.5 431.8 362.6 431.9 355.3"/><polyline class="cls-7" points="363.4 315.8 360.1 317.8 428.5 357.3 431.9 355.3 363.4 315.8"/><polyline class="cls-29" points="363.4 315.8 360.1 317.8 428.5 357.3 431.9 355.3 363.4 315.8"/><polyline class="cls-7" points="360.1 332.1 360.1 339.3 428.5 378.8 428.5 371.6 360.1 332.1"/><polyline class="cls-27" points="360.1 332.1 360.1 339.3 428.5 378.8 428.5 371.6 360.1 332.1"/><polyline class="cls-7" points="431.9 369.7 428.5 371.6 428.5 378.8 431.8 376.9 431.9 369.7"/><polyline class="cls-28" points="431.9 369.7 428.5 371.6 428.5 378.8 431.8 376.9 431.9 369.7"/><polyline class="cls-7" points="363.4 330.2 360.1 332.1 428.5 371.6 431.9 369.7 363.4 330.2"/><polyline class="cls-29" points="363.4 330.2 360.1 332.1 428.5 371.6 431.9 369.7 363.4 330.2"/><polyline class="cls-7" points="360.1 346.5 360.1 353.7 428.5 393.2 428.5 386 360.1 346.5"/><polyline class="cls-27" points="360.1 346.5 360.1 353.7 428.5 393.2 428.5 386 360.1 346.5"/><polyline class="cls-7" points="431.9 384.1 428.5 386 428.5 393.2 431.8 391.3 431.9 384.1"/><polyline class="cls-28" points="431.9 384.1 428.5 386 428.5 393.2 431.8 391.3 431.9 384.1"/><polyline class="cls-7" points="363.4 344.6 360.1 346.5 428.5 386 431.9 384.1 363.4 344.6"/><polyline class="cls-29" points="363.4 344.6 360.1 346.5 428.5 386 431.9 384.1 363.4 344.6"/><path class="cls-6" d="M380.4,426.8v38.6a20,20,0,0,1-10,17.4l-27.3,15.8,87.1,50.3,27.4-15.7a20,20,0,0,0,10-17.3V477.1l-87.4-50.2" transform="translate(-77.1 -62.7)"/><polyline class="cls-5" points="266.2 435.9 266.2 443.1 272.4 439.5 266.2 435.9"/><polyline class="cls-30" points="303.4 368.1 303.4 371.2 303.4 371.2 303.4 368.1 303.4 368.1"/><path class="cls-15" d="M390.7,432.7l-0.8,3.8-2.4,1.4,80.3,46.4v-7.2l-77.2-44.3m-8.9-5.1v3.9l-1.4-.8v3.1l4,2.3,1.4-6.2-0.7-.4-3.4,2v-3.9" transform="translate(-77.1 -62.7)"/><polyline class="cls-31" points="151.8 458.1 0 370.5 0 341.8 151.8 429.3 151.8 458.1"/><polyline class="cls-8" points="151.8 458.1 0 370.5 0 341.8 151.8 429.3 151.8 458.1"/><polyline class="cls-32" points="3.8 354.1 2.3 353.2 2.3 343.1 3.8 343.9 3.8 354.1"/><polyline class="cls-32" points="7.5 356.2 6 355.4 6 345.2 7.5 346.1 7.5 356.2"/><polyline class="cls-32" points="11.3 358.4 9.8 357.5 9.8 347.4 11.3 348.3 11.3 358.4"/><polyline class="cls-32" points="15 360.5 13.5 359.7 13.5 349.6 15 350.4 15 360.5"/><polyline class="cls-32" points="22.5 364.8 21 364 21 353.9 22.5 354.7 22.5 364.8"/><polyline class="cls-32" points="26.2 367 24.7 366.1 24.7 356 26.2 356.9 26.2 367"/><polyline class="cls-32" points="30 369.1 28.5 368.3 28.5 358.2 30 359 30 369.1"/><polyline class="cls-32" points="33.7 371.3 32.2 370.4 32.2 360.3 33.7 361.2 33.7 371.3"/><polyline class="cls-32" points="41.2 375.6 39.7 374.8 39.7 364.6 41.2 365.5 41.2 375.6"/><polyline class="cls-32" points="44.9 377.8 43.4 376.9 43.4 366.8 44.9 367.7 44.9 377.8"/><polyline class="cls-32" points="48.6 379.9 47.2 379.1 47.2 369 48.6 369.8 48.6 379.9"/><polyline class="cls-32" points="52.4 382.1 50.9 381.2 50.9 371.1 52.4 372 52.4 382.1"/><polyline class="cls-32" points="59.9 386.4 58.4 385.5 58.4 375.4 59.9 376.3 59.9 386.4"/><polyline class="cls-32" points="63.6 388.6 62.1 387.7 62.1 377.6 63.6 378.4 63.6 388.6"/><polyline class="cls-32" points="67.3 390.7 65.8 389.9 65.8 379.7 67.3 380.6 67.3 390.7"/><polyline class="cls-32" points="71.1 392.9 69.6 392 69.6 381.9 71.1 382.8 71.1 392.9"/><polyline class="cls-32" points="78.5 397.2 77.1 396.3 77.1 386.2 78.5 387.1 78.5 397.2"/><polyline class="cls-32" points="82.3 399.3 80.8 398.5 80.8 388.4 82.3 389.2 82.3 399.3"/><polyline class="cls-32" points="86 401.5 84.5 400.6 84.5 390.5 86 391.4 86 401.5"/><polyline class="cls-32" points="89.8 403.7 88.3 402.8 88.3 392.7 89.8 393.5 89.8 403.7"/><polyline class="cls-32" points="97.2 408 95.7 407.1 95.7 397 97.2 397.9 97.2 408"/><polyline class="cls-32" points="101 410.1 99.5 409.3 99.5 399.2 101 400 101 410.1"/><polyline class="cls-32" points="104.7 412.3 103.2 411.4 103.2 401.3 104.7 402.2 104.7 412.3"/><polyline class="cls-32" points="108.4 414.4 107 413.6 107 403.5 108.4 404.3 108.4 414.4"/><polyline class="cls-32" points="115.9 418.7 114.4 417.9 114.4 407.8 115.9 408.6 115.9 418.7"/><polyline class="cls-32" points="119.7 420.9 118.2 420 118.2 409.9 119.7 410.8 119.7 420.9"/><polyline class="cls-32" points="123.4 423.1 121.9 422.2 121.9 412.1 123.4 413 123.4 423.1"/><polyline class="cls-32" points="127.1 425.2 125.6 424.4 125.6 414.2 127.1 415.1 127.1 425.2"/><polyline class="cls-32" points="134.6 429.5 133.1 428.7 133.1 418.6 134.6 419.4 134.6 429.5"/><polyline class="cls-32" points="138.3 431.7 136.9 430.8 136.9 420.7 138.3 421.6 138.3 431.7"/><polyline class="cls-32" points="142.1 433.8 140.6 433 140.6 422.9 142.1 423.7 142.1 433.8"/><polyline class="cls-32" points="145.8 436 144.3 435.1 144.3 425 145.8 425.9 145.8 436"/><polyline class="cls-32" points="18.7 367 17.2 366.1 17.2 351.7 18.7 352.6 18.7 367"/><polyline class="cls-32" points="37.4 377.7 35.9 376.9 35.9 362.5 37.4 363.4 37.4 377.7"/><polyline class="cls-32" points="56.1 388.5 54.6 387.7 54.6 373.3 56.1 374.1 56.1 388.5"/><polyline class="cls-32" points="74.8 399.3 73.3 398.4 73.3 384.1 74.8 384.9 74.8 399.3"/><polyline class="cls-32" points="93.5 410.1 92 409.2 92 394.8 93.5 395.7 93.5 410.1"/><polyline class="cls-32" points="112.2 420.9 110.7 420 110.7 405.6 112.2 406.5 112.2 420.9"/><polyline class="cls-32" points="130.9 431.6 129.4 430.8 129.4 416.4 130.9 417.3 130.9 431.6"/><polyline class="cls-32" points="149.6 442.4 148.1 441.6 148.1 427.2 149.6 428 149.6 442.4"/><polyline class="cls-8" points="158.3 426 158.3 454.7 151.8 458.1 151.8 429.3 158.3 426"/><polyline class="cls-16" points="158.3 426 151.8 429.3 151.8 458.1 158.3 454.7 158.3 426"/><polyline class="cls-8" points="0 341.8 6.4 338 158.3 426 151.8 429.3 0 341.8"/><polyline class="cls-25" points="6.4 338 0 341.8 151.8 429.3 158.3 426 6.4 338"/><path class="cls-33" d="M620.1,609.2a4.6,4.6,0,0,1-1.6,3.8l-0.7.4h0c-1.4.6-3.4,0.3-5.6-.9a17,17,0,0,1-5.2-4.9h0a14.2,14.2,0,0,1-2.8-7.7,4.5,4.5,0,0,1,1.7-3.9h0.1l0.3-.2h0c1.4-.7,3.5-0.5,5.9.8a16.8,16.8,0,0,1,5.2,5h0a14,14,0,0,1,2.7,7.5" transform="translate(-77.1 -62.7)"/><path class="cls-34" d="M617.4,601.7l-0.5.2h-0.1l-4.3,2.5-5.5,3.2-68.1,39.5-54.1,31.3h0l-0.8.5-10.5-6.3,0.3-.2,132.1-76.4h0.1l0.3-.2h0c1.4-.7,3.5-0.5,5.9.8a16.8,16.8,0,0,1,5.2,5h0" transform="translate(-77.1 -62.7)"/><path class="cls-35" d="M608.1,595.4a4.1,4.1,0,0,0-1.9.4h0l-0.3.2h-0.1l-132,76.3a4.1,4.1,0,0,1,1.7-.3,8.1,8.1,0,0,1,4,1.2,16.8,16.8,0,0,1,5.3,5.1l54.1-31.3L607,607.6l5.5-3.2,4.3-2.5h0.1l0.5-.3a16.8,16.8,0,0,0-5.2-5,8.1,8.1,0,0,0-4-1.2" transform="translate(-77.1 -62.7)"/><path class="cls-34" d="M620.1,609.2a4.6,4.6,0,0,1-1.6,3.8l-0.7.4h0L485.4,689.9h-0.1l-0.5-11.5h0l54-31.3L607,607.6l5.5-3.2,4.4-2.5,0.5-.3h0a14,14,0,0,1,2.7,7.5" transform="translate(-77.1 -62.7)"/><path class="cls-34" d="M465.2,688.3l1.5-3.1h0.1l5.3-10.8,0.2-.4h0c1.2-2.1,4-2.5,7.3-.6a16.8,16.8,0,0,1,5.3,5.1h0a13.9,13.9,0,0,1,2.6,7.4c0,2.9-1.6,4.6-4,4.5h0l-13-.3h-4.2a1.2,1.2,0,0,1-.8-0.4v-0.4a1.2,1.2,0,0,1,0-1" transform="translate(-77.1 -62.7)"/><path class="cls-36" d="M483.6,690.4h0m1.7-.4h-0.1l-1.1.3,1.1-.4m1.1-8.4,0.2,0.4v0.2a12.4,12.4,0,0,1,.6,2.1v0.7h0a7,7,0,0,1,0,.8h0a5.3,5.3,0,0,1-.8,2.9,5.3,5.3,0,0,0,.8-2.9,11.5,11.5,0,0,0-.9-4.3m-1.7-3.1h0.1l0.4,0.7h0.1l0.5,0.9,0.4,0.9h0a17.7,17.7,0,0,0-1.5-2.7h0m-9.3-6.4a3.6,3.6,0,0,0-3.3,1.8h0l-0.2.4L466.8,685h-0.1l-1.5,3.1a1.2,1.2,0,0,0-.1.5,1.2,1.2,0,0,0,.1.4v0.2h0l2.2-1.2,2.8-1.6,0.3-.2,3.8-2.1,9.6-5.4,0.8-.5h0a16.8,16.8,0,0,0-5.3-5.1,8.1,8.1,0,0,0-4-1.2" transform="translate(-77.1 -62.7)"/><path class="cls-34" d="M465.2,689.5v0.2a1.1,1.1,0,0,0,.8.4h4.2l13,0.3h0a4.1,4.1,0,0,0,1.9-.4h0.1c1.2-.7,2-2.1,2-4.1a7,7,0,0,0,0-.8h0v-0.7a12.4,12.4,0,0,0-.6-2.1V682l-0.3-.7h0l-0.4-.9-0.5-.9h-0.1l-0.4-.7h-0.1l-0.8.5-9.6,5.4-3.8,2.1-0.3.2-2.8,1.6-2.2,1.2" transform="translate(-77.1 -62.7)"/><path class="cls-37" d="M484.8,678.5h0l-0.8.5-9.6,5.4-3.8,2.1-0.3.2-2.8,1.6-2.2,1.2h0v0.2a1.1,1.1,0,0,0,.8.4h4.2l13,0.3h0.1a4,4,0,0,0,1.8-.4h0.1c1.2-.7,2-2.1,2-4.1a7,7,0,0,0,0-.8h0v-0.7a12.4,12.4,0,0,0-.6-2.1V682l-0.3-.7h0l-0.4-.9-0.5-.9h-0.1l-0.4-.7h-0.1" transform="translate(-77.1 -62.7)"/><path class="cls-38" d="M465.1,689.3v0.2h0v0.2a1.1,1.1,0,0,0,.8.4h4v-3.5h0l-3.6-1.4-1.5,3.1A1.2,1.2,0,0,0,465.1,689.3Z" transform="translate(-77.1 -62.7)"/><path class="cls-38" d="M466.6,685.9a5.1,5.1,0,0,0,2.4,3.8c1.3,0.8,2.4.3,2.4-1a5.1,5.1,0,0,0-2.4-3.8C467.7,684.1,466.6,684.5,466.6,685.9Z" transform="translate(-77.1 -62.7)"/><polyline class="cls-39" points="167.1 522.5 167.1 500.9 185.8 511.7 185.8 533.3 167.1 522.5"/><polyline class="cls-40" points="167.1 500.9 167.1 522.5 185.8 533.3 185.8 511.7 167.1 500.9"/><polyline class="cls-39" points="167.1 500.9 185.8 490.1 204.5 500.9 185.8 511.7 167.1 500.9"/><polyline class="cls-41" points="185.8 490.1 167.1 500.9 185.8 511.7 204.5 500.9 185.8 490.1"/><polygon class="cls-42" points="185.8 511.7 204.5 500.9 204.5 522.5 185.8 533.3 185.8 511.7"/><polygon class="cls-39" points="185.8 511.7 204.5 500.9 204.5 522.5 185.8 533.3 185.8 511.7"/><polygon class="cls-43" points="105 314.1 105 292.5 123.7 303.3 123.7 324.8 105 314.1"/><polygon class="cls-44" points="105 292.5 123.7 281.7 142.4 292.5 123.7 303.3 105 292.5"/><polygon class="cls-42" points="123.7 303.3 142.4 292.5 142.4 314.1 123.7 324.8 123.7 303.3"/><polygon class="cls-45" points="123.7 303.3 142.4 292.5 142.4 314.1 123.7 324.8 123.7 303.3"/><polyline class="cls-10" points="92.5 357.3 92.5 335.8 111.2 346.5 111.2 368.1 92.5 357.3"/><polyline class="cls-11" points="92.5 335.8 92.5 357.3 111.2 368.1 111.2 346.5 92.5 335.8"/><polyline class="cls-10" points="92.5 335.8 111.2 325 129.9 335.8 111.2 346.5 92.5 335.8"/><polyline class="cls-20" points="111.2 325 92.5 335.8 111.2 346.5 129.9 335.8 111.2 325"/><polygon class="cls-10" points="111.2 346.5 129.9 335.8 129.9 357.3 111.2 368.1 111.2 346.5"/><polyline class="cls-9" points="61.5 238.5 11.8 267.3 11.9 324.8 61.5 296.1 61.5 238.5"/><polyline class="cls-46" points="61.5 238.5 11.8 267.3 11.9 324.8 61.5 296.1 61.5 238.5"/><path class="cls-32" d="M128.5,346.5c0-3.3-2.7-4.4-5.9-2.5s-5.9,6.1-5.9,9.4,2.7,4.4,5.9,2.5S128.5,349.7,128.5,346.5Z" transform="translate(-77.1 -62.7)"/><path class="cls-32" d="M128.5,323.2c0-3.3-2.7-4.4-5.9-2.5s-5.9,6.1-5.9,9.4,2.7,4.4,5.9,2.5S128.5,326.5,128.5,323.2Z" transform="translate(-77.1 -62.7)"/><path class="cls-32" d="M109.2,345.9c0-3.3-2.7-4.4-5.9-2.5s-5.9,6.1-5.9,9.4,2.7,4.4,5.9,2.5S109.2,349.2,109.2,345.9Z" transform="translate(-77.1 -62.7)"/><polygon class="cls-32" points="27.4 284.6 25.6 288.8 44.2 289.3 46.1 285.1 27.4 284.6"/><polygon class="cls-32" points="44.2 263.3 25.6 285.3 27.4 287.3 46.1 265.4 44.2 263.3"/><polygon class="cls-32" points="92.5 579.9 142.4 551.2 192.1 579.9 142.3 608.6 92.5 579.9"/><polygon class="cls-47" points="92.5 579.9 92.5 587.1 142.3 615.8 192.1 587.1 192.1 579.9 142.3 608.6 92.5 579.9"/><polygon class="cls-48" points="142.3 608.6 142.3 615.8 192.1 587.1 192.1 579.9 142.3 608.6"/><polyline class="cls-9" points="11.9 324.8 5.5 321.1 5.5 263.8 11.8 267.3 11.9 324.8"/><polyline class="cls-3" points="369.2 524.1 369.2 531.2 369.2 524.1 369.2 524.1"/><g class="cls-49"><polyline class="cls-50" points="437.6 484.6 369.2 524.1 369.2 531.2 372.5 533.2 441 493.7 441 486.5 437.6 484.6"/><polyline class="cls-51" points="369.2 524.1 369.2 531.2 372.5 533.2 372.5 526 369.2 524.1"/><polyline class="cls-51" points="437.6 484.6 437.6 484.6 369.2 524.1 369.2 524.1 372.5 526 441 486.5 437.6 484.6"/></g><g class="cls-49"><polyline class="cls-50" points="425.3 477.5 356.8 517 356.8 524.1 360.2 526.1 428.6 486.6 428.6 479.4 425.3 477.5"/><polyline class="cls-51" points="356.8 517 356.8 524.1 360.2 526.1 360.2 518.9 356.8 517"/><polyline class="cls-51" points="425.3 477.5 356.8 517 360.2 518.9 428.6 479.4 425.3 477.5"/></g><polyline class="cls-2" points="453.4 493.8 453.4 493.8 453.4 500.9 385 540.4 453.4 500.9 453.4 493.8"/><g class="cls-49"><polyline class="cls-50" points="450.1 491.8 381.6 531.4 381.6 538.5 385 540.4 453.4 500.9 453.4 493.8 450.1 491.8"/><polyline class="cls-51" points="381.6 531.4 381.6 538.5 385 540.4 385 533.3 381.6 531.4"/><polyline class="cls-51" points="450.1 491.8 450.1 491.8 381.6 531.4 385 533.3 453.4 493.8 450.1 491.8"/></g><path class="cls-52" d="M620.1,609.2a4.6,4.6,0,0,1-1.5,3.8h0l-0.7.4h0l-8.3,4.8a4.6,4.6,0,0,0,1.6-3.8,14,14,0,0,0-2.7-7.5h0a16.8,16.8,0,0,0-5.2-5c-2.3-1.4-4.4-1.6-5.8-.8l9.3-5.4c1.4-.6,3.4-0.3,5.6.9a16.7,16.7,0,0,1,5.2,5h0.1A14.1,14.1,0,0,1,620.1,609.2Z" transform="translate(-77.1 -62.7)"/><polygon class="cls-44" points="532.4 555.7 532.4 555.6 531.9 555.9 532.4 555.7"/><polygon class="cls-44" points="520.1 538.4 519.8 538.6 519.7 538.7 520.1 538.4 520.1 538.4 520.1 538.4"/><polygon class="cls-44" points="531.6 556.1 531.9 555.9 531.6 556.1 531.6 556.1"/><polygon class="cls-52" points="527.6 534.1 528.7 533.5 528.6 533.6 527.8 534 527.6 534.1"/><polygon class="cls-52" points="539.8 551.3 541.1 550.6 539.8 551.3 539.8 551.3"/><polygon class="cls-44" points="539.8 551.4 539.8 551.3 539.3 551.6 539.8 551.4"/><polygon class="cls-44" points="527.5 534.2 527.2 534.3 527.1 534.4 527.6 534.1 527.5 534.1 527.5 534.2"/><polygon class="cls-44" points="539 551.8 539.3 551.6 539 551.8 539 551.8"/><polyline class="cls-10" points="241.3 565.3 291.1 536.6 340.9 565.3 291.1 594 241.3 565.3"/><polyline class="cls-20" points="291.1 536.6 241.3 565.3 291.1 594 340.9 565.3 291.1 536.6"/><polyline class="cls-10" points="241.3 565.3 241.3 572.4 291.1 601.2 340.9 572.4 340.9 565.3 291.1 594 241.3 565.3"/><polygon class="cls-32" points="304.9 558 301.3 565.5 310 572.4 296.4 571.6 289.2 577.8 284.5 569.8 271.3 566.7 282 562.6 281.1 554.5 292.3 559.9 304.9 558"/><polyline class="cls-11" points="241.3 565.3 241.3 572.4 291.1 601.2 291.1 594 241.3 565.3"/><polyline class="cls-53" points="36.2 481.2 86.1 452.5 135.8 481.2 86 509.9 36.2 481.2"/><polyline class="cls-54" points="86.1 452.5 36.2 481.2 86 509.9 135.8 481.2 86.1 452.5"/><polyline class="cls-55" points="36.2 481.2 36.2 488.3 86.1 517.1 135.8 488.3 135.8 481.2 86 509.9 36.2 481.2"/><path class="cls-32" d="M161.1,531.8L182,543.8a2,2,0,0,1,0,3.5l-14.7,8.5a2,2,0,0,1-2,0l-11.2-6.4-9.7-5.6a2,2,0,0,1,0-3.5l14.7-8.5A2,2,0,0,1,161.1,531.8Z" transform="translate(-77.1 -62.7)"/><polygon class="cls-32" points="76.8 493.7 83 490.1 77.1 486.7 76.8 493.7"/><polyline class="cls-56" points="36.2 481.2 36.2 488.3 86.1 517.1 86 509.9 36.2 481.2"/><polyline class="cls-57" points="272.4 439.5 266.2 443.1 353.3 493.4 266.2 443.1 272.4 439.5 272.4 439.5"/><polyline class="cls-58" points="272.4 439.5 266.2 443.1 353.3 493.4 353.3 486.2 272.4 439.5"/><polyline class="cls-58" points="266.2 435.9 266.2 443.1 272.4 439.5 266.2 435.9"/><polyline class="cls-59" points="281.4 269.4 287.6 265.8 293.8 269.4 275.4 352.3 269.2 355.9 287.6 273.1 281.4 269.4"/><polyline class="cls-60" points="278.7 289.4 278.7 296.6 316 318.1 316 310.9 278.7 289.4"/><polyline class="cls-59" points="278.7 289.4 284.8 285.8 322.3 307.3 322.3 314.5 316 318.1 316 310.9 278.7 289.4"/><polyline class="cls-61" points="289.6 288.5 289.6 288.5 322.2 307.3 289.6 288.5"/><polyline class="cls-62" points="289.6 288.5 289.6 288.5 322.2 307.3 289.6 288.5"/><polyline class="cls-63" points="283.4 292.1 283.4 292.1 316 310.9 283.4 292.1"/><polyline class="cls-64" points="289.6 288.5 283.4 292.1 316 310.9 316 318.1 320.3 315.7 322.2 307.3 289.6 288.5"/><polyline class="cls-60" points="273 314.7 273 321.9 310.4 343.5 310.3 336.3 273 314.7"/><polyline class="cls-59" points="273 314.7 279.2 311.2 316.6 332.7 316.6 339.9 310.4 343.5 310.3 336.3 273 314.7"/><polyline class="cls-61" points="283.9 313.9 283.9 313.9 316.5 332.6 316.5 332.6 283.9 313.9"/><polyline class="cls-32" points="283.9 313.9 283.9 313.9 316.5 332.6 316.5 332.6 283.9 313.9"/><polyline class="cls-64" points="283.9 313.9 283.9 313.9 283.9 313.9 283.9 313.9 283.9 313.9"/><polyline class="cls-64" points="283.9 313.9 277.8 317.4 310.3 336.3 310.4 343.5 314.6 341 316.5 332.6 283.9 313.9 283.9 313.9"/><polyline class="cls-59" points="318.7 291 324.9 287.4 331.1 291 312.7 373.9 306.5 377.5 325 294.7 318.7 291"/><polyline class="cls-60" points="263 352.3 269.2 355.9 287.6 273.1 281.4 269.4 263 352.3"/><polyline class="cls-64" points="281.6 269.3 281.4 269.4 281.6 269.6 281.6 269.3"/><polyline class="cls-64" points="324.9 287.4 319.6 290.5 318.7 291 325 294.7 331.1 291 324.9 287.4"/><polyline class="cls-59" points="270.1 320.2 276.3 316.6 282.5 320.2 250 466.6 243.8 470.2 276.3 323.8 270.1 320.2"/><polyline class="cls-60" points="267.4 340.1 267.4 347.3 304.7 368.9 304.7 361.7 267.4 340.1"/><polyline class="cls-60" points="260.8 393.8 257.7 399.2 295.1 420.7 295 413.5 260.8 393.8"/><polyline class="cls-60" points="255.1 419.3 251.5 424.4 288.9 445.9 288.8 438.7 255.1 419.3"/><polyline class="cls-60" points="266.5 368.2 265.1 374.6 299.1 394.2 299 387 266.5 368.2"/><polyline class="cls-60" points="249.5 444.7 245.3 449.5 282.6 471 282.6 463.8 249.5 444.7"/><polyline class="cls-59" points="249.5 444.7 255.6 441.1 288.8 460.3 288.8 467.4 282.6 471 282.6 463.8 249.5 444.7"/><polyline class="cls-59" points="267.4 340.1 273.6 336.6 311 358.1 311 365.3 304.7 368.9 304.7 361.7 267.4 340.1"/><polyline class="cls-59" points="266.5 368.2 272.6 364.6 305.3 383.4 305.3 390.6 299.1 394.2 299 387 266.5 368.2"/><polyline class="cls-59" points="260.8 393.8 267 390.2 301.3 410 301.3 417.2 295.1 420.7 295 413.5 260.8 393.8"/><polyline class="cls-59" points="255.1 419.3 261.3 415.7 295.1 435.2 295.1 442.4 288.9 445.9 288.8 438.7 255.1 419.3"/><polyline class="cls-64" points="278.3 339.3 272.1 342.8 304.7 361.7 304.7 368.9 311 365.3 311 358.1 278.3 339.3"/><polyline class="cls-64" points="272.6 364.6 266.5 368.2 299 387 299.1 394.2 305.3 390.6 305.3 383.4 303.4 382.4 272.6 364.6"/><polyline class="cls-64" points="267 390.2 267 390.2 260.8 393.8 295 413.5 295.1 420.7 301.3 417.2 301.3 411.9 301.3 410 267 390.2"/><polyline class="cls-64" points="261.3 415.7 255.1 419.3 288.8 438.7 288.9 445.9 295.1 442.4 295.1 435.2 281.2 427.2 261.3 415.7"/><polyline class="cls-64" points="255.6 441.1 249.5 444.7 282.6 463.8 282.6 471 288.8 467.4 288.8 460.3 255.6 441.1"/><polygon class="cls-59" points="307.4 341.8 313.6 338.1 319.8 341.8 287.3 488.2 281.1 491.8 313.7 345.4 307.4 341.8"/><polygon class="cls-60" points="237.6 466.6 243.8 470.2 280 307.3 270.1 320.2 237.6 466.6"/><polygon class="cls-60" points="274.1 315.3 274.1 322.5 311.5 344.1 311.4 336.9 274.1 315.3"/><polygon class="cls-60" points="274.9 488.2 281.1 491.8 319.3 319.9 307.4 341.8 274.9 488.2"/><polygon class="cls-59" points="276.8 340.1 278.3 339.3 278.6 338.1 273.5 336.4 273.2 337.9 276.8 340.1"/><polygon class="cls-60" points="300.3 373.9 306.5 377.5 325 294.7 318.7 291 300.3 373.9"/><polyline class="cls-65" points="279.4 235.7 280.4 235.1 286.6 231.5 287.9 232.2 294.1 235.8 287.9 239.4 281.7 235.8 281.7 235.8 281.4 235.7 279.8 236.4 279.4 235.7"/><path class="cls-65" d="M370.2,297.9l1,0.6h0l-1-.6m-6.5-3.7-6.2,3.6-1,.6,0.3,0.7,1.6-.8,0.3,0.2h0l6.1,3.5v-7.2l4.4,2.5h0l-4.4-2.5-1.2-.7" transform="translate(-77.1 -62.7)"/><polyline class="cls-66" points="300.3 246.6 300.3 289.7 281.6 278.9 281.7 235.8 300.3 246.6"/><polyline class="cls-66" points="306.5 242.9 306.5 286.1 287.8 275.3 287.9 232.2 306.5 242.9"/><polygon class="cls-67" points="300.3 289.7 300.3 332.8 290.7 327.3 290.7 284.2 300.3 289.7"/><polygon class="cls-67" points="290.7 284.2 290.7 327.3 281.6 322 281.6 278.9 290.7 284.2"/><polyline class="cls-65" points="306.5 243 306.5 286.1 300.3 282.5 300.3 246.6 306.5 243"/><polygon class="cls-65" points="300.3 282.5 300.3 282.5 306.5 286.1 300.3 289.7 300.3 282.5"/><polygon class="cls-68" points="289 326.3 292.4 328.3 292.4 285.2 289 283.2 289 326.3"/><path class="cls-66" d="M377.4,309.2l11.3,9.2a2,2,0,0,0,2.3.2l11.2-6.5v4.2L391,322.8a2,2,0,0,1-2.3-.2l-11.3-9.1v-4.2" transform="translate(-77.1 -62.7)"/><polyline class="cls-65" points="294.1 235.8 306.5 243 300.3 246.6 287.9 239.4 294.1 235.8"/><path class="cls-65" d="M395.9,308.6l6.3,3.6L391,318.6a2,2,0,0,1-2.3-.2l-11.3-9.2,6.2-3.6,5.1,5.4a2,2,0,0,0,2.4.4l4.8-2.8" transform="translate(-77.1 -62.7)"/><polyline class="cls-65" points="292.3 234.7 292.3 234.7 294.1 235.8 294.1 235.8 293.1 235.2 292.3 234.7"/><polyline class="cls-69" points="292.3 234.7 287.9 239.4 294.1 235.8 292.3 234.7"/><polyline class="cls-61" points="292.3 234.7 287.9 239.4 294.1 235.8 292.3 234.7"/><polyline class="cls-65" points="294.1 235.8 294.1 235.8 287.9 239.4 300.3 246.6 300.3 246.6 300.3 246.6 306.5 243 294.1 235.8"/><path class="cls-65" d="M383.5,305.6h0l-6.2,3.6,11.3,9.2a2,2,0,0,0,1.3.4l1-.3,11.2-6.5-6.3-3.6-4.8,2.8-1,.3a2,2,0,0,1-1.4-.6l-5.1-5.4" transform="translate(-77.1 -62.7)"/><polygon class="cls-70" points="322.1 244.1 318.9 245.9 325.2 249.5 328.4 247.6 322.1 244.1"/><polygon class="cls-70" points="325.2 249.5 328.4 247.6 328.4 251.8 325.2 253.6 325.2 249.5"/><polygon class="cls-70" points="281.6 278.9 278.4 277.1 278.4 273.9 281.6 275.7 281.6 278.9"/><polygon class="cls-68" points="304.9 324.8 311.1 321.2 304.9 317.5 304.9 324.8"/><path class="cls-68" d="M385,383.9l-7.6,4.4v7.2l12.4-7.2v-1.6A3.2,3.2,0,0,0,385,383.9Z" transform="translate(-77.1 -62.7)"/><polygon class="cls-68" points="306.5 286.1 306.5 329.2 300.3 332.8 300.3 289.7 306.5 286.1"/><path class="cls-71" d="M382.3,286.8l-9.9-5.7-7.6,4.2a4,4,0,0,0-2.1,3.5v11.8l10.3,6,5.9-3.4a7,7,0,0,0,3.5-6.1V286.8Z" transform="translate(-77.1 -62.7)"/><path class="cls-70" d="M382.3,289.3l-5.3,3.1a4,4,0,0,0-2,3.5v9.6l3.7-2.2a7,7,0,0,0,3.5-6.1v-7.9Z" transform="translate(-77.1 -62.7)"/><path class="cls-71" d="M374.3,280l9.9,5.7v0.2a3.9,3.9,0,0,1-1.9,3.4v-2.4l-9.9-5.7Z" transform="translate(-77.1 -62.7)"/><path class="cls-66" d="M355.5,336.6l3.2,1.8V298.5h-0.2a2,2,0,0,0-3,1.7v36.5Z" transform="translate(-77.1 -62.7)"/><polyline class="cls-9" points="5.5 263.8 55.5 235.1 61.5 238.5 11.8 267.3 5.5 263.8"/><polyline class="cls-18" points="55.5 235.1 5.5 263.8 11.8 267.3 61.5 238.5 55.5 235.1"/><polygon class="cls-10" points="161 317.7 179.6 306.9 198.3 317.7 179.6 328.5 161 317.7"/><polygon class="cls-32" points="161 317.7 179.6 306.9 198.3 317.7 179.6 328.5 161 317.7"/><polygon class="cls-48" points="179.6 328.5 198.3 317.7 198.3 339.3 179.6 350 179.6 328.5"/><polygon class="cls-47" points="161 339.3 161 317.7 179.6 328.5 179.6 350 161 339.3"/><polyline class="cls-72" points="434.8 547.5 434.8 525.9 453.5 536.7 453.5 558.3 434.8 547.5"/><polyline class="cls-73" points="434.8 525.9 434.8 547.5 453.5 558.3 453.5 536.7 434.8 525.9"/><polyline class="cls-74" points="434.8 525.9 453.5 515.1 472.1 525.9 453.5 536.7 434.8 525.9"/><polyline class="cls-75" points="453.5 515.1 434.8 525.9 453.5 536.7 472.1 525.9 453.5 515.1"/><polygon class="cls-42" points="453.5 536.7 472.1 525.9 472.1 547.5 453.5 558.3 453.5 536.7"/><polygon class="cls-72" points="453.5 536.7 472.1 525.9 472.1 547.5 453.5 558.3 453.5 536.7"/><polygon class="cls-72" points="453.5 536.7 472.1 525.9 472.1 547.5 453.5 558.3 453.5 536.7"/><polyline class="cls-76" points="540.5 601.5 590.3 572.8 640 601.5 590.3 630.2 540.5 601.5"/><polyline class="cls-77" points="540.5 601.5 540.5 608.7 590.3 637.4 640 608.7 640 601.5 590.3 630.2 540.5 601.5"/><polyline class="cls-13" points="123.8 385.8 173.6 357.1 223.4 385.8 173.6 414.5 123.8 385.8"/><polyline class="cls-26" points="173.6 357.1 123.8 385.8 173.6 414.5 223.4 385.8 173.6 357.1"/><polyline class="cls-13" points="123.8 385.8 123.8 392.9 173.6 421.7 223.4 392.9 223.4 385.8 173.6 414.5 123.8 385.8"/><path class="cls-32" d="M248.9,447.5l-17.4,2.8,0.3-.2,21.9-13.6,0.3-.2-3.8,10.4A1.5,1.5,0,0,1,248.9,447.5Z" transform="translate(-77.1 -62.7)"/><path class="cls-32" d="M257,436.8l11.4,6.6c1.1,0.6,1,1.7-.2,2.5L247.1,459a4.4,4.4,0,0,1-4.1.2l-11.4-6.6-0.5-.5,17.5-2.7a6.5,6.5,0,0,0,2.4-.9,3.1,3.1,0,0,0,1.3-1.5l3.9-10.6Z" transform="translate(-77.1 -62.7)"/><polyline class="cls-24" points="223.4 385.8 223.4 385.8 173.6 414.5 173.6 421.7 223.4 392.9 223.4 385.8"/><polyline class="cls-78" points="540.4 605.2 540.4 608.7 590.3 637.4 590.3 637.4 540.5 608.7 540.5 605.3 540.4 605.2"/><polyline class="cls-79" points="540.5 605.3 540.5 608.7 590.3 637.4 590.2 630.3 587 632.1 587 632.1 587 632.1 540.5 605.3"/><polyline class="cls-53" points="537.2 596.2 587.1 567.5 636.8 596.2 587 624.9 537.2 596.2"/><polyline class="cls-80" points="543.5 592.5 537.2 596.2 587 624.9 636.8 596.2 636.7 596.1 593.3 621.3 543.5 592.5"/><polyline class="cls-55" points="537.2 596.2 537.2 603.4 587 632.1 636.8 603.4 636.8 596.2 587 624.9 537.2 596.2"/><polyline class="cls-81" points="543.5 585.3 593.3 556.6 643 585.3 593.3 614 543.5 585.3"/><polyline class="cls-82" points="593.3 556.6 543.5 585.3 593.3 614 643 585.3 593.3 556.6"/><polyline class="cls-42" points="543.5 585.3 543.5 592.5 593.3 621.3 643 592.5 643 585.3 593.3 614 543.5 585.3"/><path class="cls-32" d="M689,651.3c-0.1-1.6-1.4-3.1-3.2-4.2a15.1,15.1,0,0,0-7-2.1l-2.9-.2-0.2-1.7c-0.1-1.6-1.4-3.1-3.2-4.2a15.1,15.1,0,0,0-7-2.1c-5.3-.3-9.4,2.1-9.2,5.3l0.2,1.7v1.5l0.2,2.1,0.7,8.1,13.4,0.7,3.5,0.2H677l2.9,0.2C685.2,656.9,689.3,654.5,689,651.3Z" transform="translate(-77.1 -62.7)"/><polyline class="cls-83" points="543.5 585.3 543.5 592.5 593.3 621.3 593.3 614 543.5 585.3"/><polyline class="cls-78" points="537.2 596.2 537.2 603.4 540.4 605.2 540.4 605.2 537.2 603.4 537.2 596.2 537.2 596.2"/><polyline class="cls-84" points="540.4 605.2 540.4 605.2 540.5 605.3 540.5 605.2 540.4 605.2"/><polyline class="cls-85" points="540.5 605.2 540.5 605.3 587 632.1 587 632.1 540.5 605.2"/><polyline class="cls-32" points="540.5 605.2 540.5 605.3 587 632.1 587 632.1 540.5 605.2"/><polyline class="cls-86" points="537.2 596.2 537.2 603.4 540.4 605.2 540.5 605.2 587 632.1 587 624.9 537.2 596.2"/><polygon class="cls-60" points="306.5 377.5 300.3 373.9 318.7 291 325 294.7 306.5 377.5"/></g></g></svg>