<svg xmlns="http://www.w3.org/2000/svg" version="1.1" xmlns:xlink="http://www.w3.org/1999/xlink" width="512" height="512" x="0" y="0" viewBox="0 0 512 512" style="enable-background:new 0 0 512 512" xml:space="preserve" class=""><g><path fill="#ffffff" d="M95.396 166.819c-25.418 48.778-39.708 103.64-39.708 161.653 0 66.409 28.519 126.149 73.972 167.661 16.408 14.985 42.942 7.545 49.39-13.72a228.05 228.05 0 0 0 6.605-28.089c8.43-49.755-.017-98.47-21.18-140.287-23.515-46.466-37.133-96.258-40.912-146.398a202.69 202.69 0 0 0-20.062-.998c-2.716 0-5.416.07-8.105.177z" opacity="1" data-original="#ffffff" class=""></path><g fill="#ffd1e1"><path d="M225.09 328.192c-18.755 1.495-35.022 11.81-44.655 26.795a225.392 225.392 0 0 1 8.439 61.472c25.909-6.078 45.206-29.313 45.206-57.076a58.359 58.359 0 0 0-8.99-31.19zM64.515 391.296c-16.83-10.001-38.155-11.244-56.51-1.924a58.36 58.36 0 0 0 8.62 31.295c15.023 24.537 45.182 34.108 71.096 24.092a225.713 225.713 0 0 1-23.206-53.463zM151.208 66.039c3.228-20.214-.576-40.618-10.134-58.04C105.09 28.138 80.75 66.6 80.75 110.767c0 20.375 5.185 39.533 14.3 56.24l28.626.719a139.071 139.071 0 0 1 40.056-35.69c31.684-18.734 54.043-48.809 63.445-83.095-26.3-5.895-54.355.15-75.97 17.099z" fill="#ffd1e1" opacity="1" data-original="#ffd1e1" class=""></path></g><path fill="#ff4889" d="M103.5 166.641c-2.715 0-5.414.07-8.104.178-11.804 22.651-21.203 46.616-27.89 71.598a55.324 55.324 0 0 0 26.852 7.835c3.172 27.702 26.685 49.22 55.236 49.22a56.21 56.21 0 0 0 5.962-.321c-18.06-40.956-28.72-84.101-31.992-127.513-6.6-.656-13.291-.997-20.063-.997zM135.143 372.326c0-21.142-15.504-38.66-35.762-41.811-4.59-20.038-21.174-35.495-41.797-38.41a350.035 350.035 0 0 0-1.895 36.367c0 27.965 5.074 54.74 14.324 79.477a42.064 42.064 0 0 0 22.812 6.694c23.371 0 42.318-18.946 42.318-42.317z" opacity="1" data-original="#ff4889"></path><path fill="#ffffff" d="M416.604 345.18c25.418-48.778 39.708-103.639 39.708-161.653 0-66.408-28.519-126.149-73.972-167.661C365.932.88 339.398 8.32 332.95 29.586a228.06 228.06 0 0 0-6.605 28.09c-8.43 49.755.017 98.47 21.18 140.287 23.516 46.466 37.133 96.257 40.912 146.398 6.599.656 13.29.997 20.062.997 2.716 0 5.416-.07 8.105-.177z" opacity="1" data-original="#ffffff" class=""></path><path fill="#ccf0ff" d="M382.34 15.866C365.932.88 339.398 8.32 332.95 29.586c-.102.337-.191.682-.292 1.02 6.235.09 12.524 2.408 17.692 7.326 40.699 38.733 66.234 94.472 66.234 156.433 0 48.943-10.462 95.48-29.29 137.592.445 4.131.83 8.266 1.143 12.404 6.598.656 13.29.997 20.062.997 2.716 0 5.415-.07 8.105-.177 25.418-48.779 39.708-103.64 39.708-161.654 0-66.408-28.519-126.149-73.972-167.661z" opacity="1" data-original="#ccf0ff"></path><path fill="#ffd1e1" d="M286.91 183.807c18.755-1.495 35.022-11.81 44.655-26.795a225.393 225.393 0 0 1-8.439-61.472c-25.909 6.078-45.206 29.313-45.206 57.076a58.36 58.36 0 0 0 8.99 31.191z" opacity="1" data-original="#ffd1e1" class=""></path><path fill="#ffa3c4" d="M447.485 120.704c16.83 10 38.155 11.244 56.51 1.923a58.36 58.36 0 0 0-8.62-31.295c-15.023-24.537-45.182-34.108-71.096-24.092a225.703 225.703 0 0 1 23.206 53.464z" opacity="1" data-original="#ffa3c4"></path><path fill="#ffd1e1" d="M360.792 445.96c-3.228 20.214.576 40.619 10.134 58.04 35.984-20.138 60.324-58.6 60.324-102.767 0-20.375-5.186-39.532-14.3-56.24l-28.627-.719a139.073 139.073 0 0 1-40.056 35.69c-31.684 18.734-54.043 48.809-63.445 83.095 26.3 5.895 54.355-.15 75.97-17.099z" opacity="1" data-original="#ffd1e1" class=""></path><path fill="#ffa3c4" d="m416.95 344.993-27.232-.684c4.714 12.723 7.302 26.477 7.302 40.841 0 33.63-14.121 63.943-36.74 85.387A91.365 91.365 0 0 0 370.926 504c35.984-20.138 60.324-58.6 60.324-102.768 0-20.374-5.186-39.532-14.3-56.24z" opacity="1" data-original="#ffa3c4"></path><path fill="#ff76a6" d="M408.5 345.358c2.715 0 5.414-.07 8.104-.177 11.804-22.652 21.203-46.617 27.89-71.6a55.324 55.324 0 0 0-26.852-7.834c-3.172-27.701-26.685-49.22-55.236-49.22a56.21 56.21 0 0 0-5.962.321c18.06 40.956 28.72 84.101 31.992 127.513 6.6.656 13.291.997 20.063.997z" opacity="1" data-original="#ff76a6" class=""></path><path fill="#ff4889" d="M417.642 265.747a55.236 55.236 0 0 0-5.277-18.01 335.602 335.602 0 0 1-25.084 84.248c.444 4.122.844 8.247 1.155 12.376 6.6.656 13.291.997 20.063.997 2.716 0 5.415-.07 8.105-.177 11.804-22.652 21.203-46.617 27.89-71.6a55.325 55.325 0 0 0-26.852-7.834z" opacity="1" data-original="#ff4889"></path><path fill="#ff76a6" d="M376.857 139.674c0 21.141 15.504 38.66 35.762 41.81 4.59 20.038 21.173 35.496 41.796 38.411a350.035 350.035 0 0 0 1.896-36.368c0-27.965-5.074-54.74-14.324-79.477a42.064 42.064 0 0 0-22.812-6.694c-23.371 0-42.318 18.946-42.318 42.318z" opacity="1" data-original="#ff76a6" class=""></path><path fill="#ff4889" d="M441.987 104.05a42.066 42.066 0 0 0-22.812-6.694 42.114 42.114 0 0 0-22.156 6.262c12.299 26.98 19.278 57.097 19.541 88.889 7.2 14.508 21.21 25.035 37.855 27.388a350.033 350.033 0 0 0 1.896-36.368c0-27.965-5.074-54.74-14.324-79.477z" opacity="1" data-original="#ff4889"></path><g fill="#192336"><path d="M224.455 320.217c-15.533 1.239-29.828 7.779-40.81 18.366a237.02 237.02 0 0 0-12.032-28.159c-22.32-44.105-35.702-91.231-39.806-140.122 10-12.61 22.096-23.16 35.999-31.38 33.09-19.566 56.916-50.772 67.088-87.866a7.997 7.997 0 0 0-5.965-9.922c-23.581-5.285-47.82-1.843-68.617 9.4-.23-16.104-4.404-32.128-12.225-46.383a8 8 0 0 0-10.92-3.132C97.433 23.254 72.75 65.307 72.75 110.767c0 19.636 4.629 39.09 13.417 56.522-25.533 50.533-38.48 104.734-38.48 161.183 0 16.694 1.719 33.103 5.124 49.119-15.979-4.59-33.222-3.073-48.43 4.648a7.998 7.998 0 0 0-4.376 7.035 66.458 66.458 0 0 0 9.797 35.57c12.398 20.251 34.223 31.85 56.872 31.849 5.834 0 11.723-.774 17.519-2.363 11.116 17.523 24.511 33.5 40.072 47.71 7.12 6.504 16.223 9.96 25.596 9.96a38.63 38.63 0 0 0 10.238-1.388c12.813-3.521 22.76-13.194 26.606-25.877a237.135 237.135 0 0 0 6.837-29.075 238.45 238.45 0 0 0 3.266-33.172c26.866-9.078 45.271-34.405 45.271-63.105a66.463 66.463 0 0 0-10.219-35.452 8.01 8.01 0 0 0-7.406-3.714zm-86.73-300.799c6.037 14.276 8.021 30.097 5.584 45.359a8 8 0 0 0 12.835 7.557c17.32-13.582 39.038-19.598 60.697-17.052-10.18 29.343-30.235 53.935-57.179 69.867-15.21 8.993-28.49 20.476-39.544 34.16-5.534-.437-19.055-.653-20.346-.627a109.85 109.85 0 0 1-11.021-47.915c0-36.828 18.566-71.097 48.974-91.349zM23.447 416.49a50.496 50.496 0 0 1-7.258-22.027c13.493-5.26 28.557-4.477 41.55 2.23a234.334 234.334 0 0 0 10.597 28.234 237.09 237.09 0 0 0 7.388 14.94c-20.242 3.709-41.204-5.292-52.277-23.377zm147.947 63.603c-2.242 7.393-8.048 13.035-15.534 15.091-7.51 2.066-15.095.258-20.805-4.957a221.183 221.183 0 0 1-22.752-24.13l3.832-3.302a8 8 0 0 0-10.446-12.12l-3.007 2.591a218.746 218.746 0 0 1-19.76-34.913c-12.762-28.319-19.234-58.558-19.234-89.88 0-53.854 12.333-105.57 36.67-153.8 1.09-.02 11.577.108 15.8.383 4.605 49.73 18.444 97.67 41.18 142.594 19.436 38.406 26.997 80.834 22.115 123.412-3.727-2.174-8.529-1.005-10.82 2.681a8 8 0 0 0 2.571 11.018l5.589 3.474a220.633 220.633 0 0 1-5.4 21.858zm25.264-74.732a231.674 231.674 0 0 0-7.502-48.914c7.738-10.413 18.977-17.375 31.613-19.64a50.5 50.5 0 0 1 5.311 22.577c0 19.99-11.745 37.828-29.422 45.977zM287.545 191.783c15.533-1.239 29.827-7.779 40.81-18.366a237.02 237.02 0 0 0 12.032 28.159c22.32 44.105 35.702 91.231 39.806 140.122-10 12.61-22.096 23.16-35.999 31.38-33.09 19.566-56.916 50.772-67.088 87.866a7.997 7.997 0 0 0 5.965 9.922c23.581 5.285 47.82 1.843 68.617-9.4.23 16.104 4.404 32.128 12.225 46.383a8 8 0 0 0 10.92 3.132c39.733-22.235 64.416-64.288 64.416-109.748 0-19.636-4.629-39.09-13.417-56.522 25.533-50.533 38.48-104.734 38.48-161.183 0-16.694-1.72-33.103-5.125-49.118 15.98 4.589 33.223 3.072 48.43-4.65a7.998 7.998 0 0 0 4.377-7.034 66.458 66.458 0 0 0-9.797-35.57c-12.398-20.251-34.223-31.85-56.872-31.849-5.834 0-11.723.774-17.519 2.364-11.117-17.524-24.512-33.5-40.072-47.712C380.614 3.456 371.511 0 362.138 0c-3.404 0-6.845.457-10.238 1.39-12.813 3.52-22.76 13.193-26.606 25.876a237.135 237.135 0 0 0-6.837 29.075 238.45 238.45 0 0 0-3.267 33.172c-26.866 9.079-45.27 34.405-45.27 63.105a66.463 66.463 0 0 0 10.219 35.452 8.01 8.01 0 0 0 7.406 3.714zm86.73 300.799c-6.037-14.276-8.021-30.097-5.584-45.359a8 8 0 0 0-12.835-7.557c-17.32 13.582-39.038 19.597-60.697 17.052 10.18-29.343 30.235-53.935 57.179-69.867 15.21-8.993 28.49-20.476 39.544-34.16 5.534.437 19.055.653 20.346.627a109.85 109.85 0 0 1 11.021 47.915c0 36.828-18.566 71.097-48.974 91.349zM488.553 95.51a50.496 50.496 0 0 1 7.257 22.027c-13.492 5.26-28.556 4.477-41.55-2.23a234.334 234.334 0 0 0-10.596-28.234 237.09 237.09 0 0 0-7.388-14.94c20.242-3.709 41.204 5.292 52.277 23.377zM340.606 31.908c2.242-7.393 8.048-13.035 15.534-15.091 7.51-2.066 15.095-.258 20.805 4.957a221.183 221.183 0 0 1 22.752 24.13l-3.832 3.302a8 8 0 0 0 10.446 12.12l3.007-2.591a218.741 218.741 0 0 1 19.76 34.913c12.762 28.319 19.234 58.558 19.234 89.88 0 53.854-12.333 105.57-36.67 153.8-1.09.02-11.577-.108-15.8-.383-4.605-49.73-18.444-97.67-41.18-142.594-19.436-38.407-26.997-80.835-22.114-123.412 3.726 2.174 8.528 1.005 10.818-2.681a8 8 0 0 0-2.57-11.018l-5.589-3.475a220.638 220.638 0 0 1 5.4-21.857zm-25.264 74.732a231.674 231.674 0 0 0 7.502 48.914c-7.738 10.413-18.977 17.374-31.613 19.64a50.5 50.5 0 0 1-5.311-22.577c0-19.99 11.745-37.828 29.422-45.977z" fill="#192336" opacity="0" data-original="#192336" class=""></path></g></g></svg>