<?xml version="1.0" standalone="no"?>
<!DOCTYPE svg PUBLIC "-//W3C//DTD SVG 20010904//EN"
 "http://www.w3.org/TR/2001/REC-SVG-20010904/DTD/svg10.dtd">
<svg version="1.0" xmlns="http://www.w3.org/2000/svg"
 width="401.000000pt" height="401.000000pt" viewBox="0 0 401.000000 401.000000"
 preserveAspectRatio="xMidYMid meet">
<metadata>
Created by potrace 1.11, written by Peter Selinger 2001-2013
</metadata>
<g transform="translate(0.000000,401.000000) scale(0.100000,-0.100000)"
fill="#000000" stroke="none">
<path d="M3075 3834 c-6 -1 -22 -5 -37 -8 -39 -9 -95 -61 -108 -101 -27 -83
-12 -136 61 -215 177 -191 317 -469 364 -725 85 -455 -29 -910 -315 -1260 -32
-39 -65 -77 -74 -85 -23 -19 -48 -78 -48 -117 -1 -130 131 -216 242 -158 52
27 186 190 279 339 53 85 140 262 155 316 1 3 14 41 28 85 35 106 46 149 64
254 3 18 8 43 10 55 25 126 22 412 -6 592 -56 350 -256 750 -486 970 -38 37
-101 65 -129 58z"/>
<path d="M765 3816 c-34 -15 -84 -67 -167 -171 -178 -224 -313 -521 -362 -800
-37 -208 -41 -435 -10 -660 19 -147 93 -375 173 -535 99 -199 280 -442 361
-485 110 -58 240 27 240 157 0 49 -21 90 -74 148 -56 61 -156 194 -156 208 0
7 -3 12 -7 12 -5 0 -13 10 -19 23 -6 12 -30 60 -53 106 -46 90 -115 289 -126
361 -4 25 -8 47 -10 50 -7 11 -19 175 -19 255 0 376 129 724 371 1002 70 80
93 124 93 175 -1 48 -33 112 -70 138 -40 29 -121 37 -165 16z"/>
<path d="M1291 3302 c-57 -10 -204 -195 -271 -339 -142 -306 -137 -666 12
-972 75 -153 193 -294 262 -312 101 -27 198 40 209 147 6 55 -11 97 -60 155
-132 155 -194 316 -194 504 0 198 61 357 196 517 38 44 55 82 60 133 2 22 -18
82 -37 108 -34 48 -106 72 -177 59z"/>
<path d="M2535 3303 c-31 -8 -83 -51 -100 -84 -41 -79 -23 -149 66 -254 57
-68 121 -191 145 -280 25 -92 27 -282 3 -375 -26 -104 -98 -243 -163 -318 -59
-66 -77 -111 -70 -168 13 -108 108 -172 212 -145 71 20 187 165 269 337 64
136 100 294 106 469 3 93 -27 272 -64 380 -53 150 -200 374 -277 418 -33 19
-90 28 -127 20z"/>
<path d="M1918 2828 c-111 -14 -200 -80 -254 -187 -26 -50 -29 -66 -29 -151 0
-84 3 -101 28 -150 49 -98 121 -158 220 -184 160 -42 331 54 385 216 81 245
-106 489 -350 456z"/>
<path d="M1757 1998 c-3 -8 -3 -43 -1 -79 2 -35 6 -118 10 -184 4 -66 7 -427
8 -802 1 -545 4 -685 14 -695 19 -19 302 -22 327 -4 16 12 18 58 20 747 2 652
7 878 19 972 6 43 -17 59 -72 50 -58 -9 -177 -9 -258 2 -49 6 -62 4 -67 -7z"/>
<path d="M2485 1259 c-16 -5 -45 -11 -65 -14 -19 -3 -42 -7 -50 -10 -17 -4
-71 -13 -138 -21 -26 -3 -49 -7 -51 -10 -2 -2 3 -48 13 -101 24 -144 27 -187
27 -533 -1 -173 4 -322 9 -329 7 -12 40 -15 162 -17 84 -1 163 3 176 7 22 8
23 12 18 81 -4 40 -7 160 -7 265 -2 259 3 266 183 264 58 0 99 3 103 10 4 5 9
74 11 152 2 78 5 160 7 182 4 48 -4 55 -64 55 -57 0 -126 -23 -202 -68 -32
-18 -61 -32 -63 -29 -7 7 -12 35 -13 68 -1 41 -21 58 -56 48z"/>
</g>
</svg>
